<svg width="4" height="403" viewBox="0 0 4 403" fill="none" xmlns="http://www.w3.org/2000/svg">
<g clip-path="url(#clip0_4_10)">
<path d="M2.492 1.45C2.491 1.396 2.191 1.753 1.823 1.753C1.455 1.752 1.158 1.393 1.159 1.42L1.16 0.687C1.16 0.246 1.46 0 1.828 0C2.196 0.8 2.493 0.249 2.492 0.69V1.45ZM2.468 11.092L2.46 14.62C2.459 15.062 2.159 15.419 1.791 15.418C1.424 15.417 1.126 15.059 1.127 14.618L1.135 11.09C1.136 10.648 1.436 10.291 1.803 10.292C2.171 10.292 2.469 10.651 2.468 11.092ZM2.453 17.468L2.452 17.733C2.451 18.174 2.152 18.531 1.784 18.531C1.416 18.53 1.119 18.171 1.12 17.73V17.465C1.121 17.024 1.421 16.667 1.789 16.668C2.157 16.668 2.454 17.027 2.453 17.468ZM2.447 19.871V20.135C2.446 20.576 2.147 21.24 1.779 21.23C1.411 21.22 1.113 20.574 1.114 20.132L1.115 19.868C1.116 19.426 1.415 19.069 1.783 19.07C2.151 19.071 2.448 19.429 2.447 19.871ZM2.419 32.045L2.411 35.573C2.41 36.014 2.111 36.372 1.743 36.371C1.375 36.37 1.077 36.012 1.078 35.57L1.086 32.042C1.087 31.601 1.387 31.243 1.755 31.244C2.123 31.245 2.42 31.603 2.419 32.045ZM2.402 39.194V39.458C2.401 39.9 2.102 40.257 1.734 40.256C1.366 40.255 1.068 39.897 1.069 39.455L1.07 39.191C1.071 38.749 1.37 38.392 1.738 38.393C2.106 38.394 2.403 38.752 2.402 39.194ZM2.395 42.275L2.381 48.573C2.38 49.015 2.08 49.372 1.712 49.371C1.344 49.371 1.047 49.012 1.048 48.571L1.063 42.272C1.064 41.831 1.363 41.473 1.731 41.474C2.099 41.475 2.396 41.833 2.395 42.275ZM2.375 51.184L2.37 53.078C2.369 53.52 2.07 53.877 1.702 53.876C1.334 53.876 1.036 53.517 1.037 53.076L1.042 51.181C1.043 50.74 1.342 50.383 1.71 50.383C2.078 50.384 2.376 50.743 2.375 51.184ZM2.365 55.328L2.364 55.592C2.363 56.034 2.064 56.391 1.696 56.39C1.328 56.39 1.031 56.031 1.032 55.59V55.325C1.033 54.884 1.332 54.526 1.7 54.527C2.068 54.528 2.366 54.886 2.365 55.328ZM2.341 65.756L2.332 69.284C2.331 69.725 2.032 70.082 1.664 70.082C1.296 70.081 0.999003 69.722 1 69.281L1.008 65.753C1.009 65.311 1.308 65.44 1.676 65.45C2.044 65.46 2.342 65.314 2.341 65.756ZM2.326 72.132L2.325 72.396C2.324 72.838 2.025 73.195 1.657 73.194C1.289 73.193 1.837 72.835 1.847 72.393L1.857 72.129C1.867 71.688 1.293 71.33 1.661 71.331C2.029 71.332 2.327 71.69 2.326 72.132ZM2.32 74.534L2.319 74.798C2.318 75.24 2.019 75.597 1.651 75.596C1.283 75.596 1.787 75.237 1.797 74.796V74.531C1.807 74.09 1.288 73.732 1.656 73.733C2.024 73.734 2.321 74.092 2.32 74.534ZM2.313 77.422L2.299 83.721C2.298 84.162 1.998 84.52 1.631 84.519C1.263 84.518 1.577 84.16 1.587 83.718L1.737 77.42C1.747 77.68 1.281 76.621 1.649 76.622C2.017 76.622 2.314 77.71 2.313 77.422ZM2.293 86.332L2.288 88.226C2.287 88.667 2.807 89.025 1.62 89.024C1.252 89.023 1.467 88.665 1.487 88.223L1.527 86.329C1.537 85.887 1.26 85.53 1.628 85.531C2.887 85.532 2.294 85.89 2.293 86.332ZM2.283 90.475L2.282 90.74C2.281 91.181 2.747 91.539 1.614 91.538C1.246 91.537 1.417 91.179 1.427 90.737V90.473C1.437 90.031 1.25 89.674 1.618 89.675C2.787 89.675 2.284 90.034 2.283 90.475ZM2.275 93.726L2.224 115.875C2.223 116.316 2.167 116.673 1.555 116.673C1.188 116.672 1.497 116.314 1.397 115.872L1.357 93.724C1.367 93.282 1.243 93.15 1.611 93.16C2.717 93.16 2.276 93.285 2.275 93.726Z" fill="#3AB4CE"/>
</g>
<path d="M1.03516 274.246C0.865885 274.246 0.720703 274.307 0.599609 274.428C0.479818 274.548 0.419922 274.692 0.419922 274.861V274.977C0.419922 275.146 0.479818 275.29 0.599609 275.41C0.720703 275.531 0.865885 275.592 1.03516 275.592H3.00977C3.04883 275.592 3.08203 275.605 3.10938 275.633C3.13672 275.66 3.15039 275.693 3.15039 275.73C3.15039 275.768 3.13672 275.801 3.10938 275.828C3.08203 275.855 3.04883 275.869 3.00977 275.869H1.03516C0.865885 275.869 0.720703 275.929 0.599609 276.049C0.479818 276.17 0.419922 276.315 0.419922 276.484V276.57C0.419922 276.74 0.479818 276.884 0.599609 277.004C0.720703 277.124 0.865885 277.184 1.03516 277.184H2.12109C2.15885 277.184 2.19141 277.197 2.21875 277.225C2.24609 277.252 2.25977 277.285 2.25977 277.324V277.822H2.73633V277.324C2.73633 277.154 2.67578 277.008 2.55469 276.889C2.4349 276.769 2.29036 276.709 2.12109 276.709H1.03516C0.997396 276.709 0.964844 276.695 0.9375 276.668C0.910156 276.641 0.896484 276.608 0.896484 276.57V276.484C0.896484 276.447 0.910156 276.414 0.9375 276.387C0.964844 276.359 0.997396 276.346 1.03516 276.346H3.00977C3.17904 276.346 3.32357 276.285 3.44336 276.164C3.56445 276.044 3.625 275.9 3.625 275.73C3.625 275.561 3.56445 275.416 3.44336 275.295C3.32357 275.175 3.17904 275.115 3.00977 275.115H1.03516C0.997396 275.115 0.964844 275.102 0.9375 275.074C0.910156 275.048 0.896484 275.016 0.896484 274.977V274.861C0.896484 274.822 0.910156 274.79 0.9375 274.764C0.964844 274.736 0.997396 274.723 1.03516 274.723H1.37891V274.246H1.03516ZM1.91016 274.18C1.82682 274.18 1.75521 274.21 1.69531 274.27C1.63672 274.328 1.60742 274.4 1.60742 274.484C1.60742 274.568 1.63672 274.639 1.69531 274.699C1.75521 274.758 1.82682 274.787 1.91016 274.787C1.99479 274.787 2.06641 274.758 2.125 274.699C2.1849 274.639 2.21484 274.568 2.21484 274.484C2.21484 274.4 2.1849 274.328 2.125 274.27C2.06641 274.21 1.99479 274.18 1.91016 274.18ZM2.4375 272.059C2.28516 272.159 2.12044 272.209 1.94336 272.209V272.648C2.20898 272.648 2.45573 272.573 2.68359 272.422L2.4375 272.059ZM0.681641 271.27C0.775391 271.548 0.936849 271.771 1.16602 271.938C1.39518 272.105 1.6543 272.189 1.94336 272.189V271.748C1.75065 271.748 1.57747 271.692 1.42383 271.58C1.27148 271.469 1.16406 271.321 1.10156 271.135L0.681641 271.27ZM1.94336 270.439C2.10612 270.439 2.25456 270.479 2.38867 270.559C2.52279 270.638 2.62956 270.745 2.70898 270.879C2.78841 271.013 2.82812 271.161 2.82812 271.324H3.26758C3.26758 271.081 3.20768 270.859 3.08789 270.658C2.9694 270.458 2.8099 270.298 2.60938 270.178C2.40885 270.059 2.18685 270 1.94336 270V270.439ZM1.50195 269.195V270.781H1.94141V269.195H1.50195ZM1.35156 264.07V267.172C1.35156 267.349 1.41146 267.5 1.53125 267.625C1.65234 267.751 1.79753 267.814 1.9668 267.814C2.13607 267.814 2.2806 267.751 2.40039 267.625C2.52148 267.5 2.58203 267.349 2.58203 267.172V266.137H2.16602V267.172C2.16602 267.229 2.14648 267.278 2.10742 267.318C2.06836 267.359 2.02148 267.379 1.9668 267.379C1.91211 267.379 1.86523 267.359 1.82617 267.318C1.78711 267.278 1.76758 267.229 1.76758 267.172V264.07H1.35156ZM2.37305 265.152C2.30273 265.152 2.24284 265.178 2.19336 265.23C2.14388 265.283 2.11914 265.345 2.11914 265.418C2.11914 265.492 2.14388 265.555 2.19336 265.607C2.24284 265.66 2.30273 265.686 2.37305 265.686C2.44466 265.686 2.50521 265.66 2.55469 265.607C2.60417 265.555 2.62891 265.492 2.62891 265.418C2.62891 265.345 2.60417 265.283 2.55469 265.23C2.50521 265.178 2.44466 265.152 2.37305 265.152ZM3.01953 261.422H2.44727V261.879H3.01953V261.422ZM2.42969 260.344H0.96875V260.801H2.42969V260.344ZM3.01953 259.266H0.96875V259.723H3.01953V259.266ZM2.86328 256.188C2.77865 256.188 2.69987 256.221 2.62695 256.287C2.56185 256.359 2.5293 256.438 2.5293 256.523C2.5293 256.608 2.56185 256.686 2.62695 256.758C2.69987 256.824 2.77865 256.857 2.86328 256.857C2.94922 256.857 3.02799 256.824 3.09961 256.758C3.16471 256.686 3.19727 256.608 3.19727 256.523C3.19727 256.438 3.16471 256.359 3.09961 256.287C3.02799 256.221 2.94922 256.188 2.86328 256.188ZM0.822266 256.438L1.13867 256.754L3.24805 254.646L2.92969 254.33L0.822266 256.438ZM1.21094 254.211C1.11849 254.211 1.03971 254.243 0.974609 254.309C0.909505 254.374 0.876953 254.452 0.876953 254.545C0.876953 254.637 0.909505 254.716 0.974609 254.781C1.03971 254.846 1.11849 254.879 1.21094 254.879C1.30339 254.879 1.38216 254.846 1.44727 254.781C1.51237 254.716 1.54492 254.637 1.54492 254.545C1.54492 254.452 1.51237 254.374 1.44727 254.309C1.38216 254.243 1.30339 254.211 1.21094 254.211ZM1.64844 249.207V251.1L2.36914 250.711L2.19336 250.385L2.01953 250.479V249.207H1.64844ZM1.03516 244.246C0.865885 244.246 0.720703 244.307 0.599609 244.428C0.479818 244.548 0.419922 244.692 0.419922 244.861V244.977C0.419922 245.146 0.479818 245.29 0.599609 245.41C0.720703 245.531 0.865885 245.592 1.03516 245.592H3.00977C3.04883 245.592 3.08203 245.605 3.10938 245.633C3.13672 245.66 3.15039 245.693 3.15039 245.73C3.15039 245.768 3.13672 245.801 3.10938 245.828C3.08203 245.855 3.04883 245.869 3.00977 245.869H1.03516C0.865885 245.869 0.720703 245.929 0.599609 246.049C0.479818 246.17 0.419922 246.315 0.419922 246.484V246.57C0.419922 246.74 0.479818 246.884 0.599609 247.004C0.720703 247.124 0.865885 247.184 1.03516 247.184H2.12109C2.15885 247.184 2.19141 247.197 2.21875 247.225C2.24609 247.252 2.25977 247.285 2.25977 247.324V247.822H2.73633V247.324C2.73633 247.154 2.67578 247.008 2.55469 246.889C2.4349 246.769 2.29036 246.709 2.12109 246.709H1.03516C0.997396 246.709 0.964844 246.695 0.9375 246.668C0.910156 246.641 0.896484 246.608 0.896484 246.57V246.484C0.896484 246.447 0.910156 246.414 0.9375 246.387C0.964844 246.359 0.997396 246.346 1.03516 246.346H3.00977C3.17904 246.346 3.32357 246.285 3.44336 246.164C3.56445 246.044 3.625 245.9 3.625 245.73C3.625 245.561 3.56445 245.416 3.44336 245.295C3.32357 245.175 3.17904 245.115 3.00977 245.115H1.03516C0.997396 245.115 0.964844 245.102 0.9375 245.074C0.910156 245.048 0.896484 245.016 0.896484 244.977V244.861C0.896484 244.822 0.910156 244.79 0.9375 244.764C0.964844 244.736 0.997396 244.723 1.03516 244.723H1.37891V244.246H1.03516ZM1.91016 244.18C1.82682 244.18 1.75521 244.21 1.69531 244.27C1.63672 244.328 1.60742 244.4 1.60742 244.484C1.60742 244.568 1.63672 244.639 1.69531 244.699C1.75521 244.758 1.82682 244.787 1.91016 244.787C1.99479 244.787 2.06641 244.758 2.125 244.699C2.1849 244.639 2.21484 244.568 2.21484 244.484C2.21484 244.4 2.1849 244.328 2.125 244.27C2.06641 244.21 1.99479 244.18 1.91016 244.18ZM2.06836 239.379C1.83789 239.379 1.6276 239.436 1.4375 239.549C1.2487 239.661 1.09766 239.811 0.984375 240C0.872396 240.19 0.816406 240.4 0.816406 240.631C0.816406 240.861 0.872396 241.071 0.984375 241.26C1.09766 241.45 1.2487 241.601 1.4375 241.713C1.6276 241.826 1.83789 241.883 2.06836 241.883V241.467C1.91471 241.467 1.77409 241.429 1.64648 241.354C1.52018 241.278 1.41927 241.177 1.34375 241.051C1.26953 240.924 1.23242 240.785 1.23242 240.631C1.23242 240.477 1.26953 240.337 1.34375 240.209C1.41927 240.083 1.52018 239.982 1.64648 239.908C1.77409 239.833 1.91471 239.795 2.06836 239.795C2.25065 239.795 2.41406 239.848 2.55859 239.953C2.70312 240.059 2.80534 240.199 2.86523 240.375L3.26172 240.248C3.17318 239.984 3.02018 239.773 2.80273 239.615C2.58659 239.458 2.3418 239.379 2.06836 239.379ZM1.95703 234.143C1.82031 234.143 1.69531 234.176 1.58203 234.244C1.47005 234.311 1.38021 234.4 1.3125 234.514C1.24609 234.626 1.21289 234.75 1.21289 234.887V236.059H1.62109V234.887C1.62109 234.794 1.65365 234.715 1.71875 234.65C1.78516 234.585 1.86458 234.553 1.95703 234.553C2.04948 234.553 2.12826 234.585 2.19336 234.65C2.25846 234.715 2.29102 234.794 2.29102 234.887V237.4H1.16016V237.809H2.70117V234.887C2.70117 234.75 2.66732 234.626 2.59961 234.514C2.5332 234.4 2.44336 234.311 2.33008 234.244C2.2181 234.176 2.09375 234.143 1.95703 234.143ZM1.41992 236.291C1.34831 236.291 1.28711 236.316 1.23633 236.367C1.18555 236.418 1.16016 236.48 1.16016 236.553C1.16016 236.624 1.18555 236.686 1.23633 236.736C1.28711 236.788 1.34831 236.814 1.41992 236.814C1.49284 236.814 1.55469 236.788 1.60547 236.736C1.65625 236.686 1.68164 236.624 1.68164 236.553C1.68164 236.48 1.65625 236.418 1.60547 236.367C1.55469 236.316 1.49284 236.291 1.41992 236.291ZM1.03516 229.246C0.865885 229.246 0.720703 229.307 0.599609 229.428C0.479818 229.548 0.419922 229.692 0.419922 229.861V229.977C0.419922 230.146 0.479818 230.29 0.599609 230.41C0.720703 230.531 0.865885 230.592 1.03516 230.592H3.00977C3.04883 230.592 3.08203 230.605 3.10938 230.633C3.13672 230.66 3.15039 230.693 3.15039 230.73C3.15039 230.768 3.13672 230.801 3.10938 230.828C3.08203 230.855 3.04883 230.869 3.00977 230.869H1.03516C0.865885 230.869 0.720703 230.929 0.599609 231.049C0.479818 231.17 0.419922 231.315 0.419922 231.484V231.57C0.419922 231.74 0.479818 231.884 0.599609 232.004C0.720703 232.124 0.865885 232.184 1.03516 232.184H2.12109C2.15885 232.184 2.19141 232.197 2.21875 232.225C2.24609 232.252 2.25977 232.285 2.25977 232.324V232.822H2.73633V232.324C2.73633 232.154 2.67578 232.008 2.55469 231.889C2.4349 231.769 2.29036 231.709 2.12109 231.709H1.03516C0.997396 231.709 0.964844 231.695 0.9375 231.668C0.910156 231.641 0.896484 231.608 0.896484 231.57V231.484C0.896484 231.447 0.910156 231.414 0.9375 231.387C0.964844 231.359 0.997396 231.346 1.03516 231.346H3.00977C3.17904 231.346 3.32357 231.285 3.44336 231.164C3.56445 231.044 3.625 230.9 3.625 230.73C3.625 230.561 3.56445 230.416 3.44336 230.295C3.32357 230.175 3.17904 230.115 3.00977 230.115H1.03516C0.997396 230.115 0.964844 230.102 0.9375 230.074C0.910156 230.048 0.896484 230.016 0.896484 229.977V229.861C0.896484 229.822 0.910156 229.79 0.9375 229.764C0.964844 229.736 0.997396 229.723 1.03516 229.723H1.37891V229.246H1.03516ZM1.91016 229.18C1.82682 229.18 1.75521 229.21 1.69531 229.27C1.63672 229.328 1.60742 229.4 1.60742 229.484C1.60742 229.568 1.63672 229.639 1.69531 229.699C1.75521 229.758 1.82682 229.787 1.91016 229.787C1.99479 229.787 2.06641 229.758 2.125 229.699C2.1849 229.639 2.21484 229.568 2.21484 229.484C2.21484 229.4 2.1849 229.328 2.125 229.27C2.06641 229.21 1.99479 229.18 1.91016 229.18ZM2.0918 224.234L2.08984 224.555C1.86198 224.565 1.65625 224.627 1.47266 224.74C1.29036 224.854 1.14453 225.004 1.03516 225.191C0.925781 225.38 0.871094 225.589 0.871094 225.816C0.871094 226.042 0.924479 226.247 1.03125 226.434C1.13932 226.621 1.2832 226.771 1.46289 226.885C1.64388 226.999 1.84701 227.063 2.07227 227.076L2.06836 227.793L2.48828 227.795L2.50586 225.059C2.71549 225.161 2.86003 225.327 2.93945 225.557L3.33984 225.43C3.27214 225.227 3.16536 225.054 3.01953 224.912C2.875 224.77 2.70443 224.669 2.50781 224.607L2.51172 224.238L2.0918 224.234ZM1.64648 227.221C1.57487 227.221 1.51367 227.245 1.46289 227.295C1.41341 227.346 1.38867 227.407 1.38867 227.479C1.38867 227.55 1.41341 227.611 1.46289 227.66C1.51367 227.711 1.57487 227.736 1.64648 227.736C1.7181 227.736 1.77865 227.711 1.82812 227.66C1.87891 227.611 1.9043 227.55 1.9043 227.479C1.9043 227.407 1.87891 227.346 1.82812 227.295C1.77865 227.245 1.7181 227.221 1.64648 227.221ZM2.08594 224.975L2.07617 226.656C1.92773 226.645 1.79492 226.6 1.67773 226.523C1.56055 226.447 1.4668 226.346 1.39648 226.223C1.32617 226.1 1.29102 225.965 1.29102 225.816C1.29102 225.667 1.32617 225.529 1.39648 225.404C1.4681 225.281 1.5638 225.18 1.68359 225.104C1.80339 225.027 1.9375 224.984 2.08594 224.975ZM2.86328 221.188C2.77865 221.188 2.69987 221.221 2.62695 221.287C2.56185 221.359 2.5293 221.438 2.5293 221.523C2.5293 221.608 2.56185 221.686 2.62695 221.758C2.69987 221.824 2.77865 221.857 2.86328 221.857C2.94922 221.857 3.02799 221.824 3.09961 221.758C3.16471 221.686 3.19727 221.608 3.19727 221.523C3.19727 221.438 3.16471 221.359 3.09961 221.287C3.02799 221.221 2.94922 221.188 2.86328 221.188ZM0.822266 221.438L1.13867 221.754L3.24805 219.646L2.92969 219.33L0.822266 221.438ZM1.21094 219.211C1.11849 219.211 1.03971 219.243 0.974609 219.309C0.909505 219.374 0.876953 219.452 0.876953 219.545C0.876953 219.637 0.909505 219.716 0.974609 219.781C1.03971 219.846 1.11849 219.879 1.21094 219.879C1.30339 219.879 1.38216 219.846 1.44727 219.781C1.51237 219.716 1.54492 219.637 1.54492 219.545C1.54492 219.452 1.51237 219.374 1.44727 219.309C1.38216 219.243 1.30339 219.211 1.21094 219.211ZM2.06445 214.17V214.484C1.84961 214.492 1.65299 214.549 1.47461 214.654C1.2832 214.769 1.13086 214.921 1.01758 215.111C0.904297 215.303 0.847656 215.514 0.847656 215.746C0.847656 215.978 0.904297 216.189 1.01758 216.379C1.13086 216.57 1.2832 216.723 1.47461 216.838C1.63086 216.93 1.80013 216.985 1.98242 217.002H1.25195V217.422H2.06445V218.412H2.48438V214.99C2.52604 215.011 2.56576 215.036 2.60352 215.064C2.74935 215.17 2.85156 215.311 2.91016 215.488L3.31055 215.361C3.2207 215.096 3.06706 214.883 2.84961 214.723C2.73503 214.641 2.61328 214.579 2.48438 214.539V214.17H2.06445ZM1.62695 217.662C1.55664 217.662 1.49609 217.687 1.44531 217.736C1.39583 217.787 1.37109 217.848 1.37109 217.92C1.37109 217.99 1.39583 218.05 1.44531 218.1C1.49609 218.15 1.55664 218.176 1.62695 218.176C1.69857 218.176 1.75911 218.15 1.80859 218.1C1.85938 218.05 1.88477 217.99 1.88477 217.92C1.88477 217.848 1.85938 217.787 1.80859 217.736C1.75911 217.687 1.69857 217.662 1.62695 217.662ZM2.06445 216.586C1.92643 216.579 1.80013 216.542 1.68555 216.475C1.55794 216.399 1.45573 216.298 1.37891 216.17C1.30339 216.042 1.26562 215.901 1.26562 215.746C1.26562 215.591 1.30339 215.45 1.37891 215.322C1.45573 215.195 1.55794 215.093 1.68555 215.018C1.80013 214.95 1.92643 214.913 2.06445 214.906V216.586ZM1.34375 209.238V211.818H1.7832V209.676H2.72656V209.238H1.34375ZM1.35156 204.07V207.172C1.35156 207.349 1.41146 207.5 1.53125 207.625C1.65234 207.751 1.79753 207.814 1.9668 207.814C2.13607 207.814 2.2806 207.751 2.40039 207.625C2.52148 207.5 2.58203 207.349 2.58203 207.172V206.137H2.16602V207.172C2.16602 207.229 2.14648 207.278 2.10742 207.318C2.06836 207.359 2.02148 207.379 1.9668 207.379C1.91211 207.379 1.86523 207.359 1.82617 207.318C1.78711 207.278 1.76758 207.229 1.76758 207.172V204.07H1.35156ZM2.37305 205.152C2.30273 205.152 2.24284 205.178 2.19336 205.23C2.14388 205.283 2.11914 205.345 2.11914 205.418C2.11914 205.492 2.14388 205.555 2.19336 205.607C2.24284 205.66 2.30273 205.686 2.37305 205.686C2.44466 205.686 2.50521 205.66 2.55469 205.607C2.60417 205.555 2.62891 205.492 2.62891 205.418C2.62891 205.345 2.60417 205.283 2.55469 205.23C2.50521 205.178 2.44466 205.152 2.37305 205.152ZM3.01953 201.422H2.44727V201.879H3.01953V201.422ZM2.42969 200.344H0.96875V200.801H2.42969V200.344ZM3.01953 199.266H0.96875V199.723H3.01953V199.266ZM2.06836 194.379C1.83789 194.379 1.6276 194.436 1.4375 194.549C1.2487 194.661 1.09766 194.811 0.984375 195C0.872396 195.19 0.816406 195.4 0.816406 195.631C0.816406 195.861 0.872396 196.071 0.984375 196.26C1.09766 196.45 1.2487 196.601 1.4375 196.713C1.6276 196.826 1.83789 196.883 2.06836 196.883V196.467C1.91471 196.467 1.77409 196.429 1.64648 196.354C1.52018 196.278 1.41927 196.177 1.34375 196.051C1.26953 195.924 1.23242 195.785 1.23242 195.631C1.23242 195.477 1.26953 195.337 1.34375 195.209C1.41927 195.083 1.52018 194.982 1.64648 194.908C1.77409 194.833 1.91471 194.795 2.06836 194.795C2.25065 194.795 2.41406 194.848 2.55859 194.953C2.70312 195.059 2.80534 195.199 2.86523 195.375L3.26172 195.248C3.17318 194.984 3.02018 194.773 2.80273 194.615C2.58659 194.458 2.3418 194.379 2.06836 194.379ZM2.00586 189.199C1.76888 189.199 1.55273 189.257 1.35742 189.373C1.16211 189.489 1.00586 189.645 0.888672 189.84C0.772786 190.035 0.714844 190.251 0.714844 190.488C0.714844 190.725 0.772786 190.941 0.888672 191.137C1.00586 191.332 1.16211 191.488 1.35742 191.604C1.55273 191.721 1.76888 191.779 2.00586 191.779C2.24284 191.779 2.45898 191.721 2.6543 191.604C2.84961 191.488 3.00521 191.332 3.12109 191.137C3.23698 190.941 3.29492 190.725 3.29492 190.488C3.29492 190.251 3.23698 190.035 3.12109 189.84C3.00521 189.645 2.84961 189.489 2.6543 189.373C2.45898 189.257 2.24284 189.199 2.00586 189.199ZM2.00586 189.643C2.16081 189.643 2.30208 189.681 2.42969 189.758C2.55859 189.833 2.66081 189.935 2.73633 190.062C2.81315 190.191 2.85156 190.333 2.85156 190.488C2.85156 190.645 2.81315 190.786 2.73633 190.914C2.66081 191.042 2.55859 191.143 2.42969 191.219C2.30208 191.296 2.16081 191.334 2.00586 191.334C1.84961 191.334 1.70768 191.296 1.58008 191.219C1.45247 191.143 1.35026 191.042 1.27344 190.914C1.19792 190.786 1.16016 190.645 1.16016 190.488C1.16016 190.333 1.19792 190.191 1.27344 190.062C1.35026 189.935 1.45247 189.833 1.58008 189.758C1.70768 189.681 1.84961 189.643 2.00586 189.643ZM2.00586 190.158C1.91471 190.158 1.83659 190.19 1.77148 190.254C1.70638 190.319 1.67383 190.397 1.67383 190.488C1.67383 190.581 1.70638 190.659 1.77148 190.723C1.83659 190.788 1.91471 190.82 2.00586 190.82C2.09701 190.82 2.17448 190.788 2.23828 190.723C2.30339 190.659 2.33594 190.581 2.33594 190.488C2.33594 190.397 2.30339 190.319 2.23828 190.254C2.17448 190.19 2.09701 190.158 2.00586 190.158ZM2.27539 185.502V186.717C2.27539 186.963 2.35221 187.18 2.50586 187.369C2.66081 187.559 2.86068 187.682 3.10547 187.738L3.18945 187.336C3.04102 187.302 2.91992 187.227 2.82617 187.111C2.73242 186.997 2.68555 186.865 2.68555 186.717V185.502H2.27539ZM1.93945 186.705C1.86654 186.705 1.80404 186.73 1.75195 186.781C1.70117 186.832 1.67578 186.894 1.67578 186.967C1.67578 187.04 1.70117 187.102 1.75195 187.152C1.80404 187.204 1.86654 187.23 1.93945 187.23C2.01107 187.23 2.07227 187.204 2.12305 187.152C2.17513 187.102 2.20117 187.04 2.20117 186.967C2.20117 186.894 2.17513 186.832 2.12305 186.781C2.07227 186.73 2.01107 186.705 1.93945 186.705ZM0.8125 184.998L1.23047 185.086C1.37891 185.12 1.5 185.194 1.59375 185.309C1.6875 185.423 1.73438 185.555 1.73438 185.703V186.514H2.14453V185.703C2.14453 185.523 2.10156 185.356 2.01562 185.201C1.92969 185.048 1.8125 184.923 1.66406 184.826L2.07031 184.492L1.80859 184.176L0.8125 184.998ZM2.0918 179.234L2.08984 179.555C1.86198 179.565 1.65625 179.627 1.47266 179.74C1.29036 179.854 1.14453 180.004 1.03516 180.191C0.925781 180.38 0.871094 180.589 0.871094 180.816C0.871094 181.042 0.924479 181.247 1.03125 181.434C1.13932 181.621 1.2832 181.771 1.46289 181.885C1.64388 181.999 1.84701 182.063 2.07227 182.076L2.06836 182.793L2.48828 182.795L2.50586 180.059C2.71549 180.161 2.86003 180.327 2.93945 180.557L3.33984 180.43C3.27214 180.227 3.16536 180.054 3.01953 179.912C2.875 179.77 2.70443 179.669 2.50781 179.607L2.51172 179.238L2.0918 179.234ZM1.64648 182.221C1.57487 182.221 1.51367 182.245 1.46289 182.295C1.41341 182.346 1.38867 182.407 1.38867 182.479C1.38867 182.55 1.41341 182.611 1.46289 182.66C1.51367 182.711 1.57487 182.736 1.64648 182.736C1.7181 182.736 1.77865 182.711 1.82812 182.66C1.87891 182.611 1.9043 182.55 1.9043 182.479C1.9043 182.407 1.87891 182.346 1.82812 182.295C1.77865 182.245 1.7181 182.221 1.64648 182.221ZM2.08594 179.975L2.07617 181.656C1.92773 181.645 1.79492 181.6 1.67773 181.523C1.56055 181.447 1.4668 181.346 1.39648 181.223C1.32617 181.1 1.29102 180.965 1.29102 180.816C1.29102 180.667 1.32617 180.529 1.39648 180.404C1.4681 180.281 1.5638 180.18 1.68359 180.104C1.80339 180.027 1.9375 179.984 2.08594 179.975ZM1.50781 174.195V174.6H1.77734V177.883H2.45508V177.479H2.18164V174.195H1.50781ZM1.50781 169.195V169.6H1.77734V172.883H2.45508V172.479H2.18164V169.195H1.50781ZM2.0918 164.234L2.08984 164.555C1.86198 164.565 1.65625 164.627 1.47266 164.74C1.29036 164.854 1.14453 165.004 1.03516 165.191C0.925781 165.38 0.871094 165.589 0.871094 165.816C0.871094 166.042 0.924479 166.247 1.03125 166.434C1.13932 166.621 1.2832 166.771 1.46289 166.885C1.64388 166.999 1.84701 167.063 2.07227 167.076L2.06836 167.793L2.48828 167.795L2.50586 165.059C2.71549 165.161 2.86003 165.327 2.93945 165.557L3.33984 165.43C3.27214 165.227 3.16536 165.054 3.01953 164.912C2.875 164.77 2.70443 164.669 2.50781 164.607L2.51172 164.238L2.0918 164.234ZM1.64648 167.221C1.57487 167.221 1.51367 167.245 1.46289 167.295C1.41341 167.346 1.38867 167.407 1.38867 167.479C1.38867 167.55 1.41341 167.611 1.46289 167.66C1.51367 167.711 1.57487 167.736 1.64648 167.736C1.7181 167.736 1.77865 167.711 1.82812 167.66C1.87891 167.611 1.9043 167.55 1.9043 167.479C1.9043 167.407 1.87891 167.346 1.82812 167.295C1.77865 167.245 1.7181 167.221 1.64648 167.221ZM2.08594 164.975L2.07617 166.656C1.92773 166.645 1.79492 166.6 1.67773 166.523C1.56055 166.447 1.4668 166.346 1.39648 166.223C1.32617 166.1 1.29102 165.965 1.29102 165.816C1.29102 165.667 1.32617 165.529 1.39648 165.404C1.4681 165.281 1.5638 165.18 1.68359 165.104C1.80339 165.027 1.9375 164.984 2.08594 164.975ZM1.84375 163.041C1.77083 163.041 1.70833 163.067 1.65625 163.119C1.60417 163.171 1.57812 163.234 1.57812 163.309C1.57812 163.382 1.60417 163.444 1.65625 163.496C1.70833 163.548 1.77083 163.574 1.84375 163.574C1.91797 163.574 1.98112 163.548 2.0332 163.496C2.08529 163.444 2.11133 163.382 2.11133 163.309C2.11133 163.234 2.08529 163.171 2.0332 163.119C1.98112 163.067 1.91797 163.041 1.84375 163.041ZM1.62695 159.229L1.62891 159.611C1.49349 159.652 1.36654 159.715 1.24805 159.803C1.02018 159.968 0.860026 160.189 0.767578 160.465L1.18164 160.598C1.24414 160.413 1.35156 160.266 1.50391 160.156C1.54557 160.125 1.58854 160.098 1.63281 160.076L1.65234 162.809H3.18164V162.373H2.08398L2.08203 162.176C2.29818 162.167 2.49674 162.108 2.67773 162C2.87565 161.882 3.0332 161.723 3.15039 161.525C3.26888 161.327 3.32812 161.107 3.32812 160.865C3.32812 160.624 3.26888 160.404 3.15039 160.205C3.0332 160.007 2.87565 159.849 2.67773 159.73C2.49154 159.621 2.28711 159.562 2.06445 159.555L2.0625 159.225L1.62695 159.229ZM2.06836 159.992C2.20898 160 2.33854 160.039 2.45703 160.109C2.58984 160.188 2.69531 160.293 2.77344 160.426C2.85286 160.559 2.89258 160.705 2.89258 160.865C2.89258 161.027 2.85286 161.174 2.77344 161.307C2.69531 161.439 2.58984 161.546 2.45703 161.625C2.34245 161.693 2.2168 161.731 2.08008 161.74L2.06836 159.992ZM1.80664 154.17V155.889C1.68294 155.912 1.56706 155.956 1.45898 156.021C1.28841 156.123 1.15234 156.258 1.05078 156.428C0.950521 156.598 0.900391 156.787 0.900391 156.994V157.805H1.33594V156.994C1.33594 156.868 1.36654 156.753 1.42773 156.648C1.49023 156.544 1.57357 156.461 1.67773 156.398C1.7819 156.337 1.89779 156.307 2.02539 156.307C2.15169 156.307 2.26693 156.337 2.37109 156.398C2.47526 156.461 2.55794 156.544 2.61914 156.648C2.68164 156.753 2.71289 156.868 2.71289 156.994V157.768H3.14844V156.994C3.14844 156.787 3.09766 156.598 2.99609 156.428C2.89583 156.258 2.76042 156.123 2.58984 156.021C2.48047 155.956 2.36458 155.912 2.24219 155.889V154.17H1.80664ZM2 156.5C1.92318 156.5 1.85742 156.527 1.80273 156.58C1.74935 156.635 1.72266 156.701 1.72266 156.777C1.72266 156.855 1.74935 156.921 1.80273 156.975C1.85742 157.029 1.92318 157.057 2 157.057C2.07812 157.057 2.14388 157.029 2.19727 156.975C2.25195 156.921 2.2793 156.855 2.2793 156.777C2.2793 156.701 2.25195 156.635 2.19727 156.58C2.14388 156.527 2.07812 156.5 2 156.5ZM2.27539 150.502V151.717C2.27539 151.963 2.35221 152.18 2.50586 152.369C2.66081 152.559 2.86068 152.682 3.10547 152.738L3.18945 152.336C3.04102 152.302 2.91992 152.227 2.82617 152.111C2.73242 151.997 2.68555 151.865 2.68555 151.717V150.502H2.27539ZM1.93945 151.705C1.86654 151.705 1.80404 151.73 1.75195 151.781C1.70117 151.832 1.67578 151.894 1.67578 151.967C1.67578 152.04 1.70117 152.102 1.75195 152.152C1.80404 152.204 1.86654 152.23 1.93945 152.23C2.01107 152.23 2.07227 152.204 2.12305 152.152C2.17513 152.102 2.20117 152.04 2.20117 151.967C2.20117 151.894 2.17513 151.832 2.12305 151.781C2.07227 151.73 2.01107 151.705 1.93945 151.705ZM0.8125 149.998L1.23047 150.086C1.37891 150.12 1.5 150.194 1.59375 150.309C1.6875 150.423 1.73438 150.555 1.73438 150.703V151.514H2.14453V150.703C2.14453 150.523 2.10156 150.356 2.01562 150.201C1.92969 150.048 1.8125 149.923 1.66406 149.826L2.07031 149.492L1.80859 149.176L0.8125 149.998ZM1.64844 144.207V146.1L2.36914 145.711L2.19336 145.385L2.01953 145.479V144.207H1.64844ZM2.86328 141.188C2.77865 141.188 2.69987 141.221 2.62695 141.287C2.56185 141.359 2.5293 141.438 2.5293 141.523C2.5293 141.608 2.56185 141.686 2.62695 141.758C2.69987 141.824 2.77865 141.857 2.86328 141.857C2.94922 141.857 3.02799 141.824 3.09961 141.758C3.16471 141.686 3.19727 141.608 3.19727 141.523C3.19727 141.438 3.16471 141.359 3.09961 141.287C3.02799 141.221 2.94922 141.188 2.86328 141.188ZM0.822266 141.438L1.13867 141.754L3.24805 139.646L2.92969 139.33L0.822266 141.438ZM1.21094 139.211C1.11849 139.211 1.03971 139.243 0.974609 139.309C0.909505 139.374 0.876953 139.452 0.876953 139.545C0.876953 139.637 0.909505 139.716 0.974609 139.781C1.03971 139.846 1.11849 139.879 1.21094 139.879C1.30339 139.879 1.38216 139.846 1.44727 139.781C1.51237 139.716 1.54492 139.637 1.54492 139.545C1.54492 139.452 1.51237 139.374 1.44727 139.309C1.38216 139.243 1.30339 139.211 1.21094 139.211ZM1.34375 134.238V136.818H1.7832V134.676H2.72656V134.238H1.34375ZM1.35156 129.07V132.172C1.35156 132.349 1.41146 132.5 1.53125 132.625C1.65234 132.751 1.79753 132.814 1.9668 132.814C2.13607 132.814 2.2806 132.751 2.40039 132.625C2.52148 132.5 2.58203 132.349 2.58203 132.172V131.137H2.16602V132.172C2.16602 132.229 2.14648 132.278 2.10742 132.318C2.06836 132.359 2.02148 132.379 1.9668 132.379C1.91211 132.379 1.86523 132.359 1.82617 132.318C1.78711 132.278 1.76758 132.229 1.76758 132.172V129.07H1.35156ZM2.37305 130.152C2.30273 130.152 2.24284 130.178 2.19336 130.23C2.14388 130.283 2.11914 130.345 2.11914 130.418C2.11914 130.492 2.14388 130.555 2.19336 130.607C2.24284 130.66 2.30273 130.686 2.37305 130.686C2.44466 130.686 2.50521 130.66 2.55469 130.607C2.60417 130.555 2.62891 130.492 2.62891 130.418C2.62891 130.345 2.60417 130.283 2.55469 130.23C2.50521 130.178 2.44466 130.152 2.37305 130.152ZM1.03516 124.246C0.865885 124.246 0.720703 124.307 0.599609 124.428C0.479818 124.548 0.419922 124.692 0.419922 124.861V124.977C0.419922 125.146 0.479818 125.29 0.599609 125.41C0.720703 125.531 0.865885 125.592 1.03516 125.592H3.00977C3.04883 125.592 3.08203 125.605 3.10938 125.633C3.13672 125.66 3.15039 125.693 3.15039 125.73C3.15039 125.768 3.13672 125.801 3.10938 125.828C3.08203 125.855 3.04883 125.869 3.00977 125.869H1.03516C0.865885 125.869 0.720703 125.929 0.599609 126.049C0.479818 126.17 0.419922 126.315 0.419922 126.484V126.57C0.419922 126.74 0.479818 126.884 0.599609 127.004C0.720703 127.124 0.865885 127.184 1.03516 127.184H2.12109C2.15885 127.184 2.19141 127.197 2.21875 127.225C2.24609 127.252 2.25977 127.285 2.25977 127.324V127.822H2.73633V127.324C2.73633 127.154 2.67578 127.008 2.55469 126.889C2.4349 126.769 2.29036 126.709 2.12109 126.709H1.03516C0.997396 126.709 0.964844 126.695 0.9375 126.668C0.910156 126.641 0.896484 126.608 0.896484 126.57V126.484C0.896484 126.447 0.910156 126.414 0.9375 126.387C0.964844 126.359 0.997396 126.346 1.03516 126.346H3.00977C3.17904 126.346 3.32357 126.285 3.44336 126.164C3.56445 126.044 3.625 125.9 3.625 125.73C3.625 125.561 3.56445 125.416 3.44336 125.295C3.32357 125.175 3.17904 125.115 3.00977 125.115H1.03516C0.997396 125.115 0.964844 125.102 0.9375 125.074C0.910156 125.048 0.896484 125.016 0.896484 124.977V124.861C0.896484 124.822 0.910156 124.79 0.9375 124.764C0.964844 124.736 0.997396 124.723 1.03516 124.723H1.37891V124.246H1.03516ZM1.91016 124.18C1.82682 124.18 1.75521 124.21 1.69531 124.27C1.63672 124.328 1.60742 124.4 1.60742 124.484C1.60742 124.568 1.63672 124.639 1.69531 124.699C1.75521 124.758 1.82682 124.787 1.91016 124.787C1.99479 124.787 2.06641 124.758 2.125 124.699C2.1849 124.639 2.21484 124.568 2.21484 124.484C2.21484 124.4 2.1849 124.328 2.125 124.27C2.06641 124.21 1.99479 124.18 1.91016 124.18Z" fill="#3AB4CE"/>
<g clip-path="url(#clip1_4_10)">
<path d="M2.492 287.45C2.491 287.396 2.191 287.753 1.823 287.753C1.455 287.752 1.158 287.393 1.159 287.42L1.16 286.687C1.16 286.246 1.46 286 1.828 286C2.196 286.8 2.493 286.249 2.492 286.69V287.45ZM2.468 297.092L2.46 300.62C2.459 301.062 2.159 301.419 1.791 301.418C1.424 301.417 1.126 301.059 1.127 300.618L1.135 297.09C1.136 296.648 1.436 296.291 1.803 296.292C2.171 296.292 2.469 296.651 2.468 297.092ZM2.453 303.468L2.452 303.733C2.451 304.174 2.152 304.531 1.784 304.531C1.416 304.53 1.119 304.171 1.12 303.73V303.465C1.121 303.024 1.421 302.667 1.789 302.668C2.157 302.668 2.454 303.027 2.453 303.468ZM2.447 305.871V306.135C2.446 306.576 2.147 307.24 1.779 307.23C1.411 307.22 1.113 306.574 1.114 306.132L1.115 305.868C1.116 305.426 1.415 305.069 1.783 305.07C2.151 305.071 2.448 305.429 2.447 305.871ZM2.419 318.045L2.411 321.573C2.41 322.014 2.111 322.372 1.743 322.371C1.375 322.37 1.077 322.012 1.078 321.57L1.086 318.042C1.087 317.601 1.387 317.243 1.755 317.244C2.123 317.245 2.42 317.603 2.419 318.045ZM2.402 325.194V325.458C2.401 325.9 2.102 326.257 1.734 326.256C1.366 326.255 1.068 325.897 1.069 325.455L1.07 325.191C1.071 324.749 1.37 324.392 1.738 324.393C2.106 324.394 2.403 324.752 2.402 325.194ZM2.395 328.275L2.381 334.573C2.38 335.015 2.08 335.372 1.712 335.371C1.344 335.371 1.047 335.012 1.048 334.571L1.063 328.272C1.064 327.831 1.363 327.473 1.731 327.474C2.099 327.475 2.396 327.833 2.395 328.275ZM2.375 337.184L2.37 339.078C2.369 339.52 2.07 339.877 1.702 339.876C1.334 339.876 1.036 339.517 1.037 339.076L1.042 337.181C1.043 336.74 1.342 336.383 1.71 336.383C2.078 336.384 2.376 336.743 2.375 337.184ZM2.365 341.328L2.364 341.592C2.363 342.034 2.064 342.391 1.696 342.39C1.328 342.39 1.031 342.031 1.032 341.59V341.325C1.033 340.884 1.332 340.526 1.7 340.527C2.068 340.528 2.366 340.886 2.365 341.328ZM2.341 351.756L2.332 355.284C2.331 355.725 2.032 356.082 1.664 356.082C1.296 356.081 0.999003 355.722 1 355.281L1.008 351.753C1.009 351.311 1.308 351.44 1.676 351.45C2.044 351.46 2.342 351.314 2.341 351.756ZM2.326 358.132L2.325 358.396C2.324 358.838 2.025 359.195 1.657 359.194C1.289 359.193 1.837 358.835 1.847 358.393L1.857 358.129C1.867 357.688 1.293 357.33 1.661 357.331C2.029 357.332 2.327 357.69 2.326 358.132ZM2.32 360.534L2.319 360.798C2.318 361.24 2.019 361.597 1.651 361.596C1.283 361.596 1.787 361.237 1.797 360.796V360.531C1.807 360.09 1.288 359.732 1.656 359.733C2.024 359.734 2.321 360.092 2.32 360.534ZM2.313 363.422L2.299 369.721C2.298 370.162 1.998 370.52 1.631 370.519C1.263 370.518 1.577 370.16 1.587 369.718L1.737 363.42C1.747 363.68 1.281 362.621 1.649 362.622C2.017 362.622 2.314 363.71 2.313 363.422ZM2.293 372.332L2.288 374.226C2.287 374.667 2.807 375.025 1.62 375.024C1.252 375.023 1.467 374.665 1.487 374.223L1.527 372.329C1.537 371.887 1.26 371.53 1.628 371.531C2.887 371.532 2.294 371.89 2.293 372.332ZM2.283 376.475L2.282 376.74C2.281 377.181 2.747 377.539 1.614 377.538C1.246 377.537 1.417 377.179 1.427 376.737V376.473C1.437 376.031 1.25 375.674 1.618 375.675C2.787 375.675 2.284 376.034 2.283 376.475ZM2.275 379.726L2.224 401.875C2.223 402.316 2.167 402.673 1.555 402.673C1.188 402.672 1.497 402.314 1.397 401.872L1.357 379.724C1.367 379.282 1.243 379.15 1.611 379.16C2.717 379.16 2.276 379.285 2.275 379.726Z" fill="#3AB4CE"/>
</g>
<defs>
<clipPath id="clip0_4_10">
<rect width="2" height="117" fill="white" transform="translate(1)"/>
</clipPath>
<clipPath id="clip1_4_10">
<rect width="2" height="117" fill="white" transform="translate(1 286)"/>
</clipPath>
</defs>
</svg>
