<?xml version="1.0" standalone="no"?>
<!DOCTYPE svg PUBLIC "-//W3C//DTD SVG 20010904//EN"
 "http://www.w3.org/TR/2001/REC-SVG-20010904/DTD/svg10.dtd">
<svg version="1.0" xmlns="http://www.w3.org/2000/svg"
 width="1280.000000pt" height="1280.000000pt" viewBox="0 0 1280.000000 1280.000000"
 preserveAspectRatio="xMidYMid meet">
<metadata>
Created by potrace 1.11, written by Peter Selinger 2001-2013
</metadata>
<g transform="translate(0.000000,1280.000000) scale(0.100000,-0.100000)"
fill="#000000" stroke="none">
<path d="M5640 12555 c0 -6 -35 -10 -87 -9 -49 1 -93 -2 -98 -7 -6 -4 -17 -4
-25 1 -8 5 -23 2 -39 -8 -14 -10 -22 -12 -18 -4 5 8 2 12 -8 12 -9 0 -14 -4
-11 -8 3 -4 -10 -7 -27 -6 -18 1 -38 -3 -46 -9 -12 -10 -13 -9 -6 3 7 12 6 13
-6 4 -8 -6 -22 -10 -31 -9 -10 2 -18 0 -18 -4 0 -4 -10 -7 -22 -6 -13 1 -32
-5 -42 -14 -11 -9 -16 -10 -12 -3 4 7 1 12 -9 12 -9 0 -13 -5 -9 -11 4 -8 0
-9 -15 -4 -13 4 -21 2 -21 -5 0 -7 -7 -10 -15 -6 -8 3 -15 1 -15 -4 0 -5 -7
-6 -17 -3 -10 4 -14 2 -10 -4 4 -7 0 -10 -10 -8 -10 1 -25 -3 -33 -11 -8 -7
-19 -14 -25 -16 -5 -2 -9 -6 -8 -10 2 -4 -4 -5 -12 -2 -8 4 -15 1 -15 -6 0 -6
-4 -8 -10 -5 -9 6 -14 -7 -11 -27 0 -4 -7 -4 -16 -1 -11 4 -14 3 -9 -5 4 -7 3
-12 -2 -12 -5 0 -14 -11 -20 -25 -6 -14 -8 -25 -3 -25 4 0 8 -17 9 -37 1 -57
5 -73 13 -67 4 2 10 -4 14 -15 7 -23 33 -53 60 -70 l20 -13 -20 6 c-19 6 -18
5 2 -13 12 -10 21 -20 20 -22 -2 -2 8 -15 22 -29 13 -14 20 -18 16 -10 -5 8 4
3 21 -12 16 -15 42 -39 57 -53 16 -14 33 -22 39 -19 7 4 8 2 4 -5 -4 -6 0 -14
11 -18 10 -4 25 -14 33 -22 8 -9 27 -22 43 -30 15 -8 27 -18 27 -23 0 -4 4 -8
9 -8 5 0 37 -18 70 -40 33 -22 65 -40 71 -40 5 0 10 -4 10 -10 0 -5 10 -10 22
-10 12 0 18 -3 15 -6 -4 -4 17 -19 46 -33 28 -14 59 -31 67 -36 8 -5 21 -10
28 -11 8 -2 21 -9 30 -17 16 -13 41 -25 60 -28 4 0 13 -5 20 -11 6 -6 12 -7
12 -2 0 5 4 4 8 -3 4 -6 16 -13 27 -15 11 -1 26 -9 33 -16 8 -7 18 -10 23 -7
5 4 9 3 9 -2 0 -8 62 -33 88 -35 6 -1 12 -6 12 -11 0 -5 7 -6 15 -3 9 3 18 0
21 -7 2 -7 16 -14 31 -15 14 -1 31 -6 38 -12 6 -5 26 -10 43 -12 18 -1 32 -6
32 -11 0 -5 9 -7 20 -4 12 3 24 -1 30 -11 7 -13 9 -13 10 -3 0 11 5 10 20 -4
13 -12 20 -14 20 -5 0 9 3 10 13 1 8 -6 17 -8 20 -4 4 3 7 1 7 -5 0 -7 13 -12
28 -12 16 0 31 -3 35 -6 3 -4 28 -8 55 -10 59 -4 102 -19 102 -36 0 -9 3 -8
10 2 7 12 10 12 10 1 0 -8 6 -11 16 -7 8 3 12 2 9 -3 -3 -5 -1 -12 5 -16 5 -3
10 -1 10 4 0 6 5 11 11 11 5 0 7 -4 4 -10 -3 -5 -1 -10 4 -10 6 0 12 0 14 0 1
0 30 -9 65 -19 37 -12 62 -15 62 -9 0 7 5 6 14 -1 20 -17 56 -22 56 -8 0 7 5
4 11 -6 9 -15 13 -16 27 -5 9 7 13 8 9 2 -4 -8 4 -13 23 -16 17 -3 30 0 30 4
0 5 7 2 16 -6 20 -21 28 -20 20 2 -6 16 -5 16 7 0 8 -9 22 -17 33 -16 10 0 28
-3 38 -7 15 -6 17 -5 11 5 -6 10 -4 11 6 4 8 -5 21 -9 29 -9 8 0 21 -4 29 -9
8 -5 16 -4 21 4 5 8 9 9 11 1 2 -6 35 -12 76 -13 40 -2 73 -6 73 -9 0 -3 13
-6 30 -6 16 0 27 5 23 10 -4 6 -1 7 8 2 21 -14 139 -14 132 -1 -5 8 -3 8 8 1
15 -11 19 -11 164 0 55 5 112 8 128 8 15 0 27 4 27 9 0 6 6 6 14 -1 10 -9 16
-9 21 -1 5 8 11 7 23 -2 9 -7 13 -8 9 -2 -4 7 2 14 13 17 11 3 18 1 15 -3 -3
-5 7 -6 22 -3 16 3 46 7 68 8 22 2 40 4 40 5 0 1 22 4 50 6 27 3 54 9 60 13 5
4 24 7 42 6 29 -1 31 1 18 15 -8 9 -15 20 -15 25 0 5 6 0 14 -11 8 -10 18 -16
22 -12 4 4 13 3 20 -3 9 -7 17 -4 28 13 9 12 16 17 16 10 0 -6 5 -12 11 -12 5
0 8 4 5 9 -4 5 4 7 16 3 14 -3 19 -2 14 6 -5 8 1 11 16 9 15 -1 22 3 20 12 -3
12 0 12 12 2 12 -10 19 -10 36 2 11 7 17 18 12 23 -4 4 2 2 12 -6 15 -11 18
-12 12 -1 -6 10 -4 12 11 7 11 -3 27 1 39 10 10 8 12 12 4 8 -12 -6 -13 -5 -2
7 11 12 14 12 22 -1 9 -14 14 -7 11 13 -1 5 3 6 8 3 5 -4 13 -1 16 5 4 5 13 8
21 5 8 -3 14 -1 14 5 0 6 5 7 10 4 6 -3 10 -1 10 4 0 6 7 11 15 11 9 0 18 7
21 15 4 8 10 13 14 10 5 -3 13 3 19 12 6 10 11 15 11 10 0 -18 89 81 92 103 2
14 7 31 11 38 5 7 3 12 -3 12 -6 0 -8 5 -3 13 12 19 12 37 1 37 -7 0 -6 5 1
14 9 11 9 16 0 22 -8 5 -10 3 -5 -7 4 -8 0 -5 -9 6 -9 11 -21 20 -28 20 -7 0
-11 8 -9 18 2 9 -2 17 -8 17 -5 0 -10 7 -10 16 0 9 -9 18 -20 21 -11 3 -17 9
-14 14 3 5 0 9 -6 9 -6 0 -18 7 -27 15 -8 8 -20 12 -26 8 -7 -3 -9 -3 -5 2 7
7 -1 18 -36 45 -18 13 -19 13 -12 0 4 -8 0 -6 -8 4 -9 11 -16 16 -16 10 0 -5
-5 -1 -11 8 -6 11 -16 15 -26 11 -11 -4 -14 -3 -9 5 4 7 1 12 -8 12 -9 0 -16
4 -16 8 0 11 -61 32 -73 25 -6 -3 -7 -1 -3 5 4 7 -9 19 -34 32 -22 11 -40 18
-40 14 0 -4 -7 -1 -15 6 -8 6 -18 9 -24 6 -5 -3 -11 0 -14 8 -3 7 -18 17 -34
20 -15 4 -44 14 -63 23 -19 8 -45 19 -57 24 -13 5 -34 14 -47 20 -13 6 -29 8
-35 5 -6 -4 -11 -2 -11 4 0 6 -8 10 -17 9 -10 -2 -28 2 -40 9 -13 7 -23 9 -23
5 0 -4 -5 -1 -10 7 -7 11 -10 12 -10 2 0 -10 -4 -10 -15 2 -8 8 -24 13 -35 11
-11 -2 -20 1 -20 7 0 6 -11 8 -25 6 -13 -3 -24 -2 -23 1 2 19 -4 22 -19 10
-14 -12 -16 -12 -8 0 6 11 3 13 -13 9 -14 -4 -20 -2 -15 5 4 6 0 8 -10 4 -10
-3 -17 -2 -17 3 0 5 -7 7 -15 4 -8 -4 -15 -1 -15 6 0 6 -5 8 -10 5 -6 -4 -18
-1 -27 7 -14 11 -16 11 -8 -2 8 -13 7 -13 -8 -1 -14 11 -17 11 -17 0 0 -8 -5
-6 -13 6 -8 10 -19 15 -26 11 -6 -4 -18 -2 -26 4 -8 7 -24 10 -35 7 -11 -3
-18 -2 -15 3 3 4 -4 10 -16 13 -18 5 -18 3 -7 -11 11 -15 10 -15 -8 0 -11 10
-34 18 -52 20 -18 1 -32 5 -32 9 0 5 -25 9 -92 13 -14 0 -24 4 -22 7 2 4 -3 9
-11 13 -8 3 -17 1 -20 -5 -4 -5 -12 -6 -18 -2 -7 4 -15 8 -19 9 -5 1 -9 2 -10
4 -5 3 -42 10 -78 14 -19 2 -43 7 -53 11 -10 4 -34 8 -53 9 -19 0 -34 4 -34 8
0 4 -7 5 -15 2 -9 -4 -15 0 -15 7 0 11 -3 11 -10 -1 -5 -8 -10 -10 -10 -3 0 6
-9 9 -22 5 -16 -4 -19 -2 -13 9 8 12 6 12 -8 0 -14 -11 -17 -11 -17 0 0 11 -2
11 -10 -1 -7 -11 -10 -12 -10 -2 0 8 -10 13 -22 12 -13 -1 -26 -1 -30 0 -5 1
-12 4 -18 5 -5 1 -13 4 -17 5 -19 6 -39 5 -51 -4 -7 -5 -15 -6 -19 -2 -3 3 0
6 8 6 12 0 12 2 0 9 -9 6 -22 6 -33 0 -11 -6 -18 -6 -18 0 0 5 -7 12 -16 15
-10 4 -13 2 -8 -7 5 -8 2 -7 -9 2 -14 11 -17 11 -17 0 0 -12 -2 -12 -9 0 -5 8
-16 11 -25 8 -9 -4 -16 -1 -16 5 0 6 -6 5 -17 -3 -12 -10 -15 -10 -9 -1 5 9 0
12 -21 12 -51 -2 -171 14 -181 24 -3 3 -11 1 -19 -5 -10 -9 -13 -8 -13 1 0 9
-3 10 -13 1 -10 -8 -17 -7 -25 1 -7 7 -12 8 -12 4 0 -5 -8 -2 -17 5 -15 12
-16 12 -9 -5 6 -19 6 -19 -11 -4 -14 13 -23 14 -37 6 -13 -7 -17 -7 -12 0 4 7
-9 10 -39 8 -25 -1 -45 2 -45 7 0 5 -6 5 -13 -1 -8 -7 -18 -7 -27 -2 -21 14
-32 12 -24 -2 6 -10 4 -10 -7 0 -7 6 -19 12 -27 12 -8 0 -10 -5 -6 -12 5 -9 3
-9 -9 1 -9 7 -28 11 -42 9 -13 -3 -26 0 -29 6 -3 6 -5 5 -5 -3 -1 -11 -4 -11
-16 -1 -8 7 -15 9 -15 4 0 -5 -11 -9 -24 -9 -13 0 -22 3 -19 8 2 4 -1 7 -6 7
-6 0 -11 -4 -11 -8 0 -9 -42 -8 -58 2 -7 4 -12 2 -12 -6 0 -9 -3 -9 -10 2 -5
8 -10 11 -10 5z m30 -395 c0 13 1 13 10 0 9 -13 10 -13 10 0 0 13 1 13 10 0 6
-10 10 -11 10 -2 0 6 5 12 11 12 5 0 8 -4 5 -9 -7 -10 13 -9 31 2 6 4 15 3 18
-3 5 -8 11 -7 21 1 11 9 14 8 14 -7 0 -15 2 -16 9 -5 8 12 14 13 36 3 18 -8
24 -9 19 -1 -4 8 0 8 15 0 15 -8 21 -9 21 -1 0 6 5 8 12 3 7 -4 26 -6 42 -4
21 2 26 0 20 -11 -7 -11 -5 -11 9 0 9 8 25 11 38 7 34 -11 69 -13 63 -4 -3 5
0 9 5 9 6 0 11 -4 11 -9 0 -10 26 -9 36 2 4 4 12 7 18 7 6 0 4 -5 -4 -10 -11
-7 -1 -9 33 -5 26 2 45 1 43 -4 -3 -4 1 -8 9 -8 8 0 12 4 9 9 -7 11 3 10 28
-3 15 -8 19 -8 14 0 -11 18 5 13 21 -6 8 -10 12 -13 9 -6 -7 13 71 13 93 -1
11 -7 12 -6 6 5 -8 12 -6 12 8 0 14 -11 17 -11 17 0 0 11 2 11 10 -1 5 -8 10
-10 10 -4 0 6 7 11 15 11 8 0 11 -5 8 -10 -4 -6 0 -8 9 -4 9 3 20 1 26 -5 6
-6 16 -7 24 -2 18 12 39 14 33 4 -3 -4 11 -7 30 -5 19 2 35 0 35 -5 0 -10 20
-8 39 4 10 7 12 6 6 -4 -6 -10 -2 -12 15 -7 13 3 33 -1 49 -11 25 -16 26 -16
11 2 -14 18 -14 19 7 8 12 -7 29 -9 39 -5 12 4 15 3 10 -5 -4 -7 -2 -12 3 -12
6 0 11 6 11 13 0 8 4 7 10 -3 5 -8 10 -11 10 -7 0 4 10 3 21 -4 17 -9 20 -8
13 3 -6 11 -5 11 9 -1 14 -11 17 -11 18 0 0 10 2 11 6 1 2 -6 9 -10 14 -6 5 3
9 0 9 -7 0 -8 4 -8 15 1 11 9 15 9 15 1 0 -7 5 -9 10 -6 6 4 17 1 25 -5 12
-10 15 -10 15 1 0 10 3 10 12 1 16 -16 31 -15 22 1 -4 6 3 3 16 -8 13 -11 20
-14 15 -6 -6 11 -3 11 16 -1 13 -8 36 -13 52 -12 15 0 27 -4 27 -9 0 -6 3 -7
7 -4 3 4 13 1 21 -6 9 -6 13 -7 9 -1 -3 6 0 11 8 11 8 0 12 -4 10 -8 -3 -4 2
-10 11 -13 8 -3 13 -2 10 2 -3 5 1 9 9 9 8 0 11 -5 8 -10 -4 -6 3 -8 15 -5 14
4 20 2 15 -5 -4 -6 2 -8 15 -5 12 4 22 2 22 -4 0 -6 9 -8 20 -5 11 3 20 1 20
-5 0 -5 5 -6 10 -3 6 3 10 1 10 -6 0 -7 11 -10 29 -7 17 2 29 2 28 -1 -1 -3 0
-6 3 -7 3 0 16 -7 30 -14 24 -13 24 -12 10 6 -14 18 -14 18 6 1 11 -9 24 -14
29 -10 4 5 5 3 2 -3 -4 -7 0 -14 8 -18 8 -3 15 0 16 7 0 9 2 9 6 0 2 -7 9 -13
14 -13 6 0 7 6 4 13 -4 6 3 1 15 -13 12 -14 18 -18 14 -10 -5 10 1 8 16 -5 14
-12 20 -14 15 -5 -7 13 -6 13 7 2 8 -7 24 -10 34 -6 14 4 15 3 5 -4 -10 -7
-10 -11 -1 -17 6 -4 14 -4 17 -1 4 3 14 -1 23 -9 10 -9 21 -15 26 -13 5 1 20
-4 33 -11 19 -11 22 -11 15 0 -4 7 6 3 23 -9 17 -12 38 -22 47 -22 9 0 16 -5
16 -11 0 -5 5 -7 11 -3 7 4 19 -3 29 -16 13 -17 19 -20 25 -10 6 9 4 11 -5 5
-8 -5 -11 -4 -6 3 4 6 14 8 22 5 11 -4 12 -8 4 -13 -9 -5 -9 -9 -1 -14 6 -4
16 -4 21 -1 6 3 13 -1 16 -10 6 -13 8 -14 15 -3 6 9 9 9 9 1 0 -7 10 -17 21
-24 17 -9 20 -8 14 3 -6 10 -5 10 5 1 18 -16 4 -32 -25 -29 -15 2 -22 -1 -18
-7 4 -6 0 -8 -10 -4 -9 3 -19 2 -22 -4 -4 -5 -11 -7 -16 -4 -5 4 -9 0 -9 -7 0
-9 -3 -9 -10 2 -5 8 -10 10 -10 3 0 -6 -11 -10 -25 -8 -14 1 -25 -1 -25 -6 0
-4 -8 -8 -17 -8 -34 0 -80 -8 -91 -15 -7 -4 -16 -4 -22 -1 -5 3 -10 2 -10 -4
0 -5 -11 -8 -25 -7 -13 2 -22 -1 -19 -5 3 -5 -4 -9 -15 -9 -11 0 -23 -5 -26
-10 -9 -14 -27 -2 -19 13 3 7 -1 4 -9 -5 -16 -20 -76 -24 -139 -9 -25 6 -36 5
-32 -1 4 -6 -7 -8 -30 -5 -20 3 -34 1 -31 -3 2 -4 -17 -6 -43 -5 -26 1 -55 -2
-64 -7 -12 -6 -18 -5 -18 4 0 9 -3 9 -12 0 -8 -8 -17 -8 -31 -1 -14 8 -18 8
-13 0 4 -6 2 -11 -3 -11 -6 0 -11 6 -11 13 0 8 -4 7 -10 -3 -6 -10 -10 -11
-10 -3 0 15 -21 13 -32 -2 -5 -7 -8 -6 -8 1 0 6 -29 10 -74 11 -40 0 -78 3
-84 7 -6 3 -17 3 -26 0 -9 -4 -16 -1 -16 6 0 10 -3 10 -14 1 -11 -9 -16 -9
-21 -1 -4 7 -15 10 -25 7 -9 -2 -25 0 -35 6 -13 7 -16 6 -11 -2 5 -7 1 -9 -8
-5 -9 3 -16 11 -16 18 0 6 -5 4 -10 -4 -8 -12 -12 -13 -19 -2 -4 8 -12 14 -16
14 -4 0 -12 -6 -16 -14 -6 -10 -9 -8 -9 7 0 11 -4 16 -8 10 -9 -13 -35 -18
-27 -5 4 6 -6 8 -24 6 -19 -2 -28 1 -24 7 4 6 -2 8 -15 5 -13 -4 -22 -1 -23 5
0 7 -3 6 -6 -2 -4 -11 -7 -11 -13 0 -5 7 -16 14 -24 15 -9 1 -14 -2 -11 -7 4
-5 -1 -6 -9 -3 -9 3 -14 9 -11 13 2 4 -2 8 -10 8 -8 0 -11 -5 -8 -11 4 -6 0
-5 -9 1 -8 7 -18 10 -21 6 -4 -3 -17 2 -29 13 -12 10 -18 13 -14 7 9 -15 -10
-18 -19 -3 -4 6 -11 8 -16 5 -5 -4 -9 -1 -9 4 0 6 -5 11 -11 11 -5 0 -7 -5 -3
-12 4 -7 -6 -2 -23 10 -20 14 -34 18 -38 12 -4 -6 -11 -8 -16 -4 -5 3 -7 9 -4
14 3 5 -6 7 -21 4 -16 -3 -23 -1 -19 6 3 5 1 10 -4 10 -6 0 -11 -5 -11 -12 0
-6 -7 -3 -16 8 -8 10 -12 12 -8 4 7 -12 5 -13 -8 -3 -8 7 -18 10 -21 6 -4 -3
-7 -2 -7 4 0 5 -7 10 -15 11 -8 1 -22 3 -30 4 -8 1 -12 5 -9 10 4 7 -10 10
-32 7 -4 0 -10 4 -13 10 -4 6 -19 12 -34 13 -14 1 -24 4 -22 7 7 7 -46 31 -56
25 -5 -3 -9 0 -9 6 0 7 -7 9 -15 6 -9 -3 -18 1 -22 9 -3 9 -13 14 -22 13 -10
-2 -15 3 -13 12 2 8 0 12 -4 8 -4 -4 -14 -2 -22 5 -13 9 -14 9 -8 0 4 -7 3
-13 -2 -13 -6 0 -12 6 -15 14 -3 8 -16 20 -28 26 -16 9 -20 9 -14 0 4 -7 -6
-5 -24 4 -17 9 -31 21 -31 27 0 6 -4 7 -10 4 -5 -3 -18 -1 -27 4 -10 6 -13 11
-8 11 16 1 -38 29 -57 30 -10 0 -18 7 -18 15 0 8 -5 15 -11 15 -5 0 -7 -5 -3
-11 4 -8 0 -7 -15 1 -12 6 -19 15 -17 19 3 4 -1 8 -9 9 -8 1 -22 3 -30 4 -8 1
-12 4 -10 8 5 9 -23 35 -46 43 -20 7 -32 56 -13 53 8 -1 16 -5 20 -9 4 -3 12
-3 18 1 6 3 29 7 50 8 22 0 42 7 44 14 3 9 6 9 13 -1 7 -12 9 -11 9 1z m2641
-283 c-1 -12 -15 -9 -19 4 -3 6 1 10 8 8 6 -3 11 -8 11 -12z m-1671 -552 c5 3
11 1 14 -4 4 -5 -2 -8 -11 -7 -9 2 -18 8 -19 15 -1 6 0 7 3 1 2 -5 9 -8 13 -5z
m1350 -19 c0 -3 -4 -8 -10 -11 -5 -3 -10 -1 -10 4 0 6 5 11 10 11 6 0 10 -2
10 -4z"/>
<path d="M5880 11132 c-24 -2 -48 -9 -52 -15 -5 -8 -8 -9 -8 -1 0 6 -11 12
-25 12 -13 0 -22 -5 -19 -10 4 -6 -3 -5 -14 1 -16 9 -24 8 -36 -5 -9 -8 -16
-11 -16 -5 0 6 -16 8 -42 5 -24 -3 -53 -5 -65 -5 -13 0 -23 -4 -23 -9 0 -5 -7
-7 -15 -4 -8 4 -23 3 -32 -1 -10 -5 -28 -7 -40 -6 -13 1 -23 -3 -23 -10 0 -8
-5 -8 -17 2 -15 12 -16 12 -9 -6 5 -15 4 -17 -4 -9 -17 17 -79 -2 -107 -32
-12 -13 -32 -24 -43 -24 -13 0 -19 -4 -14 -12 4 -7 3 -8 -5 -4 -17 11 -5 23
29 29 16 4 30 11 30 17 0 6 -4 9 -9 6 -18 -11 -66 -29 -74 -27 -5 1 -5 -4 -1
-10 5 -9 2 -10 -10 -6 -11 5 -15 3 -10 -5 5 -7 0 -9 -14 -6 -12 4 -20 2 -16
-3 4 -7 -3 -11 -18 -9 -4 1 -143 -50 -223 -81 -33 -13 -62 -27 -63 -31 -2 -5
-8 -6 -13 -2 -5 3 -9 0 -9 -5 0 -6 -5 -11 -11 -11 -13 0 -185 -65 -211 -80
-10 -6 -26 -10 -35 -10 -10 0 -31 -7 -46 -15 -15 -8 -25 -10 -21 -4 4 7 0 7
-12 0 -25 -15 -74 -33 -99 -38 -11 -2 -42 -14 -70 -27 -27 -13 -61 -27 -73
-31 -32 -9 -133 -70 -160 -95 -12 -11 -24 -20 -27 -20 -3 0 -24 -18 -46 -40
-22 -22 -45 -40 -50 -40 -6 0 -7 -4 -4 -10 3 -5 -1 -10 -9 -10 -8 0 -22 -12
-30 -27 -8 -16 -15 -24 -16 -19 0 5 -11 -3 -25 -18 -14 -15 -25 -24 -25 -20 0
4 -9 -5 -20 -19 -11 -14 -29 -29 -40 -32 -11 -4 -20 -14 -20 -22 0 -9 -3 -14
-6 -11 -8 9 -62 -45 -56 -56 3 -5 0 -6 -6 -2 -11 7 -182 -157 -182 -175 0 -5
-7 -9 -15 -9 -9 0 -12 -6 -8 -17 4 -10 2 -14 -5 -9 -6 3 -13 -3 -17 -14 -4
-11 -11 -18 -16 -15 -8 6 -13 -9 -10 -28 1 -5 -3 -6 -8 -3 -5 3 -15 -2 -22
-11 -12 -14 -12 -16 0 -8 10 5 12 4 7 -3 -4 -7 -14 -12 -22 -12 -8 0 -13 -4
-12 -9 2 -5 -6 -17 -17 -26 -11 -9 -13 -14 -5 -10 9 4 7 0 -4 -9 -10 -8 -15
-19 -11 -25 4 -7 0 -8 -11 -4 -11 4 -15 3 -10 -5 3 -6 -2 -15 -11 -21 -10 -6
-14 -11 -9 -11 5 0 -1 -9 -14 -20 -13 -11 -20 -20 -16 -20 7 0 -7 -19 -38 -50
-11 -11 -16 -20 -11 -20 4 0 -2 -9 -15 -20 -13 -11 -18 -20 -12 -20 6 0 1 -11
-11 -24 -40 -44 -48 -56 -42 -66 3 -6 -1 -10 -10 -10 -9 0 -13 -4 -10 -10 3
-5 2 -10 -4 -10 -10 0 -27 -39 -23 -53 1 -5 -2 -6 -8 -2 -5 3 -10 0 -10 -9 0
-8 -4 -16 -9 -18 -5 -1 -11 -10 -13 -18 -2 -8 -11 -23 -20 -34 -10 -10 -15
-23 -12 -28 3 -4 0 -8 -6 -8 -6 0 -8 -4 -5 -10 3 -5 2 -10 -3 -10 -11 0 -38
-60 -34 -73 1 -5 -2 -6 -8 -2 -5 3 -10 1 -10 -4 0 -22 -2 -26 -15 -34 -8 -4
-12 -16 -10 -27 2 -11 0 -18 -5 -15 -5 3 -12 -5 -16 -19 -3 -14 -12 -30 -19
-36 -8 -6 -12 -17 -9 -24 3 -8 -2 -16 -11 -20 -9 -3 -13 -10 -10 -16 3 -5 2
-10 -3 -10 -6 0 -13 -7 -16 -16 -4 -10 -2 -13 7 -9 6 4 3 -1 -7 -9 -11 -9 -17
-16 -13 -16 4 0 0 -11 -9 -25 -8 -13 -12 -30 -8 -36 4 -8 3 -9 -4 -5 -11 6
-16 -6 -13 -26 0 -5 -2 -8 -7 -8 -4 0 -13 -15 -20 -32 -7 -18 -21 -49 -30 -67
-9 -19 -16 -39 -15 -43 2 -4 -2 -8 -9 -8 -6 0 -8 -3 -5 -6 4 -4 0 -19 -8 -33
-30 -55 -47 -100 -41 -110 4 -5 0 -13 -7 -18 -8 -4 -21 -23 -30 -41 -9 -19
-11 -30 -4 -25 7 4 7 0 -1 -10 -8 -9 -11 -21 -7 -27 4 -6 1 -9 -5 -8 -7 2 -18
-15 -25 -37 -7 -22 -21 -58 -31 -80 -10 -22 -17 -43 -16 -47 1 -5 -2 -8 -7 -8
-6 0 -8 -9 -6 -20 2 -11 -1 -20 -7 -20 -6 0 -9 -3 -5 -6 3 -4 -1 -13 -9 -22
-13 -12 -13 -16 -2 -23 9 -6 9 -9 1 -9 -11 0 -39 -67 -35 -82 1 -5 -3 -8 -9
-8 -5 0 -7 -4 -4 -10 3 -5 2 -10 -4 -10 -6 0 -8 -6 -5 -14 3 -8 1 -17 -5 -21
-6 -3 -11 -15 -11 -26 0 -10 -5 -19 -12 -19 -6 0 -8 -3 -5 -6 3 -4 2 -15 -3
-25 -7 -12 -6 -19 3 -22 7 -3 5 -6 -5 -6 -10 -1 -19 -8 -19 -16 -2 -24 -4 -29
-12 -42 -5 -7 -5 -17 -2 -23 3 -5 1 -10 -5 -10 -7 0 -9 -7 -6 -16 3 -8 2 -12
-4 -9 -6 3 -10 -2 -10 -12 0 -11 -6 -25 -12 -32 -10 -11 -10 -12 -1 -7 9 5 11
2 7 -8 -3 -9 -10 -16 -16 -16 -5 0 -7 -4 -3 -9 3 -5 0 -13 -6 -17 -8 -4 -7 -9
2 -15 11 -7 10 -9 -5 -9 -15 0 -16 -3 -6 -15 10 -12 9 -16 -4 -21 -9 -3 -13
-10 -10 -15 3 -5 0 -9 -6 -9 -6 0 -8 -5 -5 -10 4 -6 1 -17 -5 -25 -7 -8 -9
-15 -4 -15 4 0 0 -6 -11 -14 -12 -9 -16 -20 -12 -35 4 -18 2 -21 -10 -17 -12
5 -13 3 -6 -6 12 -16 13 -48 1 -48 -4 0 -8 5 -8 12 0 6 -3 8 -6 5 -4 -4 -1
-13 5 -21 10 -12 8 -14 -11 -9 -18 4 -20 3 -8 -6 8 -6 11 -11 6 -11 -5 0 -2
-8 5 -17 10 -11 10 -14 1 -9 -13 8 -16 -1 -14 -44 1 -19 -1 -21 -8 -10 -13 22
-23 5 -11 -19 8 -13 8 -22 1 -26 -6 -4 -8 -11 -5 -16 4 -5 -2 -6 -12 -2 -10 3
-15 3 -11 -2 4 -4 3 -14 -2 -21 -6 -6 -9 -18 -8 -25 2 -8 -3 -13 -10 -11 -8 1
-11 -2 -7 -8 3 -6 10 -8 15 -5 4 3 10 -1 13 -9 3 -8 -1 -13 -11 -12 -9 0 -17
-3 -17 -9 0 -5 -3 -15 -7 -21 -4 -6 -1 -11 7 -11 8 0 12 8 9 20 -2 11 0 17 3
13 16 -16 10 -38 -13 -46 -30 -12 -32 -23 -1 -15 15 4 18 4 8 -3 -8 -6 -10
-15 -5 -23 6 -10 3 -10 -11 1 -17 14 -18 14 -6 -8 9 -17 9 -27 2 -36 -6 -7 -7
-17 -3 -21 4 -5 2 -5 -5 -1 -6 3 -14 2 -18 -4 -3 -5 0 -10 7 -10 11 0 11 -2 0
-8 -7 -5 -15 -22 -18 -38 -3 -16 -7 -30 -10 -33 -2 -2 1 -10 7 -17 7 -8 6 -14
-2 -20 -8 -5 -9 -3 -4 6 5 9 4 11 -4 6 -9 -6 -9 -11 0 -22 6 -8 7 -14 2 -14
-9 0 -10 -5 -15 -87 -2 -29 -7 -53 -11 -53 -5 0 -6 -4 -2 -9 3 -5 0 -13 -6
-17 -8 -4 -7 -9 2 -15 12 -7 12 -9 0 -9 -7 0 -11 -6 -7 -15 3 -8 1 -15 -5 -15
-6 0 -9 -6 -6 -14 3 -7 2 -17 -3 -22 -5 -5 -12 -24 -15 -43 -3 -19 -8 -37 -10
-41 -2 -3 -6 -17 -8 -31 -3 -13 -10 -44 -17 -69 -7 -25 -14 -54 -16 -65 -4
-21 -11 -51 -21 -95 -3 -14 -6 -34 -7 -45 0 -11 -4 -22 -8 -25 -3 -3 -8 -28
-11 -56 -2 -29 -8 -57 -12 -64 -6 -9 -4 -11 6 -5 11 7 12 6 2 -6 -7 -8 -12
-24 -12 -34 0 -11 -1 -56 -1 -100 -1 -69 2 -103 10 -125 1 -3 2 -8 2 -11 -1
-3 6 -6 14 -6 17 0 19 13 2 20 -9 4 -9 6 1 6 11 1 10 5 -5 17 -10 8 -14 13 -8
10 7 -3 14 5 16 19 3 14 2 25 -2 25 -9 0 -6 32 4 48 4 7 2 12 -5 12 -8 0 -9 4
0 13 6 8 9 23 6 35 -2 12 0 22 4 22 4 0 7 12 6 28 -1 15 3 33 9 41 8 11 8 13
-1 7 -7 -4 -13 -2 -13 3 0 6 4 11 10 11 5 0 8 13 6 30 -2 16 1 30 6 30 6 0 8
7 4 15 -3 8 -2 15 2 15 5 0 9 10 9 23 1 12 4 33 7 47 3 14 8 44 12 68 4 23 11
45 15 48 5 3 4 14 -2 26 -8 14 -8 18 0 14 6 -4 13 5 17 21 3 15 13 52 21 80 8
29 11 57 8 63 -4 6 -1 9 7 8 7 -2 12 5 12 15 -1 9 3 17 9 17 6 0 8 3 5 6 -4 3
0 21 8 40 8 19 11 34 7 34 -5 0 -2 4 5 9 7 4 15 14 16 22 2 8 9 30 17 49 7 19
12 38 11 43 -1 4 3 7 8 7 6 0 10 7 10 15 0 23 109 257 123 263 4 2 7 12 7 23
0 10 5 19 10 19 6 0 8 -18 4 -47 -3 -27 -7 -80 -9 -120 -1 -39 -6 -76 -9 -82
-4 -6 -1 -11 6 -11 9 0 9 -3 -2 -10 -13 -9 -13 -11 0 -20 8 -5 11 -10 5 -10
-12 0 -12 -51 0 -70 5 -8 4 -11 -2 -7 -13 8 -11 -176 2 -185 6 -5 6 -8 -2 -8
-7 0 -10 -11 -7 -29 3 -16 7 -65 9 -108 3 -43 5 -82 5 -88 1 -5 1 -23 1 -40
-1 -71 5 -135 11 -135 4 0 3 -11 -2 -25 -5 -13 -6 -26 -2 -29 4 -2 7 -23 6
-46 0 -22 3 -43 8 -46 5 -3 4 -12 -3 -20 -7 -8 -7 -14 -1 -14 5 0 8 -16 6 -35
-1 -20 0 -34 4 -31 4 2 6 -15 5 -37 0 -23 3 -47 8 -54 7 -7 6 -14 -1 -18 -7
-4 -8 -11 -2 -18 5 -7 9 -19 9 -27 0 -8 4 -37 8 -65 5 -27 9 -75 9 -107 1 -31
4 -54 8 -52 4 2 9 0 13 -6 3 -5 -1 -10 -9 -10 -11 0 -15 -7 -12 -22 1 -13 -1
-39 -7 -58 -11 -42 -73 -138 -104 -163 -13 -10 -23 -24 -23 -31 0 -16 -79
-102 -91 -98 -6 1 -8 -2 -4 -8 3 -5 1 -10 -5 -10 -6 0 -8 -4 -5 -10 4 -6 -1
-7 -11 -3 -12 4 -15 3 -10 -5 4 -7 3 -12 -3 -12 -10 0 -23 -10 -89 -69 -17
-16 -40 -31 -50 -33 -9 -2 -16 -9 -15 -14 1 -5 -7 -11 -18 -11 -10 -1 -26 -9
-35 -17 -9 -9 -20 -14 -25 -11 -5 4 -9 2 -9 -3 0 -13 -54 -24 -116 -24 -42 0
-51 -3 -50 -17 2 -9 8 -17 14 -17 7 -1 13 -2 15 -4 1 -1 16 -3 32 -4 17 -1 37
-5 45 -8 35 -14 65 -16 78 -6 10 9 12 8 10 -2 -2 -7 3 -15 10 -17 6 -3 12 1
12 7 0 9 3 10 14 1 16 -14 126 -22 126 -10 0 5 5 9 11 9 5 0 7 -4 4 -10 -3 -5
-1 -10 4 -10 6 0 11 4 11 8 0 4 16 6 36 4 26 -3 35 -1 30 7 -9 15 7 14 22 -1
6 -6 15 -8 19 -3 5 4 2 10 -4 12 -7 3 -13 9 -13 15 0 7 5 7 13 -1 8 -6 18 -7
22 -3 5 4 5 2 2 -4 -9 -16 39 -9 60 8 15 11 16 11 10 -7 -6 -17 -5 -18 5 -5 7
8 28 16 47 17 19 1 38 8 42 15 8 12 13 4 10 -17 -1 -5 4 -3 11 6 15 18 73 40
82 32 3 -4 6 -2 6 4 0 6 8 13 18 16 9 2 26 8 37 12 11 5 17 5 13 1 -4 -5 -3
-19 2 -32 6 -14 12 -35 14 -47 8 -36 32 -98 37 -93 2 2 5 -7 6 -21 0 -14 5
-28 10 -32 4 -3 9 -13 11 -21 6 -27 85 -180 94 -180 4 0 8 -9 8 -20 0 -11 5
-20 10 -20 6 0 10 -7 10 -15 0 -8 5 -15 10 -15 6 0 9 -3 9 -7 -4 -22 3 -35 15
-30 10 4 12 0 9 -14 -3 -11 0 -19 8 -19 7 0 9 -3 6 -7 -4 -3 1 -12 11 -20 9
-8 11 -12 4 -8 -7 3 -1 -10 12 -30 14 -20 28 -45 31 -56 4 -10 10 -19 14 -19
8 0 7 -22 -3 -70 -3 -13 -17 -35 -31 -47 -14 -13 -25 -28 -25 -34 0 -6 -4 -7
-10 -4 -5 3 -10 -1 -10 -9 0 -9 -4 -16 -10 -16 -5 0 -10 -4 -10 -10 0 -26 -76
-74 -117 -73 -12 0 -20 -4 -17 -8 9 -16 -34 -10 -50 7 -9 8 -16 12 -16 8 0 -4
-10 1 -22 12 -12 10 -18 13 -13 5 6 -11 4 -13 -9 -8 -10 4 -22 7 -27 7 -6 0
-7 6 -3 13 5 8 2 8 -9 -2 -9 -7 -18 -11 -18 -7 -1 3 -2 10 -3 14 -2 18 -41 82
-49 82 -4 0 -6 4 -2 9 3 5 -4 12 -15 16 -11 3 -19 10 -17 14 1 5 -12 24 -30
44 -17 19 -29 38 -26 41 3 3 -4 4 -15 1 -12 -2 -21 -1 -21 3 1 4 0 10 -1 15
-1 4 -3 11 -4 17 0 5 -10 16 -21 25 -11 9 -14 13 -6 9 9 -5 12 -3 7 5 -5 7
-17 9 -29 5 -21 -6 -21 -6 -3 8 14 11 16 17 6 23 -7 4 -16 2 -21 -6 -6 -10 -8
-6 -5 11 3 20 -3 29 -28 42 -17 9 -25 17 -17 18 11 0 9 4 -4 14 -11 8 -23 12
-26 10 -4 -2 -6 4 -5 14 0 10 -6 17 -15 16 -9 -1 -16 6 -15 14 0 9 -10 21 -22
28 -17 8 -20 13 -10 17 9 4 7 6 -5 6 -10 1 -22 13 -27 27 -6 14 -14 23 -19 20
-5 -3 -12 1 -15 10 -3 8 -11 12 -17 8 -8 -4 -9 1 -4 17 5 19 4 21 -4 9 -8 -10
-13 -12 -18 -4 -13 17 -41 24 -47 11 -2 -7 -5 -4 -5 7 -1 14 -7 17 -26 14 -14
-3 -25 -1 -25 5 0 6 -6 2 -14 -9 -14 -19 -14 -19 -13 1 1 11 -3 19 -9 18 -7
-1 -26 2 -43 7 -23 6 -30 6 -25 -3 5 -9 4 -9 -6 0 -7 6 -19 9 -28 6 -9 -4 -13
-2 -9 4 4 6 -3 10 -16 9 -12 -1 -21 -8 -19 -15 1 -7 -2 -10 -8 -6 -6 3 -8 11
-5 16 4 5 1 9 -4 9 -6 0 -11 -5 -11 -11 0 -6 -5 -5 -13 3 -8 8 -37 13 -75 13
-34 -1 -62 2 -62 5 0 4 -10 6 -22 5 -13 -1 -41 5 -63 13 -22 8 -47 15 -55 17
-8 1 -28 7 -43 13 -15 7 -54 18 -87 25 -70 17 -70 12 3 -66 24 -26 43 -47 41
-47 -2 0 11 -16 29 -35 17 -19 43 -48 57 -65 14 -17 30 -37 37 -44 7 -8 9 -16
6 -20 -4 -3 1 -6 10 -6 16 0 22 -12 18 -34 -1 -5 5 -6 13 -3 9 4 15 3 14 -1
-3 -12 25 -62 34 -62 5 0 6 5 2 12 -4 7 -3 8 5 4 6 -4 9 -11 6 -16 -8 -13 6
-40 20 -40 8 0 17 -5 21 -12 5 -7 2 -9 -7 -4 -8 4 -6 1 4 -7 9 -8 17 -19 17
-26 0 -6 7 -11 15 -11 8 0 15 -7 15 -14 0 -20 45 -67 55 -58 5 4 5 1 1 -6 -6
-9 12 -33 54 -73 34 -32 59 -59 56 -59 -4 0 4 -11 18 -25 14 -14 29 -25 35
-25 5 0 11 -4 13 -9 2 -6 24 -11 51 -12 26 -2 47 -6 47 -9 0 -4 12 -8 27 -9
32 -2 78 -9 78 -11 0 -2 37 -9 63 -12 12 -1 22 -6 22 -10 0 -4 3 -7 8 -7 18 3
33 -2 28 -10 -3 -4 2 -8 12 -8 33 2 90 -14 102 -28 10 -12 10 -15 0 -15 -9 0
-9 -4 1 -17 8 -9 9 -14 3 -10 -7 4 -10 -8 -9 -39 1 -24 -2 -47 -7 -50 -5 -3
-3 -13 4 -21 15 -19 15 -23 -4 -34 -10 -7 -10 -9 0 -9 7 0 10 -4 7 -10 -3 -5
0 -10 7 -10 8 0 6 -4 -4 -11 -15 -8 -16 -13 -5 -30 10 -16 9 -22 -3 -30 -12
-8 -10 -10 10 -5 22 4 23 3 8 -8 -10 -7 -13 -17 -9 -25 5 -7 6 -22 4 -32 -3
-10 -1 -19 5 -19 6 0 8 -9 5 -20 -3 -13 0 -20 8 -20 10 0 10 -3 1 -12 -9 -9
-8 -16 6 -32 9 -11 12 -16 5 -12 -8 4 -8 -2 2 -20 8 -15 11 -32 8 -37 -3 -6
-1 -7 5 -3 8 4 12 0 12 -11 0 -11 5 -24 11 -30 9 -9 7 -11 -9 -6 -23 6 -107
-48 -95 -61 4 -4 -1 -4 -12 0 -15 6 -17 4 -12 -9 3 -9 3 -17 -1 -17 -12 0 -1
-142 12 -170 7 -14 12 -32 11 -40 -1 -8 3 -21 8 -27 5 -7 7 -13 4 -13 -3 0 -1
-16 3 -35 5 -21 4 -33 -2 -29 -5 3 -24 -11 -43 -31 -19 -20 -35 -34 -35 -30 0
3 -6 0 -14 -7 -11 -10 -11 -16 -2 -27 7 -10 7 -13 0 -8 -6 3 -20 0 -30 -8 -19
-13 -19 -14 1 -29 12 -8 24 -11 29 -6 12 12 48 -8 41 -23 -4 -7 -1 -5 7 3 9
11 29 14 68 12 60 -3 117 -2 168 2 17 1 32 -1 32 -4 0 -3 14 -5 30 -4 17 1 30
-3 30 -9 0 -7 4 -7 12 1 14 14 32 16 24 3 -3 -4 6 -7 19 -5 14 1 23 -1 20 -6
-3 -4 15 -21 40 -37 25 -15 45 -31 45 -35 0 -5 6 -8 14 -8 8 0 17 -4 21 -9 3
-5 -10 -8 -30 -6 -19 2 -35 -1 -35 -6 0 -5 -5 -8 -11 -7 -6 2 -13 -4 -14 -13
-2 -13 5 -16 30 -15 18 1 31 -2 29 -5 -2 -4 3 -10 12 -13 10 -4 13 -2 8 7 -6
9 -5 9 7 0 8 -6 26 -13 39 -15 42 -6 68 -26 81 -63 7 -19 17 -35 21 -35 4 0 8
-6 8 -12 0 -7 12 -24 26 -37 33 -31 48 -59 31 -58 -31 1 -47 -4 -47 -14 0 -5
5 -7 12 -3 7 4 8 3 4 -4 -4 -7 -13 -12 -21 -12 -8 0 -11 -7 -8 -20 3 -11 10
-20 15 -20 5 0 6 -5 2 -11 -5 -8 1 -10 19 -7 18 4 24 1 20 -9 -4 -9 3 -13 22
-13 17 0 24 -4 19 -11 -4 -7 -1 -10 7 -7 20 7 51 -11 43 -24 -4 -7 -3 -8 4 -4
6 4 9 12 6 20 -3 7 2 13 10 13 8 0 12 -6 9 -12 -2 -7 3 -19 11 -28 8 -8 12
-17 9 -21 -4 -3 -1 -6 5 -6 17 0 9 -36 -13 -60 -19 -20 -19 -21 1 -15 13 4 11
2 -5 -8 l-24 -15 21 -6 c12 -4 22 -12 22 -17 0 -6 4 -7 10 -4 5 3 10 0 10 -7
0 -9 3 -9 10 2 12 18 12 17 14 -95 1 -64 4 -79 16 -77 11 2 11 -1 -2 -11 -10
-8 -15 -17 -12 -20 5 -5 14 -76 16 -124 0 -13 4 -23 8 -23 5 0 7 -8 5 -17 -1
-10 5 -27 14 -37 9 -11 10 -16 3 -12 -6 4 -12 2 -12 -3 0 -6 3 -11 8 -11 4 0
9 -28 10 -62 2 -35 9 -69 15 -77 9 -12 9 -13 0 -7 -7 4 -13 3 -13 -3 0 -5 4
-12 8 -15 9 -6 9 -36 0 -51 -3 -6 -4 -19 -1 -30 2 -11 5 -34 6 -50 2 -17 7
-37 11 -44 6 -9 5 -12 -2 -7 -11 7 -10 -24 3 -101 3 -18 5 -36 5 -40 -1 -4 7
-10 17 -14 17 -7 17 -8 0 -8 -17 -1 -17 -2 -3 -17 9 -8 14 -20 11 -25 -4 -5
-2 -9 4 -9 5 0 13 -9 16 -20 3 -11 11 -20 17 -20 6 0 6 6 -2 15 -11 13 -10 14
3 9 11 -4 15 -16 13 -40 -1 -22 3 -39 13 -47 14 -11 14 -10 2 5 -7 10 -9 18
-3 18 15 0 23 -28 10 -36 -7 -5 -5 -11 6 -19 20 -15 31 -61 16 -70 -6 -3 -7 1
-4 9 4 11 0 16 -12 16 -16 0 -17 -2 -4 -10 8 -5 11 -10 6 -10 -5 0 -3 -8 6
-17 8 -10 13 -28 12 -41 -1 -17 3 -22 14 -17 12 4 13 3 2 -10 -8 -10 -9 -15
-1 -15 6 0 11 -7 11 -15 0 -8 5 -15 10 -15 6 0 9 -3 9 -7 -4 -23 3 -35 15 -30
10 4 13 1 10 -7 -3 -8 0 -17 5 -21 6 -3 8 -11 5 -17 -5 -7 -1 -9 9 -5 9 3 16
3 16 -1 -3 -21 2 -32 13 -26 6 4 8 3 4 -4 -3 -6 4 -21 16 -33 13 -12 16 -18 8
-14 -12 7 -11 4 2 -11 9 -10 16 -21 15 -24 -2 -9 37 -70 46 -70 4 0 6 -4 3 -8
-2 -4 4 -9 15 -9 11 -1 17 2 14 8 -4 5 -1 9 5 9 6 0 8 5 3 13 -4 6 -6 21 -5
33 2 11 -1 32 -7 46 -8 21 -7 25 7 24 9 0 25 -8 35 -16 10 -8 20 -14 22 -13 3
1 28 -5 56 -12 29 -8 56 -12 61 -9 4 3 8 0 8 -5 0 -6 7 -11 15 -11 9 0 30 -7
47 -16 18 -9 27 -11 23 -4 -5 8 2 7 16 -2 48 -29 77 -6 40 31 -12 12 -21 25
-21 29 0 5 -9 17 -20 27 -39 35 -11 83 44 77 21 -3 26 0 20 10 -5 8 2 6 19 -4
14 -10 30 -18 34 -18 4 0 0 5 -9 11 -25 14 -22 24 8 37 15 7 22 17 18 24 -4 7
-3 8 5 4 6 -4 9 -11 6 -16 -7 -12 27 -22 38 -11 7 7 17 7 29 0 14 -8 24 -7 36
3 9 8 13 8 9 1 -4 -6 -4 -13 0 -16 5 -2 3 -3 -2 -1 -6 1 -11 -8 -12 -20 0 -11
1 -15 4 -8 3 6 17 12 31 12 21 0 24 -2 12 -10 -12 -8 -10 -10 10 -10 16 0 21
-3 12 -8 -7 -5 20 -8 58 -7 39 1 73 -2 76 -6 2 -5 11 -6 19 -2 11 3 13 1 9
-10 -7 -20 19 -28 108 -33 44 -2 74 -9 84 -19 9 -8 20 -13 25 -10 5 4 9 1 9
-5 0 -6 4 -8 10 -5 5 3 10 2 10 -3 0 -6 7 -13 16 -16 10 -4 13 -2 8 6 -4 7 -3
8 4 4 18 -11 52 -18 119 -23 l62 -5 -34 -33 c-32 -29 -47 -65 -27 -65 7 0 42
28 94 75 16 14 30 20 34 14 4 -6 13 -4 25 7 10 9 25 14 34 11 8 -4 15 -3 15 2
0 10 31 8 50 -4 22 -14 33 -13 48 5 8 8 11 9 7 3 -3 -7 -1 -13 4 -13 6 0 11
-17 11 -37 0 -58 10 -83 31 -83 11 0 22 7 25 15 4 8 10 12 15 9 5 -3 9 -1 9 3
0 5 11 20 24 34 31 33 48 67 41 79 -3 6 0 10 8 10 8 0 20 6 27 14 6 8 18 12
25 10 8 -3 20 -2 27 2 7 4 26 9 43 10 16 1 32 2 35 4 3 1 9 2 13 1 5 -1 24 8
42 19 l33 20 6 -25 c4 -14 12 -26 19 -26 6 -1 22 -3 33 -4 12 -1 27 -6 34 -10
9 -6 11 -4 5 4 -5 10 -3 11 11 4 22 -11 34 -11 52 0 6 5 12 4 12 0 0 -11 41
-10 59 1 9 6 12 5 7 -2 -4 -7 16 -10 64 -8 48 1 75 -2 82 -11 6 -7 14 -10 19
-7 5 3 9 1 9 -4 0 -9 40 -25 65 -26 6 -1 13 -5 17 -10 3 -5 17 -10 30 -11 36
-4 68 -16 68 -26 0 -13 71 -8 89 5 11 8 13 8 7 -1 -5 -10 -1 -11 18 -3 14 5
26 7 26 4 0 -4 11 1 25 10 14 9 29 15 33 12 5 -3 20 1 35 9 15 8 27 11 27 7 0
-4 4 0 10 8 6 9 27 15 59 16 28 0 48 -2 46 -7 -5 -7 42 -24 58 -21 4 1 7 -3 7
-9 0 -5 4 -7 10 -4 6 3 10 2 10 -4 0 -5 12 -9 28 -9 15 1 38 -2 51 -7 18 -5
22 -4 15 6 -6 11 -5 11 9 0 17 -13 126 -19 144 -8 5 3 9 -5 9 -18 0 -13 -4
-21 -8 -19 -7 5 -9 -2 -12 -46 -1 -8 -4 -20 -9 -27 -4 -6 -2 -15 4 -19 8 -4 7
-9 -2 -15 -11 -7 -11 -9 -1 -9 7 0 10 -4 7 -10 -11 -17 -14 -70 -4 -70 5 0 9
-6 9 -13 0 -15 36 -17 57 -4 6 4 14 3 17 -1 3 -5 15 -8 28 -7 13 1 29 -2 35
-7 7 -6 19 -8 28 -5 8 4 17 2 20 -3 11 -17 85 38 85 62 0 5 6 6 13 2 8 -5 8
-2 -2 9 -9 12 -10 17 -2 17 7 0 9 4 6 10 -11 17 14 48 45 55 16 4 30 11 30 17
0 6 7 8 15 4 8 -3 15 -1 15 4 0 5 7 6 17 3 9 -4 14 -2 10 3 -3 6 6 10 21 9 39
-1 65 32 58 74 -3 18 -2 31 1 27 3 -3 11 0 17 7 29 35 220 97 200 66 -6 -10
26 -20 38 -12 7 3 8 1 4 -5 -5 -8 0 -12 13 -12 12 0 21 -4 21 -10 0 -5 7 -7
15 -4 9 4 15 0 15 -7 0 -11 3 -11 10 1 6 9 10 10 10 3 0 -14 53 -7 58 8 2 5 8
7 13 3 5 -3 10 0 10 5 1 6 2 15 3 20 0 5 5 13 10 18 6 5 6 2 1 -7 -7 -13 -6
-13 7 -2 9 7 19 24 22 38 4 14 11 22 17 19 5 -4 14 7 20 24 10 27 13 29 37 19
15 -5 46 -11 69 -12 24 -2 46 -5 49 -8 3 -4 17 -4 30 -2 14 3 32 1 40 -4 10
-5 36 -5 63 1 60 12 121 15 116 6 -3 -4 25 -6 61 -5 36 1 68 -2 71 -7 3 -4 10
-4 16 1 7 5 20 8 30 7 9 -2 17 0 17 5 0 4 14 6 30 5 17 -1 30 0 30 4 0 3 15 7
33 7 17 1 43 4 57 8 74 17 85 20 90 21 20 4 87 29 96 36 6 5 16 3 24 -4 10
-10 11 -9 5 2 -6 10 -4 13 7 8 9 -3 21 0 27 6 9 9 14 8 21 -3 8 -12 10 -12 10
4 0 11 3 17 6 13 4 -3 22 0 42 9 19 8 37 12 40 9 3 -3 11 0 19 7 11 8 12 7 7
-6 -5 -14 -3 -15 20 -6 18 6 26 6 26 -1 0 -6 5 -7 10 -4 6 4 7 12 4 18 -5 8
-3 8 7 0 18 -17 29 -16 29 3 0 10 10 4 31 -18 18 -18 29 -27 25 -21 -5 10 6
12 43 11 28 -2 51 -5 51 -8 0 -10 65 -4 87 8 15 9 24 9 28 1 4 -6 13 -8 20 -5
8 3 16 0 19 -7 3 -9 7 -8 15 3 5 8 7 18 4 24 -3 5 -1 6 5 2 7 -4 12 0 13 11 4
81 3 113 -1 113 -3 0 -5 11 -5 25 0 14 4 25 8 25 5 0 6 4 3 8 -3 5 4 16 15 25
10 9 19 12 19 7 0 -11 30 4 64 30 11 9 16 10 12 3 -6 -11 50 13 64 27 13 13
90 48 84 38 -5 -7 -3 -8 7 -2 8 4 21 10 30 11 32 5 188 90 181 99 -4 5 -3 5 3
1 5 -5 10 -16 10 -25 0 -19 24 -23 41 -7 7 6 21 30 33 54 14 27 38 52 69 71
26 16 57 38 68 49 12 11 25 17 30 13 4 -4 4 1 1 10 -4 12 -2 15 7 12 17 -6 58
35 49 49 -3 6 -1 7 5 4 5 -4 35 17 65 47 31 30 58 51 61 48 3 -3 6 2 6 11 0
10 7 17 15 17 8 0 15 5 15 10 0 13 37 50 43 43 3 -2 8 5 12 16 3 12 10 19 15
16 8 -5 25 23 22 38 -1 4 5 7 14 7 8 0 12 5 9 10 -3 6 -1 10 5 10 6 0 9 4 6 9
-4 5 0 11 6 14 10 3 9 8 -2 22 -9 11 -10 16 -2 11 8 -5 12 0 12 15 0 20 3 21
53 15 70 -8 80 -10 95 -19 7 -5 12 -3 12 3 0 6 4 9 9 5 9 -5 24 24 26 50 0 6
6 9 13 7 7 -1 12 5 12 14 0 8 4 13 9 10 15 -10 22 25 9 42 -11 13 -11 14 2 7
13 -8 13 -7 1 8 -11 14 -11 20 2 41 15 22 15 25 0 38 -14 11 -16 11 -9 -2 6
-11 4 -11 -6 1 -7 9 -17 17 -23 17 -5 1 -11 7 -11 12 -1 6 -2 15 -3 21 0 5 -5
8 -9 5 -5 -3 -9 1 -9 9 0 8 4 12 9 9 4 -3 5 2 2 10 -3 9 -9 14 -13 11 -4 -2
-8 2 -8 10 0 8 5 11 11 8 6 -4 5 0 -1 9 -7 8 -11 17 -8 19 2 3 -7 6 -20 7 -23
2 -30 -7 -26 -33 1 -5 -5 -1 -14 9 -8 10 -13 22 -11 25 2 3 -5 15 -15 25 -14
15 -19 16 -19 5 0 -10 -2 -11 -8 -2 -6 10 -13 9 -30 -3 -12 -8 -20 -19 -17
-24 3 -4 -3 -7 -12 -6 -11 0 -18 -6 -18 -19 0 -11 -6 -19 -12 -17 -7 1 -13 -5
-13 -14 0 -8 -4 -13 -9 -10 -5 3 -15 -1 -22 -10 -7 -9 -24 -20 -37 -25 -15 -6
-21 -13 -16 -21 5 -9 2 -9 -9 1 -13 10 -17 10 -17 1 0 -7 -7 -10 -15 -6 -8 3
-14 0 -12 -6 1 -7 -5 -13 -13 -13 -29 -2 -70 -17 -70 -26 0 -5 -3 -8 -7 -8
-23 4 -43 -2 -38 -11 3 -6 -1 -7 -9 -4 -9 3 -16 1 -16 -6 0 -6 -4 -8 -10 -5
-5 3 -10 1 -10 -4 0 -6 -5 -11 -11 -11 -5 0 -7 4 -4 10 3 6 -1 7 -10 4 -9 -4
-14 -12 -11 -19 3 -8 -2 -12 -12 -10 -9 1 -20 -3 -24 -9 -4 -6 -8 4 -8 23 0
27 -3 32 -16 27 -14 -5 -15 -4 -5 8 9 11 9 20 2 34 -6 11 -7 22 -4 26 3 3 1 6
-5 6 -7 0 -12 10 -13 23 0 12 -3 16 -6 10 -8 -21 -22 -15 -16 7 3 11 1 20 -4
20 -15 0 -11 28 4 34 8 3 12 2 10 -2 -7 -11 17 -29 36 -26 9 1 15 -1 12 -6 -3
-4 4 -10 15 -13 12 -3 18 -1 14 5 -4 6 5 2 20 -7 14 -10 26 -14 26 -10 0 4 8
1 17 -6 10 -9 14 -9 10 -2 -5 8 1 7 20 -2 17 -9 29 -11 31 -5 2 6 7 8 11 6 4
-3 13 -1 20 3 10 7 8 13 -10 29 -12 12 -25 19 -30 17 -4 -3 -13 0 -21 7 -7 7
-20 14 -28 16 -8 2 -16 8 -18 13 -2 5 -10 9 -18 9 -8 0 -14 5 -14 11 0 5 -4 7
-10 4 -5 -3 -10 -2 -10 2 0 5 -14 17 -31 27 -32 19 -89 71 -89 81 0 4 4 4 8 1
12 -7 73 54 66 65 -3 5 -1 9 4 9 6 0 8 9 5 20 -3 11 -12 20 -20 20 -8 0 -11 5
-8 10 3 5 0 10 -8 10 -8 0 -20 6 -27 14 -6 8 -19 12 -28 9 -15 -6 -15 -4 -4
10 12 14 16 14 50 -5 20 -11 51 -30 67 -43 48 -36 170 -159 173 -175 2 -8 8
-17 13 -18 5 -2 6 -9 3 -14 -4 -6 1 -17 11 -25 14 -9 15 -13 4 -13 -12 0 -12
-2 1 -10 13 -9 13 -10 0 -10 -13 0 -13 -2 -1 -9 8 -5 11 -16 8 -25 -4 -10 -1
-19 7 -22 9 -3 13 -15 10 -27 -3 -19 -2 -20 13 -5 14 14 21 74 13 106 -1 4 -2
10 -1 15 0 4 -3 7 -8 7 -6 0 -8 9 -6 20 2 11 -1 20 -7 20 -6 0 -9 3 -5 6 9 9
-14 65 -24 58 -5 -3 -9 -2 -8 3 5 27 -2 53 -13 47 -8 -5 -9 -2 -5 9 6 15 -3
22 -25 18 -4 0 -5 6 -2 14 4 8 1 15 -6 15 -6 0 -9 4 -6 9 8 12 -19 33 -29 23
-5 -4 -5 -1 -1 6 4 6 2 12 -3 12 -6 0 -11 7 -11 16 0 9 -9 18 -20 21 -11 3
-20 13 -20 22 0 9 -16 27 -34 41 -19 14 -32 29 -28 34 3 5 -1 6 -8 1 -8 -5
-17 -2 -24 7 -15 19 -42 28 -53 17 -5 -5 -9 -1 -10 11 -1 12 7 26 18 33 10 6
19 16 19 21 0 5 7 14 15 20 15 11 27 70 17 81 -3 3 -7 15 -9 27 -2 12 -8 25
-14 29 -6 3 -10 9 -10 13 3 20 0 26 -9 21 -6 -3 -7 1 -4 9 3 9 1 16 -6 16 -6
0 -9 4 -6 8 3 5 -4 15 -15 22 -10 8 -19 20 -19 28 0 7 -4 10 -10 7 -5 -3 -10
-1 -10 6 0 17 -61 70 -72 63 -5 -3 -7 0 -6 8 2 7 -5 12 -14 12 -10 -1 -16 2
-13 6 3 5 -4 11 -15 15 -11 3 -20 11 -20 17 0 6 -9 8 -20 5 -11 -3 -18 -1 -15
4 3 4 -6 11 -20 15 -14 3 -25 10 -25 15 0 4 -10 6 -21 4 -12 -3 -19 -2 -16 2
4 3 -14 16 -38 28 -25 12 -65 41 -90 64 -33 32 -50 41 -65 36 -11 -4 -18 -10
-15 -15 3 -4 -2 -13 -10 -20 -18 -15 -9 -39 28 -72 19 -16 28 -32 24 -42 -4
-9 1 -17 13 -21 12 -4 17 -12 13 -22 -4 -11 -2 -14 5 -9 8 5 12 -2 12 -23 0
-16 5 -31 12 -33 7 -3 9 -12 5 -23 -7 -17 -8 -17 -20 -1 -7 9 -22 18 -34 19
-12 0 -20 4 -17 8 2 4 -10 12 -26 18 -17 5 -30 7 -30 3 0 -4 -5 1 -11 11 -9
15 -13 16 -27 5 -13 -11 -14 -11 -7 1 6 11 4 13 -8 8 -10 -4 -17 -2 -17 4 0 6
-6 9 -14 6 -8 -3 -17 -3 -20 1 -7 7 -23 10 -83 16 -23 2 -46 7 -52 11 -6 3
-11 2 -11 -3 0 -10 -30 -9 -47 1 -6 4 -14 3 -18 -3 -4 -6 -11 -8 -16 -5 -5 4
-9 0 -9 -7 0 -10 -2 -10 -8 -1 -10 16 -54 5 -45 -11 4 -7 1 -7 -8 1 -12 10
-18 10 -28 0 -9 -9 -14 -9 -21 3 -9 13 -14 8 -12 -11 2 -14 -37 4 -43 18 -4
12 -2 13 8 5 10 -8 13 -6 14 11 2 17 0 19 -7 7 -5 -8 -10 -11 -10 -6 0 5 -6 4
-13 -3 -10 -8 -17 -7 -25 1 -14 14 -16 62 -3 54 5 -4 7 4 4 15 -4 14 0 25 11
31 9 5 16 16 16 24 0 9 5 12 11 8 7 -4 10 -1 7 7 -4 13 14 39 28 39 3 0 14 8
23 18 20 23 99 69 126 74 11 2 26 10 33 18 10 11 12 12 6 1 -6 -11 -3 -13 12
-7 10 5 33 9 49 10 21 1 30 7 29 19 -1 9 2 17 7 17 5 0 9 -10 10 -22 0 -13 3
-17 6 -10 2 6 8 10 12 8 4 -3 8 1 8 9 0 8 -5 15 -11 15 -6 0 -5 4 3 9 10 7 9
11 -6 22 -20 15 -27 60 -8 53 6 -3 11 5 12 16 1 11 -4 20 -10 20 -7 0 17 27
53 60 36 33 71 58 77 55 7 -2 12 -1 12 3 -4 28 1 34 18 21 11 -10 14 -10 9 -1
-4 7 -2 12 4 12 6 0 8 5 4 12 -5 8 -2 9 9 5 9 -3 19 -1 23 5 5 7 2 8 -7 3 -8
-4 -5 1 6 12 11 11 23 19 27 17 3 -2 26 15 50 38 24 24 47 43 52 44 5 1 19 9
31 18 13 10 26 17 29 17 10 -2 43 34 39 42 -2 4 3 7 12 7 10 0 14 5 9 13 -5 9
-4 9 6 0 10 -9 18 -6 36 14 13 15 27 23 31 20 3 -4 12 2 19 12 14 20 64 34 64
18 0 -5 7 -4 15 3 8 6 20 8 26 4 7 -4 9 -3 6 3 -8 13 96 136 107 126 3 -4 6 1
6 10 0 9 10 23 22 31 12 9 18 16 13 16 -6 0 -3 5 5 10 8 5 15 14 15 19 0 27
72 70 130 77 17 3 46 10 65 16 19 7 40 13 45 14 49 9 95 27 90 34 -4 6 -1 10
4 10 6 0 11 7 11 16 0 22 -107 124 -130 124 -6 0 -10 5 -10 10 0 6 -7 10 -16
10 -8 0 -22 7 -31 15 -8 8 -19 13 -24 10 -5 -4 -9 -2 -9 4 0 5 -17 15 -37 22
-21 7 -38 11 -38 10 0 -1 -13 4 -29 12 -16 9 -37 14 -47 12 -12 -2 -17 0 -13
6 4 7 -5 9 -22 7 -24 -2 -30 1 -32 20 -2 13 -10 22 -20 22 -15 0 -15 2 -2 10
12 7 12 10 1 10 -8 0 -11 6 -7 16 4 12 2 15 -9 10 -8 -3 -19 2 -24 12 -8 15
-1 17 82 18 100 0 168 7 186 18 6 4 11 1 11 -6 0 -10 2 -10 8 -1 4 7 28 14 53
16 25 2 59 11 76 19 19 9 37 12 51 7 12 -5 24 -4 27 1 3 5 12 7 20 3 8 -3 15
0 15 7 0 6 5 8 10 5 6 -3 10 -2 10 3 0 15 -47 35 -69 29 -15 -4 -21 0 -22 11
0 10 -3 12 -5 6 -4 -8 -23 -8 -72 2 -105 22 -116 25 -127 34 -5 4 -13 9 -17
10 -4 0 -22 6 -40 13 -18 6 -36 10 -40 9 -5 -1 -8 2 -8 8 0 12 -55 41 -64 33
-3 -4 -6 1 -6 11 0 9 -4 15 -9 12 -5 -3 -12 1 -15 10 -3 9 -11 12 -18 8 -7 -4
-10 -4 -6 1 8 8 2 15 -51 58 -24 20 -29 28 -15 25 10 -1 19 2 19 9 0 6 4 15 9
20 5 5 6 3 2 -4 -4 -8 -2 -13 6 -13 10 0 10 -2 -1 -9 -9 -6 -4 -8 18 -7 17 0
31 5 31 9 0 5 -7 7 -15 3 -22 -8 -18 2 6 15 15 8 19 8 15 0 -7 -11 8 -16 29
-11 6 1 16 3 23 3 7 0 10 7 7 15 -4 12 -3 13 10 2 11 -9 15 -9 15 -1 0 7 4 10
9 6 5 -3 12 -1 16 5 4 6 11 8 16 5 5 -4 9 -2 9 2 0 5 8 9 18 10 49 5 81 16 75
26 -4 6 0 8 11 4 10 -4 19 -1 22 8 3 7 12 11 20 8 8 -3 14 0 14 7 0 6 4 9 9 5
5 -3 12 -1 16 5 4 6 11 8 16 4 5 -3 20 5 34 18 13 13 25 21 27 18 2 -3 22 15
46 39 40 41 43 43 60 27 10 -9 24 -16 30 -16 7 0 12 -5 12 -11 0 -5 5 -7 10
-4 6 3 10 0 10 -8 0 -8 7 -18 16 -21 10 -4 13 -2 8 7 -3 6 5 -1 20 -17 14 -16
26 -25 26 -20 0 5 4 4 8 -1 4 -6 34 -28 67 -50 33 -22 66 -47 75 -56 8 -8 42
-35 75 -59 33 -24 65 -49 70 -54 20 -21 56 -37 67 -30 7 4 8 3 4 -4 -4 -7 -1
-12 9 -12 10 0 13 -5 9 -12 -4 -7 -3 -8 4 -4 6 4 22 0 35 -9 21 -13 24 -13 24
0 0 14 -10 19 -29 16 -5 0 -8 6 -8 15 0 8 -5 12 -10 9 -6 -3 -13 1 -16 10 -4
9 -13 14 -21 11 -8 -4 -11 -1 -8 5 4 6 -2 13 -14 16 -11 3 -18 9 -15 14 3 5 1
9 -5 9 -5 0 -24 13 -42 30 -18 16 -37 26 -42 23 -6 -4 -7 -1 -2 7 4 7 3 15 -2
19 -6 3 -36 44 -68 91 -32 47 -64 88 -69 92 -6 4 -8 8 -4 8 4 0 -4 16 -17 36
-14 20 -25 41 -25 46 0 5 -7 16 -15 25 -8 8 -13 19 -10 24 4 5 2 9 -3 9 -5 0
-9 14 -8 31 1 22 9 35 26 45 14 7 21 13 17 14 -4 0 3 15 16 33 21 28 59 92 62
107 1 3 7 19 14 35 7 17 15 38 17 48 13 54 13 57 -4 57 -14 0 -15 2 -2 9 8 6
18 7 24 4 5 -3 6 -1 2 5 -4 7 -19 5 -48 -8 -23 -10 -46 -16 -50 -14 -4 3 -8 1
-8 -4 0 -12 -50 -22 -122 -25 -32 -1 -58 -6 -58 -12 0 -5 -4 -4 -9 4 -5 8 -16
11 -24 8 -12 -4 -16 0 -15 16 2 25 -21 77 -34 77 -4 0 -8 7 -8 15 0 8 -5 15
-10 15 -6 0 -9 3 -9 8 3 20 -2 32 -13 26 -6 -4 -8 -3 -5 3 8 12 -11 73 -22 73
-4 0 -7 8 -8 18 -1 9 -7 31 -14 47 -14 33 -16 40 -18 56 0 5 -5 8 -9 5 -4 -2
-7 7 -7 22 1 30 -14 72 -26 72 -4 0 -5 9 -2 20 3 11 1 20 -4 20 -5 0 -10 12
-11 26 -1 14 -5 31 -9 37 -4 7 -8 17 -9 22 -6 29 -29 111 -34 115 -3 3 -6 14
-8 25 -2 11 -6 27 -9 35 -3 8 -8 24 -10 35 -2 11 -6 27 -10 35 -7 18 -10 28
-17 56 -2 12 -9 39 -15 59 -6 21 -8 42 -5 47 3 4 0 8 -6 8 -6 0 -9 4 -5 9 3 5
1 12 -5 16 -6 4 -7 11 -4 17 4 6 0 14 -7 19 -12 7 -12 9 0 9 11 0 11 3 1 15
-6 8 -9 19 -6 24 4 5 2 12 -3 16 -6 3 -8 12 -5 19 3 7 -2 21 -11 30 -9 9 -11
16 -5 16 6 0 8 4 5 10 -3 5 -8 22 -10 37 -4 29 -10 58 -22 108 -4 17 -7 35 -8
40 0 6 -4 29 -9 53 -4 23 -9 53 -10 67 -2 13 -9 31 -15 39 -8 10 -9 16 -1 21
6 3 8 11 4 16 -3 5 -7 21 -10 34 -2 14 -7 37 -10 53 -3 15 -7 43 -9 62 -2 19
-7 46 -10 60 -4 14 -8 36 -10 50 -2 14 -4 25 -5 25 -1 0 -3 16 -5 35 -8 72
-17 125 -24 135 -4 6 -8 23 -9 39 -1 16 -8 36 -15 44 -10 13 -9 14 2 7 11 -6
13 -4 7 11 -11 26 -19 66 -18 87 0 9 -3 17 -7 17 -4 0 -8 8 -8 18 1 50 -4 83
-10 79 -5 -3 -8 18 -7 46 0 29 -3 57 -7 63 -5 6 -3 11 6 11 8 0 11 -5 8 -10
-4 -6 1 -8 11 -4 10 4 15 3 11 -3 -7 -11 25 -70 37 -70 4 0 8 -7 8 -15 0 -8 4
-15 9 -15 5 0 13 -9 16 -20 4 -11 18 -32 31 -45 13 -14 24 -27 24 -30 -1 -13
31 -65 40 -65 6 0 10 -6 10 -13 0 -8 13 -32 28 -53 15 -21 45 -70 67 -109 21
-38 41 -72 45 -75 4 -3 10 -15 14 -27 4 -13 12 -23 17 -23 6 0 8 -4 4 -9 -3
-5 2 -17 11 -25 8 -9 13 -16 9 -16 -3 0 2 -12 13 -27 18 -28 35 -64 32 -72 -1
-2 5 -8 14 -13 9 -5 16 -18 16 -29 0 -13 4 -18 12 -13 8 5 9 2 5 -9 -4 -10 0
-20 11 -26 9 -6 13 -11 8 -11 -6 0 -1 -7 10 -16 10 -8 13 -12 6 -9 -12 6 -12
3 -2 -16 7 -13 16 -26 19 -29 16 -13 44 -53 34 -46 -20 11 -15 -1 10 -25 12
-12 16 -19 9 -15 -17 10 19 -66 37 -78 11 -7 11 -10 0 -17 -10 -6 -11 -9 -1
-9 6 0 12 -9 12 -20 0 -11 7 -23 16 -27 13 -5 13 -7 2 -14 -10 -7 -9 -9 4 -9
12 0 16 -6 13 -20 -2 -11 0 -18 5 -15 4 3 11 -1 14 -7 2 -7 4 -4 2 7 -1 11 -7
30 -14 42 -7 12 -12 29 -12 37 0 9 -4 16 -9 16 -6 0 -8 9 -6 20 2 11 -1 20 -6
20 -6 0 -8 4 -4 9 3 5 1 12 -5 16 -5 3 -10 16 -10 29 0 12 -3 26 -7 30 -4 3
-8 17 -10 29 -2 12 -8 24 -14 25 -6 3 -6 8 1 17 8 9 7 14 -4 18 -9 4 -12 14
-9 26 3 13 1 21 -6 21 -7 0 -11 8 -9 18 3 21 -21 112 -35 130 -5 6 -6 12 -2
12 4 0 2 7 -5 15 -6 8 -9 19 -5 25 3 5 2 10 -4 10 -6 0 -8 7 -5 15 4 8 1 15
-6 15 -6 0 -8 5 -5 10 3 6 0 10 -7 10 -9 0 -10 2 -1 8 8 5 8 13 -2 32 -8 14
-14 19 -15 11 0 -8 -3 -11 -6 -8 -4 4 -1 13 6 22 8 10 9 15 1 15 -6 0 -10 3
-10 8 4 25 -2 42 -13 36 -10 -5 -10 -4 -1 6 7 8 8 19 3 29 -5 9 -14 31 -20 49
-7 17 -18 32 -24 32 -6 0 -4 5 4 11 12 9 10 10 -8 6 -19 -5 -21 -3 -11 9 6 7
16 11 22 7 6 -3 7 -1 3 6 -4 6 -12 9 -17 6 -5 -4 -9 -1 -9 4 0 6 5 11 11 11 6
0 3 7 -5 16 -9 8 -16 22 -16 30 0 8 -5 14 -11 14 -6 0 -8 9 -4 23 7 22 7 22
-9 2 -16 -19 -16 -19 -7 5 8 25 -4 70 -21 70 -4 0 -8 5 -8 11 0 5 6 7 13 3 8
-5 8 -2 -2 9 -15 19 -26 23 -15 5 5 -7 3 -8 -5 -3 -9 5 -10 10 -2 18 7 7 5 15
-7 24 -12 10 -12 12 -2 8 10 -4 9 -2 -2 8 -21 16 -24 32 -5 21 6 -4 4 2 -6 14
-11 11 -16 25 -13 31 4 5 1 13 -5 17 -8 5 -9 3 -4 -6 5 -8 4 -11 -3 -6 -6 4
-9 13 -6 20 3 8 1 17 -5 21 -6 3 -11 15 -11 26 0 10 -5 19 -11 19 -5 0 -7 -4
-4 -10 3 -6 -1 -7 -10 -3 -12 4 -13 8 -5 13 14 9 8 46 -7 43 -5 -1 -9 10 -7
25 3 26 2 26 -13 7 -15 -19 -15 -19 -9 -1 4 11 1 23 -6 29 -9 6 -8 7 5 3 9 -3
17 -1 17 4 0 6 -7 10 -15 10 -8 0 -15 9 -15 20 0 11 -4 20 -10 20 -5 0 -6 7
-3 17 5 12 3 14 -7 8 -10 -6 -12 -4 -7 8 4 12 2 14 -11 10 -14 -6 -15 -4 -4 9
10 13 10 18 1 24 -8 5 -9 3 -4 -6 5 -8 4 -11 -3 -6 -6 4 -9 13 -6 20 3 7 -2
20 -10 29 -8 8 -12 17 -9 21 4 3 1 6 -6 6 -8 0 -11 7 -7 15 3 8 -2 19 -12 24
-9 6 -12 11 -7 11 7 0 7 3 0 8 -5 4 -28 43 -51 87 -75 148 -109 210 -117 213
-4 2 -5 8 -1 13 3 5 0 9 -6 9 -7 0 -10 6 -8 12 3 7 -5 21 -16 31 -12 10 -14
15 -6 11 12 -6 12 -4 -1 12 -9 10 -34 55 -55 99 -21 44 -42 82 -47 83 -4 2 -5
7 -2 12 3 5 -1 15 -10 23 -8 8 -16 21 -17 28 -2 8 -11 20 -20 27 -9 7 -15 19
-12 26 3 8 -4 16 -16 19 -12 3 -19 10 -16 16 9 15 -15 60 -36 66 -11 4 -18 16
-18 31 0 14 -4 23 -9 20 -5 -3 -11 4 -14 15 -3 12 -10 18 -17 14 -6 -3 -10 -3
-9 2 3 20 -15 53 -29 53 -8 0 -13 3 -9 6 6 6 -11 30 -50 71 -13 13 -23 28 -23
33 0 4 -15 21 -32 36 -18 15 -31 27 -28 28 19 4 -355 371 -379 371 -3 0 -18
11 -33 25 -37 35 -76 62 -107 77 -8 3 -22 14 -31 22 -24 23 -84 69 -92 71 -4
0 -21 14 -39 31 -17 16 -38 29 -47 29 -8 0 -12 3 -9 7 4 3 -4 12 -18 20 -14 7
-36 19 -50 26 -14 8 -22 16 -20 19 3 3 -8 11 -25 18 -16 7 -30 17 -30 22 0 5
-4 7 -9 3 -5 -3 -12 -1 -16 5 -4 6 -12 7 -18 4 -7 -4 -9 -3 -4 1 9 10 -71 57
-84 49 -5 -3 -9 2 -9 10 0 9 -9 16 -20 16 -11 0 -20 5 -20 11 0 5 -4 8 -9 5
-5 -4 -11 -1 -13 4 -3 10 -21 16 -51 19 -5 1 -6 5 -3 10 5 8 -40 26 -56 23 -5
-1 -8 2 -8 7 0 8 -83 44 -96 41 -4 -1 -10 3 -13 8 -3 6 -15 12 -26 14 -11 1
-22 6 -25 10 -3 3 -14 8 -25 10 -11 1 -22 5 -25 8 -5 5 -67 30 -85 34 -5 1
-20 7 -32 14 -12 7 -26 11 -30 10 -4 -1 -18 3 -30 10 -13 7 -23 9 -23 5 0 -4
-5 -2 -12 5 -7 7 -20 12 -30 12 -10 0 -18 4 -18 8 0 7 -26 12 -72 15 -9 1 -14
5 -12 9 5 7 -26 12 -63 11 -7 -1 -13 4 -13 9 0 6 -6 8 -14 5 -7 -3 -19 0 -25
6 -6 6 -11 7 -11 3 0 -5 -8 -2 -17 5 -15 12 -16 12 -8 -1 8 -13 7 -13 -9 0
-24 19 -68 19 -83 0 -10 -13 -11 -12 -10 5 2 22 -28 28 -52 10 -11 -7 -13 -7
-8 1 12 20 -71 38 -85 19 -5 -6 -8 -4 -8 5 0 9 -11 16 -27 17 -29 2 -74 9 -83
13 -14 6 -36 4 -42 -5 -5 -6 -8 -3 -8 6 0 10 -9 17 -25 18 -14 1 -36 2 -50 3
-14 1 -25 5 -25 9 0 4 -9 9 -20 12 -14 4 -20 0 -20 -11 0 -14 -2 -15 -9 -3 -5
8 -15 16 -23 17 -7 2 -25 6 -40 9 -15 3 -50 6 -78 8 -27 1 -50 5 -50 8 0 4
-10 7 -22 7 -26 0 -109 8 -183 17 -54 7 -431 12 -505 7z m4250 -2892 c0 -5 -2
-10 -4 -10 -3 0 -8 5 -11 10 -3 6 -1 10 4 10 6 0 11 -4 11 -10z m82 -177 c-8
-11 -16 -4 -18 17 -4 23 -3 24 8 5 6 -11 11 -21 10 -22z m41 -120 c-3 -7 -6
-13 -8 -13 -2 0 -5 6 -8 13 -3 8 1 14 8 14 7 0 11 -6 8 -14z m46 -107 c-3 -3
-11 5 -18 17 -13 21 -12 21 5 5 10 -10 16 -20 13 -22z m12 -33 c13 -16 12 -17
-3 -4 -10 7 -18 15 -18 17 0 8 8 3 21 -13z m-380 -1744 c9 -17 8 -20 -3 -14
-7 4 -3 -2 10 -14 24 -24 29 -36 10 -26 -7 4 -5 0 4 -8 10 -8 15 -17 11 -20
-3 -4 -1 -7 6 -7 7 0 9 -4 6 -10 -3 -5 -1 -10 4 -10 6 0 11 -9 11 -20 0 -11 7
-20 16 -20 8 0 12 -4 9 -10 -3 -5 -1 -10 5 -10 6 0 9 -4 5 -9 -3 -5 -1 -12 5
-16 5 -3 17 -21 26 -40 9 -19 20 -35 25 -35 5 0 9 -10 9 -22 0 -20 -1 -21 -20
-3 -13 12 -20 14 -20 5 0 -10 -3 -10 -15 0 -8 6 -19 9 -25 5 -5 -3 -10 -2 -10
4 0 6 -7 8 -15 5 -8 -4 -15 -1 -15 6 0 7 -8 10 -20 7 -11 -3 -20 -1 -20 4 0 5
-6 9 -12 9 -7 0 -21 14 -30 31 -10 16 -13 27 -8 24 8 -5 15 27 12 56 0 3 3 23
8 44 6 25 5 44 -1 51 -7 8 -6 14 1 19 6 3 8 11 5 16 -4 5 -1 9 5 9 6 0 8 5 5
10 -3 6 -4 10 -1 10 3 0 10 -10 17 -21z m-504 -1147 c19 -17 40 -29 45 -25 7
3 8 1 4 -5 -7 -11 6 -17 27 -13 5 1 6 -3 3 -7 -6 -10 121 -78 142 -76 6 1 12
-2 12 -6 0 -4 12 -10 28 -13 15 -3 47 -11 72 -17 25 -7 51 -13 58 -14 17 -3
16 -17 -3 -38 -8 -10 -12 -18 -9 -18 4 0 2 -6 -3 -12 -6 -7 -10 -25 -9 -40 1
-16 -2 -28 -7 -28 -5 0 -7 -9 -4 -20 3 -11 1 -20 -5 -20 -5 0 -6 -5 -2 -12 5
-8 2 -9 -11 -4 -15 5 -16 4 -6 -8 10 -12 8 -16 -8 -21 -12 -3 -21 -10 -21 -15
0 -4 -8 -7 -17 -6 -10 2 -26 -5 -36 -15 -11 -10 -25 -15 -33 -12 -8 3 -14 0
-14 -7 0 -7 -8 -10 -19 -7 -14 3 -18 1 -14 -9 4 -10 0 -12 -13 -7 -12 4 -15 3
-10 -5 7 -11 -6 -17 -27 -13 -5 1 -6 -2 -4 -6 8 -13 -20 -46 -32 -38 -7 3 -8
0 -5 -9 4 -10 0 -14 -15 -13 -12 1 -21 6 -21 12 0 5 -5 3 -10 -5 -7 -11 -10
-8 -10 16 0 16 6 36 13 43 10 11 9 13 -3 9 -12 -4 -15 3 -14 31 1 20 3 38 4
41 1 3 2 8 1 13 0 4 3 7 8 7 11 0 9 19 -3 39 -6 10 -5 12 2 7 13 -8 17 16 5
28 -4 4 -6 27 -4 51 2 32 -1 45 -11 45 -10 0 -9 3 2 10 11 7 11 10 2 10 -7 0
-10 5 -7 10 3 6 3 16 -2 23 -4 6 -8 14 -8 17 -5 40 -18 79 -25 75 -4 -3 -6 3
-3 14 3 10 0 22 -6 25 -6 4 -11 18 -11 32 0 13 -4 24 -10 24 -5 0 -10 5 -10
10 0 17 21 7 57 -28z m-7246 -5 c-10 -9 -11 -8 -5 6 3 10 9 15 12 12 3 -3 0
-11 -7 -18z m7000 -144 c2 1 3 0 2 -2 -1 -2 4 -16 12 -30 8 -14 24 -49 37 -78
12 -28 26 -50 30 -47 4 2 5 -5 3 -16 -2 -11 0 -20 5 -20 5 0 7 -7 4 -15 -4 -8
-1 -15 5 -15 6 0 10 -3 9 -7 -1 -5 4 -21 10 -36 8 -18 16 -26 24 -21 8 5 7 0
-2 -11 -8 -10 -10 -16 -4 -12 13 8 27 -19 18 -34 -3 -5 3 -9 13 -9 15 0 16 -2
3 -10 -8 -5 -10 -10 -3 -10 6 0 9 -9 6 -20 -3 -13 0 -20 8 -20 11 0 11 -2 -1
-10 -12 -8 -12 -10 -1 -10 8 0 11 -3 8 -7 -4 -3 -1 -13 5 -22 7 -9 9 -13 4 -9
-4 3 -16 -2 -27 -13 -20 -20 -59 -26 -59 -8 0 5 -5 7 -10 4 -6 -4 -8 -11 -5
-16 4 -5 -3 -9 -14 -9 -12 0 -21 -4 -21 -10 0 -5 -9 -10 -20 -10 -11 0 -20 -4
-20 -9 0 -4 -10 -8 -22 -7 -14 1 -22 -4 -20 -12 1 -8 -2 -11 -7 -7 -6 3 -7 13
-4 22 4 10 2 14 -5 9 -6 -3 -12 2 -14 15 -2 12 -16 26 -35 34 -27 12 -33 11
-50 -4 -10 -10 -23 -16 -30 -14 -6 2 -17 -3 -26 -11 -8 -8 -17 -12 -21 -9 -3
4 -6 1 -6 -6 0 -7 -4 -9 -10 -6 -5 3 -10 1 -10 -5 0 -6 -4 -8 -10 -5 -5 3 -10
1 -10 -4 0 -6 -3 -10 -7 -10 -5 1 -11 0 -15 -1 -14 -5 -28 -7 -40 -9 -18 -2
-74 -51 -70 -62 1 -5 -5 -10 -13 -10 -8 -1 -19 -2 -25 -3 -5 -1 -10 4 -9 9 1
6 5 9 11 7 5 -1 7 2 3 8 -3 5 1 13 9 16 9 3 13 10 10 16 -3 5 4 12 15 15 17 4
19 8 10 19 -10 12 -8 13 6 8 13 -5 16 -4 11 4 -4 7 -3 12 2 12 5 0 12 9 15 21
4 13 10 18 18 13 9 -5 10 -1 6 15 -3 13 -3 20 0 17 4 -3 15 1 25 11 10 9 18
13 18 8 0 -4 7 -2 15 5 12 10 15 10 15 0 0 -9 6 -8 19 4 10 10 22 13 25 8 7
-11 56 -3 56 9 0 5 3 8 8 7 14 -3 61 25 56 34 -3 5 2 8 12 6 11 -2 18 2 17 9
-2 7 4 10 12 7 8 -4 15 -1 15 7 0 7 3 10 6 7 7 -7 64 48 64 62 0 5 4 10 8 10
4 0 9 11 10 24 2 28 -24 42 -36 20 -5 -9 -12 -15 -15 -15 -22 3 -29 0 -24 -11
3 -9 -10 -14 -46 -15 -28 -1 -54 -7 -58 -15 -7 -10 -9 -10 -9 -1 0 13 -26 13
-47 0 -7 -5 -13 -4 -13 2 0 5 5 13 10 16 6 4 8 11 5 16 -4 5 -1 9 4 9 6 0 10
3 10 8 -4 21 2 32 14 26 7 -5 6 0 -3 11 -8 10 -10 16 -3 12 15 -9 31 20 28 50
-1 15 3 19 13 15 10 -3 13 -1 8 6 -3 6 -2 13 4 17 6 4 8 11 5 16 -4 5 -1 9 5
9 6 0 9 4 5 9 -3 5 -1 12 4 16 5 3 8 14 6 25 -3 13 0 18 7 14 8 -5 9 -1 5 10
-5 11 -3 15 5 10 7 -5 9 -2 5 8 -10 27 5 29 28 3 13 -13 24 -23 26 -22z
m-7216 -93 c-3 -5 -12 -10 -18 -10 -7 0 -6 4 3 10 19 12 23 12 15 0z m2114
-216 c-8 -9 -5 -11 10 -7 14 4 32 -7 63 -38 24 -23 42 -47 40 -52 -1 -4 2 -6
7 -2 6 3 18 -3 28 -14 9 -11 20 -18 24 -15 4 2 5 -6 2 -18 -5 -23 -5 -23 11
-3 13 16 15 17 10 3 -4 -11 -1 -18 5 -18 9 0 9 -5 0 -21 -6 -12 -9 -32 -6 -45
2 -13 1 -24 -2 -24 -4 0 -7 -9 -8 -20 -1 -13 2 -18 10 -13 7 3 4 -3 -6 -14
-14 -16 -15 -22 -5 -25 10 -4 10 -8 2 -19 -6 -8 -10 -24 -9 -36 1 -13 -2 -23
-6 -23 -5 0 -6 -7 -2 -16 4 -11 2 -15 -7 -12 -8 2 -17 17 -21 32 -4 16 -16 37
-25 47 -9 10 -14 19 -10 19 4 0 0 7 -8 16 -9 8 -14 20 -11 25 4 5 1 9 -5 9 -6
0 -8 5 -5 10 3 6 1 10 -5 10 -6 0 -9 4 -6 9 3 4 -1 16 -8 27 -8 10 -11 25 -8
33 3 9 1 12 -6 7 -7 -4 -12 -1 -12 9 0 9 -4 14 -8 11 -4 -2 -9 4 -10 15 -4 42
-6 48 -14 43 -4 -3 -8 2 -8 10 0 9 -5 16 -12 16 -6 0 -8 3 -5 7 4 3 1 14 -7
22 -23 25 -27 69 -8 80 21 12 55 -8 41 -25z m-535 -256 c-2 -3 1 -10 7 -13 5
-4 8 -13 5 -21 -3 -8 -2 -13 2 -11 4 1 8 -2 9 -7 1 -5 14 -17 30 -27 15 -10
24 -19 20 -19 -5 0 -2 -7 7 -15 8 -8 19 -15 25 -15 5 0 13 -9 16 -20 3 -11 13
-20 21 -20 8 0 13 -4 10 -9 -3 -5 1 -12 10 -15 8 -3 12 -10 9 -16 -3 -6 1 -7
9 -4 14 6 20 -5 14 -22 -2 -4 7 -10 20 -15 12 -5 22 -15 22 -24 0 -9 9 -15 21
-15 14 0 19 -5 16 -14 -3 -8 2 -20 11 -28 11 -9 14 -10 8 0 -4 6 -2 12 3 12 6
0 11 -12 12 -27 l1 -28 8 25 c7 22 8 22 9 4 1 -29 44 -67 58 -53 8 8 11 6 10
-7 -2 -13 18 -29 66 -55 37 -21 67 -35 67 -33 0 2 10 -2 23 -11 13 -8 27 -12
30 -8 4 3 8 1 8 -5 1 -7 2 -18 3 -24 3 -20 -23 -78 -45 -101 -10 -11 -19 -25
-19 -29 0 -5 -4 -7 -9 -4 -7 5 -8 -14 -2 -46 0 -4 12 -3 25 2 13 5 26 7 29 4
8 -8 97 35 103 51 4 8 13 15 22 15 8 0 12 3 9 7 -4 3 2 13 14 21 11 8 18 20
16 27 -4 8 3 12 16 11 12 -1 21 -7 20 -14 -2 -7 4 -12 13 -12 8 0 27 -13 41
-30 13 -16 31 -30 39 -30 8 0 14 -4 14 -10 0 -5 7 -10 15 -10 8 0 15 -4 15 -9
0 -8 37 -24 53 -22 4 1 7 -4 7 -10 0 -5 4 -8 9 -5 5 4 11 1 13 -4 2 -6 13 -12
26 -13 12 0 22 -5 22 -9 0 -4 7 -8 16 -8 8 0 12 -4 9 -10 -3 -6 1 -7 9 -4 10
4 16 1 16 -7 0 -8 -11 -14 -25 -14 -14 0 -25 3 -25 7 0 12 -64 -19 -69 -34 -4
-13 -64 -75 -68 -70 -6 5 -23 1 -22 -5 3 -19 -15 -53 -25 -50 -6 2 -19 0 -28
-4 -10 -6 -19 -5 -23 1 -4 6 -10 8 -15 5 -5 -3 -23 -8 -39 -10 -17 -2 -40 -7
-52 -10 -15 -5 -19 -4 -14 5 6 9 3 9 -14 1 -16 -9 -21 -9 -21 1 -1 8 -5 7 -14
-4 -14 -19 -32 -25 -21 -8 3 6 2 10 -4 10 -5 0 -13 -4 -16 -10 -3 -5 -12 -10
-18 -10 -7 0 -6 4 3 10 9 6 10 10 3 10 -6 0 -15 -5 -19 -11 -4 -8 -9 -7 -15 2
-7 12 -9 12 -9 0 0 -9 -7 -11 -22 -8 -15 4 -31 -1 -47 -16 -19 -16 -21 -17
-11 -3 14 18 12 17 -26 -2 -23 -12 -44 -18 -48 -15 -3 4 -6 1 -6 -6 0 -7 -4
-10 -8 -7 -13 8 -83 -19 -75 -29 5 -4 2 -5 -5 -1 -12 7 -155 -63 -177 -86 -7
-8 -6 -8 4 -3 9 5 12 4 7 -3 -4 -6 -12 -9 -19 -7 -13 5 -140 -79 -131 -88 3
-3 -12 -3 -34 -1 -43 4 -112 30 -112 42 1 10 30 47 30 37 0 -4 9 2 20 15 11
13 20 20 20 17 0 -4 20 13 44 38 24 24 47 41 52 37 4 -4 4 -2 1 4 -3 6 7 21
24 33 16 12 27 26 24 32 -4 5 -1 8 7 7 8 -2 13 7 14 22 1 36 -5 41 -28 29 -16
-9 -19 -8 -13 2 6 9 2 11 -13 7 -12 -3 -21 -3 -20 1 2 17 -3 25 -10 15 -5 -8
-13 -5 -27 8 -15 14 -16 18 -4 13 24 -9 92 22 83 37 -5 10 -4 10 6 1 10 -9 21
-6 51 14 22 14 39 29 39 34 0 4 9 11 21 14 11 4 18 9 15 12 -2 3 8 17 23 32
34 33 43 55 28 70 -9 10 -9 12 2 9 7 -2 15 6 17 16 3 23 -26 77 -38 70 -4 -3
-8 -1 -8 4 0 11 -70 41 -110 49 -13 2 -27 7 -30 11 -3 4 -12 9 -20 11 -30 7
-35 8 -50 13 -8 3 -46 15 -85 27 -38 13 -78 27 -87 32 -10 5 -22 9 -28 9 -6 0
-27 7 -48 17 -20 9 -40 15 -44 15 -5 -1 -8 5 -8 13 0 8 -4 15 -9 15 -5 0 -7 8
-4 19 3 10 0 22 -6 25 -6 4 -11 12 -11 17 0 6 5 7 12 3 7 -5 8 -3 2 7 -12 19
-14 89 -2 89 5 0 7 4 4 8 -2 4 20 18 50 31 30 13 54 28 54 33 0 5 4 7 9 4 4
-3 27 12 51 34 29 27 41 45 38 58 -4 15 0 18 18 16 13 -1 22 1 19 6 -3 5 6 17
20 28 14 11 21 23 16 26 -5 4 -14 -1 -19 -10 -5 -9 -13 -16 -18 -16 -5 0 -8
-4 -6 -10 1 -5 -3 -6 -9 -2 -8 5 -10 3 -4 -7 7 -12 6 -12 -6 -1 -12 11 -11 15
4 23 9 6 15 14 12 20 -3 5 0 6 8 3 8 -3 18 -1 21 4 4 6 22 2 45 -11 22 -12 37
-25 35 -29z m-416 -271 c11 -23 22 -56 23 -72 3 -24 0 -30 -16 -30 -11 -1 -23
4 -27 9 -3 5 -17 11 -30 13 -13 2 -25 8 -26 13 -2 6 -7 8 -12 5 -5 -3 -16 2
-24 11 -14 13 -19 14 -34 3 -9 -7 -14 -9 -10 -5 4 5 3 15 -3 23 -11 13 3 17
49 16 6 -1 12 3 12 8 0 5 5 9 11 9 5 0 7 -5 3 -12 -4 -7 -3 -8 4 -4 7 4 12 15
12 24 0 12 3 13 8 5 6 -9 12 -7 22 7 8 11 15 20 16 20 1 0 11 -19 22 -43z
m1480 27 c-4 -3 -2 -20 3 -37 10 -31 20 -80 21 -104 1 -7 4 -13 7 -13 4 0 8
-10 9 -22 2 -23 9 -59 12 -68 1 -3 2 -8 1 -12 0 -5 3 -8 8 -8 15 0 32 -58 19
-66 -12 -8 -53 -95 -50 -108 2 -4 -3 -15 -10 -24 -7 -9 -8 -13 -2 -9 6 3 11 0
11 -7 0 -8 -6 -12 -14 -9 -7 3 -13 14 -13 25 0 10 -4 16 -10 13 -5 -3 -10 -2
-10 4 0 5 -13 22 -30 38 -16 15 -30 33 -30 40 0 6 -9 15 -20 18 -11 4 -18 11
-15 16 4 5 -1 12 -9 15 -9 3 -13 10 -10 15 3 5 -2 12 -10 15 -9 3 -13 10 -10
15 3 5 -1 9 -8 9 -9 1 -8 4 3 13 9 7 14 18 11 26 -3 9 0 11 8 6 10 -6 12 -2 7
14 -3 13 -3 20 0 17 4 -3 12 -1 20 5 10 9 11 15 2 26 -10 11 -8 12 6 7 12 -5
16 -4 11 4 -3 6 -1 14 5 17 5 4 8 13 5 21 -3 8 -1 14 4 14 5 0 7 7 4 15 -4 10
-2 13 8 10 8 -3 21 2 29 12 13 16 12 17 -3 4 -12 -9 -18 -10 -18 -2 0 6 7 14
15 17 8 4 12 10 9 15 -3 5 1 9 8 9 9 0 9 3 -2 10 -12 8 -10 10 9 10 13 0 22
-3 19 -6z m-705 -117 c7 3 9 3 5 -2 -4 -4 -2 -15 4 -24 8 -10 4 -9 -10 3 -12
11 -22 24 -21 30 0 6 3 6 6 -2 2 -6 10 -9 16 -5z m5287 -437 c0 -5 -4 -10 -10
-10 -5 0 -10 5 -10 10 0 6 5 10 10 10 6 0 10 -4 10 -10z m-1623 -95 c0 -8 -6
-15 -14 -15 -17 0 -17 17 0 23 6 3 12 6 13 6 0 1 1 -6 1 -14z m1225 -92 c-5
-9 -6 -29 -2 -44 5 -15 6 -30 2 -33 -3 -3 0 -6 7 -6 8 0 11 -8 8 -20 -3 -11
-1 -20 3 -20 5 0 7 -8 6 -17 -2 -14 -13 -18 -52 -19 -113 -3 -159 -8 -166 -18
-5 -7 -8 -7 -8 2 0 8 -5 10 -12 5 -14 -8 -28 -11 -70 -15 -16 -1 -28 -5 -28
-8 0 -4 -10 -6 -22 -5 -13 1 -28 -2 -35 -7 -7 -5 -17 -7 -23 -3 -5 3 -10 1
-10 -4 0 -6 -7 -11 -16 -11 -20 0 -127 -50 -136 -64 -4 -6 -8 -8 -8 -3 0 10
-110 -64 -110 -75 0 -5 -4 -7 -9 -3 -5 3 -12 1 -16 -5 -4 -6 -11 -8 -16 -5 -8
6 -13 -9 -10 -28 1 -5 -3 -6 -9 -2 -6 4 -17 2 -24 -4 -7 -6 -20 -9 -28 -6 -17
7 -50 75 -36 75 5 0 6 5 3 11 -4 6 -1 9 6 8 8 -1 21 1 29 4 8 4 28 11 43 17
19 6 26 14 21 22 -5 9 -2 9 9 -1 11 -9 17 -10 17 -2 0 6 6 10 13 9 6 -2 11 5
11 15 -2 14 1 15 11 7 10 -8 16 -8 22 2 4 7 14 13 21 14 6 1 24 2 38 3 14 0
23 5 19 10 -3 5 0 13 6 17 8 4 9 3 5 -4 -10 -16 29 -16 46 1 7 6 18 12 23 12
20 1 95 37 95 46 0 5 9 9 20 9 11 0 20 3 20 8 0 6 19 16 85 42 11 4 31 12 45
18 48 20 65 25 74 23 5 -1 6 5 3 13 -4 9 -1 13 6 10 7 -2 39 7 72 20 33 13 61
25 63 25 2 1 -1 -6 -6 -16z m-4737 -13 c3 -6 -1 -7 -9 -4 -18 7 -21 14 -7 14
6 0 13 -4 16 -10z m-1029 -45 c1 -8 -2 -17 -7 -21 -5 -3 -9 0 -9 6 0 6 -4 8
-10 5 -5 -3 -10 0 -10 9 0 8 6 16 13 19 15 5 20 1 23 -18z m-736 -215 c0 -5
-5 -10 -11 -10 -5 0 -7 5 -4 10 3 6 8 10 11 10 2 0 4 -4 4 -10z m7690 -346 c0
-2 -7 -4 -15 -4 -8 0 -15 4 -15 10 0 5 7 7 15 4 8 -4 15 -8 15 -10z m85 -64
c10 -11 16 -20 13 -20 -3 0 -13 9 -23 20 -10 11 -16 20 -13 20 3 0 13 -9 23
-20z m472 -374 c-18 -14 -18 -15 0 -25 12 -7 13 -10 4 -11 -9 0 -10 -4 -5 -13
5 -7 2 -6 -6 3 -9 10 -22 19 -30 22 -11 3 -6 10 15 21 37 20 46 21 22 3z
m-162 -136 c3 -6 -1 -7 -9 -4 -18 7 -21 14 -7 14 6 0 13 -4 16 -10z m-100 -40
c-20 -22 -72 -25 -53 -3 6 7 16 13 22 13 6 0 4 -5 -4 -10 -13 -8 -13 -10 1
-10 9 0 22 7 29 15 7 8 15 15 18 15 3 0 -3 -9 -13 -20z m-165 -180 c9 -8 10
-11 3 -6 -10 6 -12 4 -7 -8 3 -9 1 -16 -5 -16 -6 0 -11 7 -11 15 0 8 -4 15 -9
15 -5 0 -11 12 -14 28 -3 15 -8 38 -11 52 -4 14 4 5 16 -20 13 -25 30 -52 38
-60z m-1753 -867 c-8 -15 -22 -41 -30 -58 -20 -36 -14 -84 13 -106 16 -14 17
-18 5 -23 -8 -3 -21 4 -30 17 -8 12 -15 17 -15 12 0 -6 -5 -3 -10 6 -5 9 -8
26 -5 37 5 28 76 155 82 148 3 -3 -2 -17 -10 -33z m303 -148 c-7 -8 -17 -15
-22 -15 -6 0 -5 7 2 15 7 8 17 15 22 15 6 0 5 -7 -2 -15z m-4585 -5 c-5 -8 8
-15 18 -8 1 1 11 -4 23 -10 16 -8 24 -8 34 1 12 10 12 9 1 -5 -10 -13 -18 -15
-31 -8 -13 7 -21 7 -25 0 -3 -5 -10 -10 -14 -10 -10 0 -21 37 -13 44 9 10 14
7 7 -4z m972 -55 c0 -8 -4 -15 -9 -15 -4 0 -8 7 -8 15 0 8 4 15 8 15 5 0 9 -7
9 -15z m1716 -5 c-3 -12 -8 -19 -11 -16 -5 6 5 36 12 36 2 0 2 -9 -1 -20z
m-125 -35 c-3 -3 -9 2 -12 12 -6 14 -5 15 5 6 7 -7 10 -15 7 -18z"/>
<path d="M4043 4472 c-8 -5 -7 -11 2 -19 10 -10 14 -9 19 2 6 17 -5 26 -21 17z"/>
<path d="M3350 3800 c0 -5 5 -10 11 -10 5 0 7 5 4 10 -3 6 -8 10 -11 10 -2 0
-4 -4 -4 -10z"/>
<path d="M3080 3880 c-9 -6 -10 -10 -3 -10 6 0 15 5 18 10 8 12 4 12 -15 0z"/>
<path d="M2234 7332 c3 -5 0 -13 -6 -15 -9 -4 -10 -6 -1 -6 17 -1 25 16 12 25
-7 4 -9 3 -5 -4z"/>
<path d="M2165 7091 c4 -8 2 -17 -6 -22 -9 -6 -10 -9 -2 -9 19 0 27 21 13 33
-10 9 -11 9 -5 -2z"/>
<path d="M10558 7003 c7 -3 16 -2 19 1 4 3 -2 6 -13 5 -11 0 -14 -3 -6 -6z"/>
<path d="M11700 5055 c-5 -7 -6 -16 -2 -21 4 -4 -1 -2 -10 5 -10 7 -18 9 -18
4 0 -5 -13 -9 -30 -8 -16 1 -30 -2 -30 -8 0 -5 -7 -6 -16 -3 -9 3 -12 2 -9 -5
4 -6 1 -9 -6 -8 -16 3 -79 -10 -94 -19 -5 -4 -14 -7 -20 -8 -40 -7 -95 -26
-91 -33 3 -4 -6 -6 -19 -3 -14 2 -25 0 -25 -4 0 -5 -14 -10 -32 -11 -17 -1
-34 -6 -37 -11 -3 -4 -15 -8 -26 -8 -11 0 -19 -6 -17 -13 1 -7 -2 -10 -7 -6
-16 9 -62 -6 -54 -19 4 -8 2 -7 -7 1 -8 7 -19 8 -29 3 -19 -10 -51 -22 -69
-26 -8 -1 -21 -6 -30 -10 -9 -4 -24 -9 -32 -11 -20 -5 -32 -9 -50 -16 -30 -11
-89 -28 -117 -33 -15 -3 -30 -8 -33 -12 -3 -4 -16 -8 -30 -9 -50 -5 -60 -7
-60 -17 0 -6 -5 -5 -11 1 -16 16 -65 -36 -74 -76 -4 -17 -11 -31 -17 -31 -5 0
-2 -7 6 -16 21 -21 20 -27 -3 -15 -16 9 -18 8 -14 -9 3 -11 10 -17 16 -13 6 3
7 1 3 -5 -4 -7 -14 -12 -22 -12 -8 0 -12 -5 -9 -10 4 -6 11 -8 16 -5 5 3 6 -1
3 -9 -3 -9 -10 -16 -16 -16 -5 0 -6 5 -2 12 4 7 3 8 -5 4 -9 -6 -9 -11 1 -24
10 -12 10 -14 1 -8 -7 4 -13 2 -13 -3 0 -6 -4 -11 -10 -11 -5 0 -7 8 -3 18 3
9 4 15 2 12 -37 -44 -42 -53 -29 -46 8 4 6 0 -4 -8 -11 -9 -16 -16 -12 -16 5
0 3 -6 -3 -13 -6 -8 -8 -17 -4 -20 3 -4 1 -7 -6 -7 -7 0 -10 -4 -6 -9 3 -5 1
-12 -5 -16 -5 -3 -10 -15 -10 -26 0 -10 -4 -19 -8 -19 -7 0 -12 -19 -15 -62
-1 -10 -4 -18 -8 -18 -8 0 -20 -62 -24 -117 -1 -18 2 -30 7 -27 4 3 8 -1 8
-10 0 -8 -3 -16 -7 -19 -5 -2 -3 -2 4 -1 7 2 15 -1 19 -7 4 -6 11 -5 21 3 9 7
19 12 22 10 3 -1 14 5 24 13 9 8 17 10 17 5 0 -6 5 -10 11 -10 5 0 8 4 5 8 -2
4 7 8 22 7 15 0 30 4 34 9 3 5 15 11 25 12 34 5 52 10 59 17 4 4 16 7 26 7 11
0 17 4 14 9 -4 5 3 7 14 4 11 -3 20 0 20 6 0 5 6 8 14 5 8 -3 17 0 21 5 3 6
11 9 16 6 5 -4 12 0 15 8 3 9 13 13 26 9 14 -3 19 -1 14 6 -4 7 1 10 14 7 13
-3 20 1 20 12 0 10 6 14 20 10 13 -3 18 -1 13 6 -4 7 0 8 11 4 13 -5 17 -3 13
6 -3 8 4 14 21 15 14 1 28 5 31 10 3 4 15 9 25 10 18 3 19 2 5 -15 -13 -16
-13 -17 4 -4 9 7 17 10 17 6 0 -4 7 -2 15 5 8 7 13 15 11 19 -3 4 4 13 16 20
16 10 19 10 13 -1 -5 -7 2 -3 14 10 12 12 30 22 40 22 24 0 55 35 45 51 -4 7
-3 10 3 6 14 -9 61 35 55 51 -2 7 3 12 12 12 18 0 39 33 28 46 -4 5 2 2 12 -6
17 -14 18 -13 12 8 -6 17 -4 21 7 16 8 -3 18 0 23 7 4 8 3 10 -4 5 -7 -4 -12
-2 -12 4 0 6 -5 8 -12 4 -7 -4 -8 -3 -4 4 4 6 14 8 23 5 9 -4 21 0 27 9 6 8
20 20 31 26 11 6 14 12 7 12 -7 0 -10 5 -7 10 4 6 11 7 17 4 7 -4 8 -2 4 4 -3
6 3 16 15 22 11 7 18 14 15 18 -3 3 -16 -4 -29 -16 -16 -15 -26 -18 -37 -11
-12 8 -11 9 5 7 12 -2 19 2 17 10 -1 8 2 11 7 8 5 -3 12 1 15 10 3 9 13 14 21
10 20 -7 28 10 15 34 -6 11 -7 19 -3 18 17 -4 61 25 56 37 -2 7 5 16 16 20 12
3 19 10 16 15 -3 4 2 11 11 14 8 3 13 10 9 15 -3 5 0 13 6 17 8 5 10 2 5 -7
-4 -8 6 1 23 20 17 19 28 38 25 43 -3 5 -2 7 3 6 11 -3 53 25 53 35 0 4 11 19
25 33 19 19 23 29 16 38 -6 7 -9 15 -6 18 3 2 -2 5 -10 5 -8 0 -20 -6 -25 -12z
m-10 -51 c0 -8 -4 -12 -10 -9 -5 3 -10 10 -10 16 0 5 5 9 10 9 6 0 10 -7 10
-16z m-212 -289 c-3 -3 -9 2 -12 12 -6 14 -5 15 5 6 7 -7 10 -15 7 -18z m-72
-77 c0 -12 -36 -54 -36 -43 0 6 31 55 34 55 2 0 3 -6 2 -12z m-326 -323 c0
-12 -19 -12 -23 0 -4 9 -1 12 9 8 7 -3 14 -7 14 -8z m-440 -126 c12 -8 10 -9
-9 -4 -16 5 -21 4 -17 -4 5 -7 1 -8 -9 -4 -13 5 -14 7 -3 14 17 11 20 11 38
-2z m-66 -23 c-3 -8 -13 -12 -23 -9 -10 2 -24 -2 -32 -9 -8 -7 -23 -13 -34
-13 -11 0 -27 -4 -35 -10 -9 -5 -7 0 4 13 11 12 21 20 24 17 3 -3 11 0 19 6 7
6 13 9 13 6 0 -3 12 -2 28 3 39 12 42 12 36 -4z"/>
<path d="M10740 4949 c-21 -24 -27 -25 -69 -17 -65 12 -80 -5 -53 -59 15 -28
17 -44 11 -56 -12 -21 -17 -21 112 6 102 21 106 23 96 44 -5 12 -18 24 -29 27
-13 3 -19 10 -15 20 3 8 -2 25 -12 38 l-19 22 -22 -25z"/>
<path d="M11495 4751 c-3 -5 -2 -12 3 -15 5 -3 9 1 9 9 0 17 -3 19 -12 6z"/>
<path d="M2490 4643 c0 -18 -11 -36 -32 -54 l-33 -27 23 -31 c12 -16 22 -41
22 -55 0 -27 23 -56 45 -56 7 0 26 13 43 28 17 16 38 27 47 26 11 -2 15 2 11
13 -5 13 -4 14 9 3 12 -10 16 -9 21 6 4 11 9 22 11 26 2 4 -2 5 -10 2 -18 -6
-16 34 2 46 8 4 10 13 6 20 -5 8 -4 11 2 7 17 -10 25 25 10 40 -10 10 -25 11
-60 4 -42 -7 -49 -6 -58 10 -5 11 -20 19 -34 19 -20 0 -25 -5 -25 -27z"/>
<path d="M2365 4300 c3 -5 8 -10 11 -10 2 0 4 5 4 10 0 6 -5 10 -11 10 -5 0
-7 -4 -4 -10z"/>
<path d="M2427 4239 c7 -7 15 -10 18 -7 3 3 -2 9 -12 12 -14 6 -15 5 -6 -5z"/>
<path d="M11053 3973 c-7 -3 -13 -12 -13 -21 0 -10 -10 -22 -22 -27 -33 -14
-33 -38 0 -72 15 -17 28 -42 29 -55 1 -74 9 -84 43 -53 15 14 20 13 43 -6 15
-11 37 -19 49 -17 33 4 37 66 8 114 -22 34 -22 35 -4 56 11 12 13 18 5 13 -11
-6 -13 -3 -9 11 4 16 -1 19 -35 21 -23 2 -50 11 -61 22 -12 10 -27 16 -33 14z"/>
<path d="M2198 3671 c-15 -21 -15 -21 -62 -21 -39 0 -51 -18 -34 -55 9 -20 8
-28 -6 -44 -23 -25 -32 -87 -16 -106 17 -20 36 -19 70 5 24 17 29 18 40 5 18
-21 40 -19 41 5 1 11 3 25 4 30 1 6 3 18 4 28 0 9 12 30 26 46 14 16 25 35 25
41 0 16 -25 37 -33 28 -6 -6 -11 11 -8 29 0 4 -8 12 -19 18 -15 8 -22 6 -32
-9z"/>
<path d="M10424 3581 c-9 -9 -14 -10 -10 -3 5 7 1 12 -9 12 -10 0 -13 -5 -9
-12 6 -10 5 -10 -8 -1 -8 7 -18 10 -22 6 -11 -11 -36 -12 -36 -2 0 6 -6 7 -12
2 -15 -9 -25 -10 -106 -17 -35 -2 -66 -7 -69 -10 -3 -2 -15 -1 -28 4 -14 5
-26 5 -34 -3 -8 -8 -11 -8 -11 2 0 7 -5 9 -12 5 -19 -12 -48 -12 -48 -1 0 5
-7 4 -15 -3 -8 -7 -15 -8 -15 -3 0 19 -82 2 -106 -21 -31 -30 -74 -66 -74 -61
0 3 -10 -5 -22 -17 -13 -13 -22 -27 -20 -31 1 -5 -3 -5 -9 -1 -6 3 -22 -6 -35
-21 -13 -16 -24 -24 -24 -20 0 5 -10 -1 -21 -14 -16 -17 -28 -21 -46 -16 -33
8 -58 -11 -39 -30 7 -7 24 -15 37 -17 13 -1 27 -7 30 -12 4 -4 20 -9 37 -9 17
-1 28 -5 26 -8 -2 -4 15 -10 39 -14 40 -8 47 -9 65 -15 4 -1 11 -2 16 -1 4 1
13 -2 20 -8 6 -5 27 -11 46 -14 19 -3 54 -11 77 -20 30 -10 44 -11 47 -3 2 6
5 3 5 -6 1 -10 6 -18 12 -18 5 0 8 4 5 9 -12 18 21 18 45 0 26 -20 59 -25 59
-9 0 6 3 9 8 9 22 -4 34 3 28 16 -3 8 -2 15 2 15 4 0 16 14 27 30 11 16 26 30
33 30 7 0 10 5 7 10 -3 6 -2 10 3 10 5 0 20 10 33 21 13 12 44 38 68 58 25 20
56 46 69 59 14 12 29 22 34 22 5 0 6 5 3 10 -3 6 -2 10 4 10 17 0 63 48 56 59
-4 7 1 8 12 5 14 -5 12 0 -7 18 -14 14 -27 26 -30 26 -3 0 -7 1 -10 2 -21 8
-52 4 -66 -9z"/>
<path d="M10906 2985 c-13 -30 -20 -35 -49 -35 -57 0 -64 -22 -23 -64 20 -19
37 -44 37 -56 3 -48 18 -80 38 -80 9 0 27 9 39 20 18 17 25 18 47 8 20 -9 31
-8 50 2 19 10 22 16 13 22 -10 6 -10 8 1 8 10 0 12 10 7 40 -4 28 -2 47 8 63
21 32 5 52 -41 53 -28 0 -46 8 -65 27 -35 35 -45 34 -62 -8z"/>
<path d="M2310 2700 c-18 -25 -25 -28 -36 -19 -10 8 -14 8 -14 0 0 -7 -10 -10
-24 -7 -36 7 -53 -18 -33 -48 12 -18 15 -38 11 -73 -8 -64 8 -80 66 -65 33 8
41 7 56 -9 26 -29 50 -24 63 12 6 18 11 40 11 51 0 10 16 35 36 54 41 42 34
64 -23 64 -29 0 -36 5 -49 35 -18 43 -36 44 -64 5z"/>
<path d="M10362 2632 c-13 -2 -20 -8 -16 -14 5 -8 1 -9 -11 -4 -13 5 -15 3 -9
-6 5 -7 9 -22 9 -33 0 -12 18 -33 45 -54 25 -19 47 -38 48 -43 2 -4 10 -8 18
-8 8 0 14 -3 14 -8 0 -4 29 -30 65 -57 36 -27 65 -53 65 -57 0 -5 4 -7 8 -4 5
3 15 -4 22 -15 8 -10 19 -19 25 -19 6 0 17 -9 25 -20 8 -11 20 -20 27 -20 7 0
13 -5 13 -11 0 -5 4 -8 9 -4 5 3 16 -2 24 -10 9 -8 19 -15 23 -15 4 0 18 -9
30 -21 12 -11 30 -22 40 -24 11 -1 18 -9 16 -16 -3 -10 1 -9 15 2 10 9 25 14
33 11 13 -5 13 -3 0 13 -15 18 -14 18 13 1 15 -10 27 -15 27 -11 0 4 6 2 14
-4 11 -10 16 -9 24 5 7 13 10 14 14 2 6 -14 62 -17 75 -4 4 3 12 1 19 -5 8 -6
21 -9 29 -5 8 3 15 0 15 -6 0 -7 4 -7 14 1 11 9 16 9 22 0 5 -9 10 -7 15 7 7
18 8 18 8 -1 1 -17 3 -17 11 -5 6 9 10 10 10 3 0 -6 9 -10 20 -8 11 2 22 -1
26 -7 4 -6 10 -5 15 3 5 8 9 9 9 3 0 -6 17 -11 38 -12 51 -3 94 -9 116 -18 12
-5 17 -4 13 3 -3 5 0 10 8 10 8 0 12 -3 10 -7 -3 -4 32 -8 77 -9 45 -1 85 -4
89 -7 4 -2 10 0 14 6 4 6 10 8 15 5 4 -3 13 1 19 9 16 19 -20 61 -64 77 -19 7
-35 17 -35 21 0 4 -5 8 -10 8 -6 0 -22 11 -36 25 -14 14 -39 28 -55 32 -16 3
-29 9 -29 13 0 4 -18 13 -40 20 -22 7 -40 17 -40 22 0 4 -6 8 -12 8 -7 0 -24
9 -38 20 -14 11 -33 20 -42 20 -10 0 -18 4 -18 8 0 5 -12 15 -27 23 -16 7 -44
23 -63 35 -19 12 -39 23 -45 24 -5 2 -16 10 -23 17 -13 13 -33 17 -61 14 -8
-2 -10 2 -5 10 5 9 2 10 -10 6 -9 -4 -15 -3 -11 3 3 5 -12 16 -32 25 -21 9
-45 20 -54 25 -10 5 -21 4 -29 -3 -10 -9 -11 -9 -6 0 4 7 0 12 -11 12 -96 -1
-436 16 -478 24 -11 2 -30 1 -43 -1z m1228 -455 c0 -4 6 -5 13 -1 6 4 9 3 4
-1 -10 -11 -57 -13 -57 -2 0 4 -5 5 -12 1 -7 -4 -8 -3 -4 4 8 13 56 12 56 -1z"/>
<path d="M2910 2332 c0 -12 -5 -22 -11 -22 -5 0 -7 5 -4 10 3 6 1 10 -4 10 -6
0 -11 -6 -11 -12 0 -9 -3 -8 -10 2 -13 20 -130 21 -148 0 -10 -13 -11 -12 -6
5 5 18 4 18 -6 2 -6 -9 -8 -22 -4 -29 5 -7 3 -8 -5 -4 -7 5 -10 14 -7 21 4 10
-6 14 -35 13 -29 0 -39 -5 -40 -17 -1 -9 -4 -5 -9 9 -4 14 -8 20 -9 13 -1 -7
-8 -10 -18 -6 -10 4 -14 2 -10 -4 4 -6 -10 -9 -38 -8 -25 1 -45 -2 -45 -7 0
-4 -4 -7 -8 -6 -4 2 -23 -9 -41 -24 -18 -16 -28 -28 -22 -28 6 0 20 9 31 20
15 15 20 16 20 6 0 -8 -9 -18 -20 -21 -11 -3 -20 -11 -20 -16 0 -6 -5 -7 -10
-4 -10 6 -71 -38 -70 -50 0 -3 -9 -14 -20 -25 -11 -11 -20 -17 -20 -12 -1 4
-7 -4 -15 -18 -8 -14 -14 -22 -15 -17 0 4 -17 -12 -37 -35 -84 -94 -160 -167
-167 -160 -4 4 -6 2 -5 -3 5 -15 -24 -55 -40 -55 -8 0 -12 -3 -8 -6 3 -3 -22
-33 -56 -66 -34 -33 -61 -64 -59 -69 1 -6 -2 -8 -7 -5 -10 7 -33 -18 -26 -27
3 -4 2 -5 -1 -3 -8 6 -52 -37 -47 -46 2 -5 -1 -8 -7 -8 -6 0 -8 -4 -5 -10 3
-5 13 -10 21 -10 8 0 13 4 10 8 -3 5 1 9 9 9 8 0 15 -5 15 -11 0 -5 7 -1 15
10 8 10 15 15 15 11 0 -4 6 -2 14 5 8 7 12 16 9 20 -2 4 3 5 11 2 8 -3 30 1
48 9 39 18 69 29 83 32 29 7 114 48 111 54 -3 4 7 7 22 6 15 0 30 4 33 9 4 5
15 9 25 10 32 3 94 27 94 37 0 6 3 8 8 6 10 -7 144 48 136 55 -3 4 3 4 15 1
12 -3 21 -1 21 6 0 6 3 10 8 9 13 -4 112 36 103 41 -5 4 16 7 47 8 67 3 90 22
116 93 10 27 22 50 27 50 5 0 8 3 7 8 -4 13 13 52 23 52 5 0 9 9 9 20 0 11 5
20 11 20 6 0 9 7 5 15 -3 8 -1 15 5 15 6 0 7 5 4 10 -3 6 -1 10 5 10 7 0 9 7
6 17 -4 10 -4 14 0 10 7 -7 44 29 44 43 0 4 -9 15 -20 25 -19 18 -20 17 -20
-3z m-114 -14 c4 -7 4 -10 -1 -6 -4 4 -14 3 -21 -3 -8 -7 -14 -6 -20 2 -4 7
-3 9 4 5 6 -3 13 -2 17 4 8 13 12 13 21 -2z m54 1 c0 -4 -9 -7 -19 -6 -11 0
-18 4 -16 7 6 9 35 8 35 -1z m-353 -33 c-13 -14 -16 -14 -21 0 -3 8 -2 12 3 9
5 -3 13 0 16 6 4 5 9 8 12 5 3 -3 -1 -12 -10 -20z m-489 -550 c-10 -7 -14 -17
-10 -22 4 -4 -1 -2 -11 5 -14 11 -15 16 -5 22 7 5 20 9 28 9 12 -1 12 -3 -2
-14z"/>
<path d="M10766 2212 c-3 -5 1 -9 9 -9 8 0 12 4 9 9 -3 4 -7 8 -9 8 -2 0 -6
-4 -9 -8z"/>
<path d="M2944 1842 c-6 -4 -16 -16 -22 -27 -6 -13 -22 -22 -42 -23 -37 -3
-70 -18 -70 -32 0 -6 9 -18 20 -27 14 -12 20 -30 20 -60 0 -56 22 -70 67 -42
26 16 35 18 51 8 32 -20 55 -4 47 31 -5 24 -1 37 19 61 38 44 35 69 -8 69 -28
0 -35 4 -38 22 -3 24 -25 34 -44 20z"/>
<path d="M4052 724 c10 -10 20 -16 22 -13 3 3 -5 11 -17 18 -21 13 -21 12 -5
-5z"/>
<path d="M4105 720 c3 -5 8 -10 11 -10 2 0 4 5 4 10 0 6 -5 10 -11 10 -5 0 -7
-4 -4 -10z"/>
<path d="M8705 720 c-3 -6 1 -7 9 -4 18 7 21 14 7 14 -6 0 -13 -4 -16 -10z"/>
<path d="M8840 726 c0 -2 8 -10 18 -17 15 -13 16 -12 3 4 -13 16 -21 21 -21
13z"/>
<path d="M4119 673 c-13 -16 -12 -17 4 -4 16 13 21 21 13 21 -2 0 -10 -8 -17
-17z"/>
</g>
</svg>
