<svg xmlns="http://www.w3.org/2000/svg" viewBox="0 0 248 248"><path fill="rgba(255,255,255,0.7)" d="M0 0h248v248H0V0z"/><path d="M8 8h8v8H8V8zm8 0h8v8h-8V8zm8 0h8v8h-8V8zm8 0h8v8h-8V8zm8 0h8v8h-8V8zm8 0h8v8h-8V8zm8 0h8v8h-8V8zm32 0h8v8h-8V8zm16 0h8v8h-8V8zm24 0h8v8h-8V8zm8 0h8v8h-8V8zm16 0h8v8h-8V8zm8 0h8v8h-8V8zm8 0h8v8h-8V8zm16 0h8v8h-8V8zm8 0h8v8h-8V8zm8 0h8v8h-8V8zm8 0h8v8h-8V8zm8 0h8v8h-8V8zm8 0h8v8h-8V8zm8 0h8v8h-8V8zM8 16h8v8H8v-8zm48 0h8v8h-8v-8zm16 0h8v8h-8v-8zm16 0h8v8h-8v-8zm24 0h8v8h-8v-8zm8 0h8v8h-8v-8zm24 0h8v8h-8v-8zm24 0h8v8h-8v-8zm16 0h8v8h-8v-8zm48 0h8v8h-8v-8zM8 24h8v8H8v-8zm16 0h8v8h-8v-8zm8 0h8v8h-8v-8zm8 0h8v8h-8v-8zm16 0h8v8h-8v-8zm48 0h8v8h-8v-8zm32 0h8v8h-8v-8zm16 0h8v8h-8v-8zm8 0h8v8h-8v-8zm8 0h8v8h-8v-8zm16 0h8v8h-8v-8zm16 0h8v8h-8v-8zm8 0h8v8h-8v-8zm8 0h8v8h-8v-8zm16 0h8v8h-8v-8zM8 32h8v8H8v-8zm16 0h8v8h-8v-8zm8 0h8v8h-8v-8zm8 0h8v8h-8v-8zm16 0h8v8h-8v-8zm16 0h8v8h-8v-8zm8 0h8v8h-8v-8zm8 0h8v8h-8v-8zm16 0h8v8h-8v-8zm8 0h8v8h-8v-8zm32 0h8v8h-8v-8zm16 0h8v8h-8v-8zm24 0h8v8h-8v-8zm16 0h8v8h-8v-8zm8 0h8v8h-8v-8zm8 0h8v8h-8v-8zm16 0h8v8h-8v-8zM8 40h8v8H8v-8zm16 0h8v8h-8v-8zm8 0h8v8h-8v-8zm8 0h8v8h-8v-8zm16 0h8v8h-8v-8zm24 0h8v8h-8v-8zm64 0h8v8h-8v-8zm8 0h8v8h-8v-8zm8 0h8v8h-8v-8zm24 0h8v8h-8v-8zm16 0h8v8h-8v-8zm8 0h8v8h-8v-8zm8 0h8v8h-8v-8zm16 0h8v8h-8v-8zM8 48h8v8H8v-8zm48 0h8v8h-8v-8zm16 0h8v8h-8v-8zm8 0h8v8h-8v-8zm16 0h8v8h-8v-8zm8 0h8v8h-8v-8zm8 0h8v8h-8v-8zm8 0h8v8h-8v-8zm16 0h8v8h-8v-8zm8 0h8v8h-8v-8zm8 0h8v8h-8v-8zm16 0h8v8h-8v-8zm16 0h8v8h-8v-8zm48 0h8v8h-8v-8zM8 56h8v8H8v-8zm8 0h8v8h-8v-8zm8 0h8v8h-8v-8zm8 0h8v8h-8v-8zm8 0h8v8h-8v-8zm8 0h8v8h-8v-8zm8 0h8v8h-8v-8zm16 0h8v8h-8v-8zm16 0h8v8h-8v-8zm16 0h8v8h-8v-8zm16 0h8v8h-8v-8zm16 0h8v8h-8v-8zm16 0h8v8h-8v-8zm16 0h8v8h-8v-8zm16 0h8v8h-8v-8zm8 0h8v8h-8v-8zm8 0h8v8h-8v-8zm8 0h8v8h-8v-8zm8 0h8v8h-8v-8zm8 0h8v8h-8v-8zm8 0h8v8h-8v-8zM80 64h8v8h-8v-8zm8 0h8v8h-8v-8zm8 0h8v8h-8v-8zm24 0h8v8h-8v-8zm8 0h8v8h-8v-8zm8 0h8v8h-8v-8zm32 0h8v8h-8v-8zM8 72h8v8H8v-8zm8 0h8v8h-8v-8zm8 0h8v8h-8v-8zm8 0h8v8h-8v-8zm8 0h8v8h-8v-8zm16 0h8v8h-8v-8zm8 0h8v8h-8v-8zm8 0h8v8h-8v-8zm8 0h8v8h-8v-8zm16 0h8v8h-8v-8zm16 0h8v8h-8v-8zm32 0h8v8h-8v-8zm16 0h8v8h-8v-8zm16 0h8v8h-8v-8zm16 0h8v8h-8v-8zm16 0h8v8h-8v-8zm16 0h8v8h-8v-8zM8 80h8v8H8v-8zm32 0h8v8h-8v-8zm8 0h8v8h-8v-8zm16 0h8v8h-8v-8zm24 0h8v8h-8v-8zm16 0h8v8h-8v-8zm8 0h8v8h-8v-8zm16 0h8v8h-8v-8zm8 0h8v8h-8v-8zm8 0h8v8h-8v-8zm16 0h8v8h-8v-8zm8 0h8v8h-8v-8zm8 0h8v8h-8v-8zm8 0h8v8h-8v-8zm8 0h8v8h-8v-8zm8 0h8v8h-8v-8zm32 0h8v8h-8v-8zM8 88h8v8H8v-8zm48 0h8v8h-8v-8zm8 0h8v8h-8v-8zm24 0h8v8h-8v-8zm32 0h8v8h-8v-8zm16 0h8v8h-8v-8zm16 0h8v8h-8v-8zm16 0h8v8h-8v-8zm16 0h8v8h-8v-8zm8 0h8v8h-8v-8zm8 0h8v8h-8v-8zM8 96h8v8H8v-8zm16 0h8v8h-8v-8zm8 0h8v8h-8v-8zm16 0h8v8h-8v-8zm16 0h8v8h-8v-8zm8 0h8v8h-8v-8zm32 0h8v8h-8v-8zm24 0h8v8h-8v-8zm8 0h8v8h-8v-8zm16 0h8v8h-8v-8zm8 0h8v8h-8v-8zm8 0h8v8h-8v-8zm8 0h8v8h-8v-8zm24 0h8v8h-8v-8zm8 0h8v8h-8v-8zm16 0h8v8h-8v-8zM8 104h8v8H8v-8zm24 0h8v8h-8v-8zm24 0h8v8h-8v-8zm16 0h8v8h-8v-8zm8 0h8v8h-8v-8zm8 0h8v8h-8v-8zm16 0h8v8h-8v-8zm16 0h8v8h-8v-8zm32 0h8v8h-8v-8zm8 0h8v8h-8v-8zm48 0h8v8h-8v-8zm8 0h8v8h-8v-8zM8 112h8v8H8v-8zm16 0h8v8h-8v-8zm16 0h8v8h-8v-8zm120 0h8v8h-8v-8zm8 0h8v8h-8v-8zm8 0h8v8h-8v-8zm8 0h8v8h-8v-8zm8 0h8v8h-8v-8zm8 0h8v8h-8v-8zm32 0h8v8h-8v-8zm-208 8h8v8h-8v-8zm8 0h8v8h-8v-8zm8 0h8v8h-8v-8zm16 0h8v8h-8v-8zm8 0h8v8h-8v-8zm32 0h8v8h-8v-8zm8 0h8v8h-8v-8zm8 0h8v8h-8v-8zm8 0h8v8h-8v-8zm32 0h8v8h-8v-8zm16 0h8v8h-8v-8zm8 0h8v8h-8v-8zm8 0h8v8h-8v-8zm24 0h8v8h-8v-8zm8 0h8v8h-8v-8zm-200 8h8v8h-8v-8zm64 0h8v8h-8v-8zm16 0h8v8h-8v-8zm16 0h8v8h-8v-8zm24 0h8v8h-8v-8zm16 0h8v8h-8v-8zm8 0h8v8h-8v-8zm32 0h8v8h-8v-8zm32 0h8v8h-8v-8zm-208 8h8v8h-8v-8zm16 0h8v8h-8v-8zm8 0h8v8h-8v-8zm8 0h8v8h-8v-8zm8 0h8v8h-8v-8zm8 0h8v8h-8v-8zm24 0h8v8h-8v-8zm8 0h8v8h-8v-8zm8 0h8v8h-8v-8zm8 0h8v8h-8v-8zm40 0h8v8h-8v-8zm56 0h8v8h-8v-8zm8 0h8v8h-8v-8zM8 144h8v8H8v-8zm8 0h8v8h-8v-8zm8 0h8v8h-8v-8zm8 0h8v8h-8v-8zm40 0h8v8h-8v-8zm8 0h8v8h-8v-8zm8 0h8v8h-8v-8zm16 0h8v8h-8v-8zm8 0h8v8h-8v-8zm16 0h8v8h-8v-8zm8 0h8v8h-8v-8zm24 0h8v8h-8v-8zm8 0h8v8h-8v-8zm16 0h8v8h-8v-8zm16 0h8v8h-8v-8zm16 0h8v8h-8v-8zm16 0h8v8h-8v-8zM8 152h8v8H8v-8zm40 0h8v8h-8v-8zm8 0h8v8h-8v-8zm8 0h8v8h-8v-8zm24 0h8v8h-8v-8zm16 0h8v8h-8v-8zm8 0h8v8h-8v-8zm8 0h8v8h-8v-8zm16 0h8v8h-8v-8zm40 0h8v8h-8v-8zm40 0h8v8h-8v-8zM8 160h8v8H8v-8zm16 0h8v8h-8v-8zm24 0h8v8h-8v-8zm16 0h8v8h-8v-8zm8 0h8v8h-8v-8zm16 0h8v8h-8v-8zm16 0h8v8h-8v-8zm16 0h8v8h-8v-8zm8 0h8v8h-8v-8zm8 0h8v8h-8v-8zm16 0h8v8h-8v-8zm8 0h8v8h-8v-8zm8 0h8v8h-8v-8zm8 0h8v8h-8v-8zm24 0h8v8h-8v-8zm24 0h8v8h-8v-8zM8 168h8v8H8v-8zm24 0h8v8h-8v-8zm8 0h8v8h-8v-8zm16 0h8v8h-8v-8zm32 0h8v8h-8v-8zm16 0h8v8h-8v-8zm8 0h8v8h-8v-8zm32 0h8v8h-8v-8zm8 0h8v8h-8v-8zm8 0h8v8h-8v-8zm8 0h8v8h-8v-8zm8 0h8v8h-8v-8zm8 0h8v8h-8v-8zm8 0h8v8h-8v-8zm8 0h8v8h-8v-8zm16 0h8v8h-8v-8zm8 0h8v8h-8v-8zm8 0h8v8h-8v-8zm-160 8h8v8h-8v-8zm16 0h8v8h-8v-8zm24 0h8v8h-8v-8zm16 0h8v8h-8v-8zm8 0h8v8h-8v-8zm16 0h8v8h-8v-8zm16 0h8v8h-8v-8zm32 0h8v8h-8v-8zm8 0h8v8h-8v-8zm8 0h8v8h-8v-8zm8 0h8v8h-8v-8zm8 0h8v8h-8v-8zM8 184h8v8H8v-8zm8 0h8v8h-8v-8zm8 0h8v8h-8v-8zm8 0h8v8h-8v-8zm8 0h8v8h-8v-8zm8 0h8v8h-8v-8zm8 0h8v8h-8v-8zm16 0h8v8h-8v-8zm8 0h8v8h-8v-8zm16 0h8v8h-8v-8zm8 0h8v8h-8v-8zm16 0h8v8h-8v-8zm16 0h8v8h-8v-8zm16 0h8v8h-8v-8zm8 0h8v8h-8v-8zm8 0h8v8h-8v-8zm16 0h8v8h-8v-8zm16 0h8v8h-8v-8zm8 0h8v8h-8v-8zm8 0h8v8h-8v-8zM8 192h8v8H8v-8zm48 0h8v8h-8v-8zm32 0h8v8h-8v-8zm40 0h8v8h-8v-8zm8 0h8v8h-8v-8zm32 0h8v8h-8v-8zm32 0h8v8h-8v-8zM8 200h8v8H8v-8zm16 0h8v8h-8v-8zm8 0h8v8h-8v-8zm8 0h8v8h-8v-8zm16 0h8v8h-8v-8zm16 0h8v8h-8v-8zm8 0h8v8h-8v-8zm8 0h8v8h-8v-8zm8 0h8v8h-8v-8zm8 0h8v8h-8v-8zm8 0h8v8h-8v-8zm32 0h8v8h-8v-8zm24 0h8v8h-8v-8zm8 0h8v8h-8v-8zm8 0h8v8h-8v-8zm8 0h8v8h-8v-8zm8 0h8v8h-8v-8zm16 0h8v8h-8v-8zm8 0h8v8h-8v-8zm8 0h8v8h-8v-8zM8 208h8v8H8v-8zm16 0h8v8h-8v-8zm8 0h8v8h-8v-8zm8 0h8v8h-8v-8zm16 0h8v8h-8v-8zm16 0h8v8h-8v-8zm8 0h8v8h-8v-8zm8 0h8v8h-8v-8zm16 0h8v8h-8v-8zm8 0h8v8h-8v-8zm24 0h8v8h-8v-8zm16 0h8v8h-8v-8zm8 0h8v8h-8v-8zm32 0h8v8h-8v-8zm16 0h8v8h-8v-8zm8 0h8v8h-8v-8zM8 216h8v8H8v-8zm16 0h8v8h-8v-8zm8 0h8v8h-8v-8zm8 0h8v8h-8v-8zm16 0h8v8h-8v-8zm16 0h8v8h-8v-8zm8 0h8v8h-8v-8zm8 0h8v8h-8v-8zm8 0h8v8h-8v-8zm8 0h8v8h-8v-8zm8 0h8v8h-8v-8zm8 0h8v8h-8v-8zm16 0h8v8h-8v-8zm8 0h8v8h-8v-8zm24 0h8v8h-8v-8zm8 0h8v8h-8v-8zm8 0h8v8h-8v-8zm8 0h8v8h-8v-8zm8 0h8v8h-8v-8zm8 0h8v8h-8v-8zm8 0h8v8h-8v-8zm8 0h8v8h-8v-8zM8 224h8v8H8v-8zm48 0h8v8h-8v-8zm16 0h8v8h-8v-8zm40 0h8v8h-8v-8zm16 0h8v8h-8v-8zm16 0h8v8h-8v-8zm8 0h8v8h-8v-8zm8 0h8v8h-8v-8zm8 0h8v8h-8v-8zm8 0h8v8h-8v-8zm16 0h8v8h-8v-8zm8 0h8v8h-8v-8zm8 0h8v8h-8v-8zm16 0h8v8h-8v-8zM8 232h8v8H8v-8zm8 0h8v8h-8v-8zm8 0h8v8h-8v-8zm8 0h8v8h-8v-8zm8 0h8v8h-8v-8zm8 0h8v8h-8v-8zm8 0h8v8h-8v-8zm16 0h8v8h-8v-8zm24 0h8v8h-8v-8zm8 0h8v8h-8v-8zm16 0h8v8h-8v-8zm8 0h8v8h-8v-8zm24 0h8v8h-8v-8zm8 0h8v8h-8v-8zm40 0h8v8h-8v-8zm8 0h8v8h-8v-8zm8 0h8v8h-8v-8z"/><g fill="#00A0E8"><path d="M136.9 129.1c5.8 1.9 7.1 2 7.1 2v-20.7c0-3.5-2.9-6.4-6.4-6.4h-27.2c-3.5 0-6.4 2.9-6.4 6.4v27.1c0 3.5 2.9 6.4 6.4 6.4h27.2c3.5 0 6.4-2.9 6.4-6.4v-.3s-10.4-4.3-15.7-6.8c-3.5 4.3-8.1 7-12.8 7-4.7 0-8-2.7-8.4-5.6 0 0-1-3 1.5-6 .8-1 2.2-2 4.4-2.5 3.4-.8 8.8.5 13.9 2.2.9-1.7 1.7-3.5 2.3-5.5h-15.7v-1.6h8.1v-2.8h-9.8V114h9.8v-4s0-.7.7-.7h3.9v4.7h9.7v1.6h-9.7v2.8h7.9c-.8 3.1-1.9 5.9-3.3 8.4l6.1 2.3z"/><path d="M144 137.3v.3c0 3.5-2.9 6.4-6.4 6.4h-27.2c-3.5 0-6.4-2.9-6.4-6.4v-27.1c0-3.5 2.9-6.4 6.4-6.4h27.2c3.5 0 6.4 2.9 6.4 6.4V137.3z"/></g><path fill="#fff" d="M136.9 129.1c-1.6-.5-3.7-1.4-6.1-2.2 1.4-2.5 2.6-5.3 3.3-8.4h-7.9v-2.8h9.7v-1.6h-9.7v-4.7h-3.9c-.7 0-.7.7-.7.7v4h-9.8v1.6h9.8v2.8h-8.1v1.6h15.6c-.6 2-1.3 3.8-2.3 5.5-5.1-1.7-10.5-3-13.9-2.2-2.2.5-3.6 1.5-4.4 2.5-3.8 4.6-1.1 11.5 6.9 11.5 4.7 0 9.3-2.6 12.8-6.9 5.3 2.5 15.7 6.8 15.7 6.8v-6.2c.1 0-1.2-.1-7-2zm-22.1 5.6c-6.2 0-8.1-4.9-5-7.6 1-.9 2.9-1.3 3.9-1.4 3.7-.4 7.1 1 11.2 3-2.9 3.7-6.5 6-10.1 6z"/></svg>