<svg aria-hidden="true" xmlns="http://www.w3.org/2000/svg">
    <defs>
        <symbol id="alipay" viewBox="0 0 40 40">
            <path d="M32.9 25.1c5.8 1.9 7.1 2 7.1 2V6.4A6.44 6.44 0 0033.6 0H6.4A6.44 6.44 0 000 6.4v27.1a6.44 6.44 0 006.4 6.4h27.2a6.44 6.44 0 006.4-6.4v-.3s-10.4-4.3-15.7-6.8c-3.5 4.3-8.1 7-12.8 7s-8-2.7-8.4-5.6a6.6 6.6 0 011.5-6A7.64 7.64 0 019 19.3c3.4-.8 8.8.5 13.9 2.2a30.24 30.24 0 002.3-5.5H9.5v-1.6h8.1v-2.8H7.8V10h9.8V6a.69.69 0 01.7-.7h3.9V10h9.7v1.6h-9.7v2.8h7.9a35 35 0 01-3.3 8.4z"/>
            <path d="M40 33.3v.3a6.44 6.44 0 01-6.4 6.4H6.4A6.44 6.44 0 010 33.6V6.5A6.44 6.44 0 016.4.1h27.2A6.44 6.44 0 0140 6.5z"/>
            <path d="M32.9 25.1c-1.6-.5-3.7-1.4-6.1-2.2a31.32 31.32 0 003.3-8.4h-7.9v-2.8h9.7v-1.6h-9.7V5.4h-3.9a.69.69 0 00-.7.7v4H7.8v1.6h9.8v2.8H9.5v1.6h15.6a24.52 24.52 0 01-2.3 5.5c-5.1-1.7-10.5-3-13.9-2.2a7.64 7.64 0 00-4.4 2.5c-3.8 4.6-1.1 11.5 6.9 11.5 4.7 0 9.3-2.6 12.8-6.9 5.3 2.5 15.7 6.8 15.7 6.8v-6.2a50.91 50.91 0 01-7-2zm-22.1 5.6c-6.2 0-8.1-4.9-5-7.6a7.72 7.72 0 013.9-1.4c3.7-.4 7.1 1 11.2 3-2.9 3.7-6.5 6-10.1 6z" fill="#fff"/>
        </symbol>
        <symbol id="wechatpay" viewBox="0 0 40.1 35.4">
            <path d="M14.5 22.5a1.27 1.27 0 01-.6.1 1.52 1.52 0 01-1.2-.7l-.1-.2-3.6-8c0-.1-.1-.2-.1-.3a.68.68 0 01.7-.7.6.6 0 01.4.1l4.3 3.1a2 2 0 001.1.3 1.7 1.7 0 00.7-.1l20.2-9A21.27 21.27 0 0020 0C9 0 0 7.5 0 16.7c0 5 2.7 9.5 6.9 12.6a1.36 1.36 0 01.6 1.1.6.6 0 01-.1.4c-.3 1.3-.9 3.3-.9 3.4s-.1.3-.1.5a.68.68 0 00.7.7c.1 0 .3-.1.4-.1l4.4-2.5a2 2 0 011.1-.3 1.27 1.27 0 01.6.1 22.69 22.69 0 006.5.9c11 0 20-7.5 20-16.7a13.92 13.92 0 00-2.3-7.7l-23 13.3-.3.1z" />
        </symbol>
    </defs>
</svg>