<svg xmlns="http://www.w3.org/2000/svg" width="248" height="248"><path fill="rgba(255,255,255,0.7)" d="M0 0h248v248H0z"/><path d="M8 8h8v8H8zm8 0h8v8h-8zm8 0h8v8h-8zm8 0h8v8h-8zm8 0h8v8h-8zm8 0h8v8h-8zm8 0h8v8h-8zm32 0h8v8h-8zm16 0h8v8h-8zm16 0h8v8h-8zm8 0h8v8h-8zm8 0h8v8h-8zm8 0h8v8h-8zm24 0h8v8h-8zm16 0h8v8h-8zm8 0h8v8h-8zm8 0h8v8h-8zm8 0h8v8h-8zm8 0h8v8h-8zm8 0h8v8h-8zm8 0h8v8h-8zM8 16h8v8H8zm48 0h8v8h-8zm16 0h8v8h-8zm16 0h8v8h-8zm24 0h8v8h-8zm32 0h8v8h-8zm16 0h8v8h-8zm8 0h8v8h-8zm16 0h8v8h-8zm48 0h8v8h-8zM8 24h8v8H8zm16 0h8v8h-8zm8 0h8v8h-8zm8 0h8v8h-8zm16 0h8v8h-8zm48 0h8v8h-8zm24 0h8v8h-8zm16 0h8v8h-8zm8 0h8v8h-8zm8 0h8v8h-8zm24 0h8v8h-8zm16 0h8v8h-8zm8 0h8v8h-8zm8 0h8v8h-8zm16 0h8v8h-8zM8 32h8v8H8zm16 0h8v8h-8zm8 0h8v8h-8zm8 0h8v8h-8zm16 0h8v8h-8zm16 0h8v8h-8zm8 0h8v8h-8zm8 0h8v8h-8zm16 0h8v8h-8zm16 0h8v8h-8zm16 0h8v8h-8zm16 0h8v8h-8zm8 0h8v8h-8zm8 0h8v8h-8zm16 0h8v8h-8zm16 0h8v8h-8zm8 0h8v8h-8zm8 0h8v8h-8zm16 0h8v8h-8zM8 40h8v8H8zm16 0h8v8h-8zm8 0h8v8h-8zm8 0h8v8h-8zm16 0h8v8h-8zm24 0h8v8h-8zm32 0h8v8h-8zm8 0h8v8h-8zm8 0h8v8h-8zm8 0h8v8h-8zm8 0h8v8h-8zm8 0h8v8h-8zm32 0h8v8h-8zm16 0h8v8h-8zm8 0h8v8h-8zm8 0h8v8h-8zm16 0h8v8h-8zM8 48h8v8H8zm48 0h8v8h-8zm16 0h8v8h-8zm8 0h8v8h-8zm16 0h8v8h-8zm8 0h8v8h-8zm32 0h8v8h-8zm8 0h8v8h-8zm16 0h8v8h-8zm24 0h8v8h-8zm48 0h8v8h-8zM8 56h8v8H8zm8 0h8v8h-8zm8 0h8v8h-8zm8 0h8v8h-8zm8 0h8v8h-8zm8 0h8v8h-8zm8 0h8v8h-8zm16 0h8v8h-8zm16 0h8v8h-8zm16 0h8v8h-8zm16 0h8v8h-8zm16 0h8v8h-8zm16 0h8v8h-8zm16 0h8v8h-8zm16 0h8v8h-8zm8 0h8v8h-8zm8 0h8v8h-8zm8 0h8v8h-8zm8 0h8v8h-8zm8 0h8v8h-8zm8 0h8v8h-8zM80 64h8v8h-8zm8 0h8v8h-8zm8 0h8v8h-8zm16 0h8v8h-8zm8 0h8v8h-8zm8 0h8v8h-8zm8 0h8v8h-8zm16 0h8v8h-8zM8 72h8v8H8zm8 0h8v8h-8zm8 0h8v8h-8zm8 0h8v8h-8zm8 0h8v8h-8zm16 0h8v8h-8zm8 0h8v8h-8zm8 0h8v8h-8zm8 0h8v8h-8zm16 0h8v8h-8zm40 0h8v8h-8zm16 0h8v8h-8zm8 0h8v8h-8zm8 0h8v8h-8zm8 0h8v8h-8zm16 0h8v8h-8zm16 0h8v8h-8zm16 0h8v8h-8zM8 80h8v8H8zm8 0h8v8h-8zm8 0h8v8h-8zm8 0h8v8h-8zm40 0h8v8h-8zm16 0h8v8h-8zm16 0h8v8h-8zm16 0h8v8h-8zm8 0h8v8h-8zm8 0h8v8h-8zm32 0h8v8h-8zm8 0h8v8h-8zm8 0h8v8h-8zm32 0h8v8h-8zm16 0h8v8h-8zM8 88h8v8H8zm24 0h8v8h-8zm8 0h8v8h-8zm16 0h8v8h-8zm8 0h8v8h-8zm8 0h8v8h-8zm16 0h8v8h-8zm24 0h8v8h-8zm8 0h8v8h-8zm8 0h8v8h-8zm16 0h8v8h-8zm8 0h8v8h-8zm8 0h8v8h-8zm16 0h8v8h-8zm8 0h8v8h-8zm32 0h8v8h-8zm8 0h8v8h-8zM8 96h8v8H8zm16 0h8v8h-8zm16 0h8v8h-8zm8 0h8v8h-8zm24 0h8v8h-8zm32 0h8v8h-8zm24 0h8v8h-8zm16 0h8v8h-8zm8 0h8v8h-8zm16 0h8v8h-8zm16 0h8v8h-8zm16 0h8v8h-8zm24 0h8v8h-8zm-200 8h8v8h-8zm16 0h8v8h-8zm8 0h8v8h-8zm8 0h8v8h-8zm16 0h8v8h-8zm8 0h8v8h-8zm8 0h8v8h-8zm16 0h8v8h-8zm24 0h8v8h-8zm8 0h8v8h-8zm16 0h8v8h-8zm8 0h8v8h-8zm24 0h8v8h-8zm8 0h8v8h-8zm24 0h8v8h-8zm8 0h8v8h-8zm-208 8h8v8h-8zm8 0h8v8h-8zm16 0h8v8h-8zm8 0h8v8h-8zm72 0h8v8h-8zm8 0h8v8h-8zm8 0h8v8h-8zm32 0h8v8h-8zm8 0h8v8h-8zm24 0h8v8h-8zm8 0h8v8h-8zm8 0h8v8h-8zm16 0h8v8h-8zM8 120h8v8H8zm24 0h8v8h-8zm8 0h8v8h-8zm16 0h8v8h-8zm8 0h8v8h-8zm16 0h8v8h-8zm16 0h8v8h-8zm8 0h8v8h-8zm24 0h8v8h-8zm16 0h8v8h-8zm16 0h8v8h-8zm40 0h8v8h-8zm8 0h8v8h-8zm8 0h8v8h-8zM8 128h8v8H8zm8 0h8v8h-8zm8 0h8v8h-8zm8 0h8v8h-8zm8 0h8v8h-8zm8 0h8v8h-8zm16 0h8v8h-8zm16 0h8v8h-8zm16 0h8v8h-8zm16 0h8v8h-8zm24 0h8v8h-8zm16 0h8v8h-8zm16 0h8v8h-8zm8 0h8v8h-8zm8 0h8v8h-8zm16 0h8v8h-8zm24 0h8v8h-8zm-200 8h8v8h-8zm32 0h8v8h-8zm16 0h8v8h-8zm8 0h8v8h-8zm8 0h8v8h-8zm8 0h8v8h-8zm24 0h8v8h-8zm16 0h8v8h-8zm32 0h8v8h-8zm8 0h8v8h-8zm40 0h8v8h-8zm8 0h8v8h-8zm8 0h8v8h-8zM8 144h8v8H8zm8 0h8v8h-8zm72 0h8v8h-8zm16 0h8v8h-8zm8 0h8v8h-8zm16 0h8v8h-8zm8 0h8v8h-8zm8 0h8v8h-8zm8 0h8v8h-8zm16 0h8v8h-8zm8 0h8v8h-8zm24 0h8v8h-8zm8 0h8v8h-8zm8 0h8v8h-8zm16 0h8v8h-8zM8 152h8v8H8zm32 0h8v8h-8zm8 0h8v8h-8zm8 0h8v8h-8zm16 0h8v8h-8zm48 0h8v8h-8zm16 0h8v8h-8zm24 0h8v8h-8zm16 0h8v8h-8zm24 0h8v8h-8zm8 0h8v8h-8zm8 0h8v8h-8zM8 160h8v8H8zm16 0h8v8h-8zm56 0h8v8h-8zm8 0h8v8h-8zm16 0h8v8h-8zm8 0h8v8h-8zm16 0h8v8h-8zm8 0h8v8h-8zm8 0h8v8h-8zm8 0h8v8h-8zm8 0h8v8h-8zm16 0h8v8h-8zm8 0h8v8h-8zm16 0h8v8h-8zm8 0h8v8h-8zm24 0h8v8h-8zM8 168h8v8H8zm24 0h8v8h-8zm8 0h8v8h-8zm8 0h8v8h-8zm8 0h8v8h-8zm16 0h8v8h-8zm8 0h8v8h-8zm8 0h8v8h-8zm16 0h8v8h-8zm32 0h8v8h-8zm24 0h8v8h-8zm8 0h8v8h-8zm8 0h8v8h-8zm8 0h8v8h-8zm8 0h8v8h-8zm8 0h8v8h-8zm16 0h8v8h-8zm-144 8h8v8h-8zm48 0h8v8h-8zm8 0h8v8h-8zm32 0h8v8h-8zm8 0h8v8h-8zm32 0h8v8h-8zm8 0h8v8h-8zm24 0h8v8h-8zM8 184h8v8H8zm8 0h8v8h-8zm8 0h8v8h-8zm8 0h8v8h-8zm8 0h8v8h-8zm8 0h8v8h-8zm8 0h8v8h-8zm16 0h8v8h-8zm16 0h8v8h-8zm8 0h8v8h-8zm8 0h8v8h-8zm48 0h8v8h-8zm16 0h8v8h-8zm16 0h8v8h-8zm16 0h8v8h-8zm16 0h8v8h-8zM8 192h8v8H8zm48 0h8v8h-8zm32 0h8v8h-8zm8 0h8v8h-8zm16 0h8v8h-8zm16 0h8v8h-8zm8 0h8v8h-8zm8 0h8v8h-8zm24 0h8v8h-8zm32 0h8v8h-8zm24 0h8v8h-8zm8 0h8v8h-8zM8 200h8v8H8zm16 0h8v8h-8zm8 0h8v8h-8zm8 0h8v8h-8zm16 0h8v8h-8zm16 0h8v8h-8zm8 0h8v8h-8zm8 0h8v8h-8zm8 0h8v8h-8zm8 0h8v8h-8zm16 0h8v8h-8zm16 0h8v8h-8zm16 0h8v8h-8zm8 0h8v8h-8zm8 0h8v8h-8zm8 0h8v8h-8zm8 0h8v8h-8zm8 0h8v8h-8zm8 0h8v8h-8zm8 0h8v8h-8zm8 0h8v8h-8zm8 0h8v8h-8zm8 0h8v8h-8zM8 208h8v8H8zm16 0h8v8h-8zm8 0h8v8h-8zm8 0h8v8h-8zm16 0h8v8h-8zm16 0h8v8h-8zm16 0h8v8h-8zm16 0h8v8h-8zm16 0h8v8h-8zm8 0h8v8h-8zm8 0h8v8h-8zm8 0h8v8h-8zm24 0h8v8h-8zm8 0h8v8h-8zm8 0h8v8h-8zm8 0h8v8h-8zm32 0h8v8h-8zM8 216h8v8H8zm16 0h8v8h-8zm8 0h8v8h-8zm8 0h8v8h-8zm16 0h8v8h-8zm16 0h8v8h-8zm16 0h8v8h-8zm16 0h8v8h-8zm8 0h8v8h-8zm16 0h8v8h-8zm32 0h8v8h-8zm16 0h8v8h-8zm8 0h8v8h-8zm16 0h8v8h-8zm16 0h8v8h-8zm8 0h8v8h-8zM8 224h8v8H8zm48 0h8v8h-8zm16 0h8v8h-8zm32 0h8v8h-8zm8 0h8v8h-8zm8 0h8v8h-8zm8 0h8v8h-8zm16 0h8v8h-8zm32 0h8v8h-8zm8 0h8v8h-8zm24 0h8v8h-8zm16 0h8v8h-8zM8 232h8v8H8zm8 0h8v8h-8zm8 0h8v8h-8zm8 0h8v8h-8zm8 0h8v8h-8zm8 0h8v8h-8zm8 0h8v8h-8zm16 0h8v8h-8zm8 0h8v8h-8zm8 0h8v8h-8zm16 0h8v8h-8zm32 0h8v8h-8zm56 0h8v8h-8zm8 0h8v8h-8zm16 0h8v8h-8z"/></svg>