<svg xmlns="http://www.w3.org/2000/svg" viewBox="0 0 40.1 35.4"><path d="M14.5 22.5a1.27 1.27 0 01-.6.1 1.52 1.52 0 01-1.2-.7l-.1-.2-3.6-8c0-.1-.1-.2-.1-.3a.68.68 0 01.7-.7.6.6 0 01.4.1l4.3 3.1a2 2 0 001.1.3 1.7 1.7 0 00.7-.1l20.2-9A21.27 21.27 0 0020 0C9 0 0 7.5 0 16.7c0 5 2.7 9.5 6.9 12.6a1.36 1.36 0 01.6 1.1.6.6 0 01-.1.4c-.3 1.3-.9 3.3-.9 3.4s-.1.3-.1.5a.68.68 0 00.7.7c.1 0 .3-.1.4-.1l4.4-2.5a2 2 0 011.1-.3 1.27 1.27 0 01.6.1 22.69 22.69 0 006.5.9c11 0 20-7.5 20-16.7a13.92 13.92 0 00-2.3-7.7l-23 13.3-.3.1z" /></svg>