<svg xmlns="http://www.w3.org/2000/svg" viewBox="0 0 248 248"><path fill="rgba(255,255,255,0.7)" d="M0 0h248v248H0V0z"/><path d="M8 8h8v8H8V8zm8 0h8v8h-8V8zm8 0h8v8h-8V8zm8 0h8v8h-8V8zm8 0h8v8h-8V8zm8 0h8v8h-8V8zm8 0h8v8h-8V8zm32 0h8v8h-8V8zm16 0h8v8h-8V8zm16 0h8v8h-8V8zm8 0h8v8h-8V8zm8 0h8v8h-8V8zm8 0h8v8h-8V8zm24 0h8v8h-8V8zm16 0h8v8h-8V8zm8 0h8v8h-8V8zm8 0h8v8h-8V8zm8 0h8v8h-8V8zm8 0h8v8h-8V8zm8 0h8v8h-8V8zm8 0h8v8h-8V8zM8 16h8v8H8v-8zm48 0h8v8h-8v-8zm16 0h8v8h-8v-8zm16 0h8v8h-8v-8zm24 0h8v8h-8v-8zm32 0h8v8h-8v-8zm16 0h8v8h-8v-8zm8 0h8v8h-8v-8zm16 0h8v8h-8v-8zm48 0h8v8h-8v-8zM8 24h8v8H8v-8zm16 0h8v8h-8v-8zm8 0h8v8h-8v-8zm8 0h8v8h-8v-8zm16 0h8v8h-8v-8zm48 0h8v8h-8v-8zm24 0h8v8h-8v-8zm16 0h8v8h-8v-8zm8 0h8v8h-8v-8zm8 0h8v8h-8v-8zm24 0h8v8h-8v-8zm16 0h8v8h-8v-8zm8 0h8v8h-8v-8zm8 0h8v8h-8v-8zm16 0h8v8h-8v-8zM8 32h8v8H8v-8zm16 0h8v8h-8v-8zm8 0h8v8h-8v-8zm8 0h8v8h-8v-8zm16 0h8v8h-8v-8zm16 0h8v8h-8v-8zm8 0h8v8h-8v-8zm8 0h8v8h-8v-8zm16 0h8v8h-8v-8zm16 0h8v8h-8v-8zm16 0h8v8h-8v-8zm16 0h8v8h-8v-8zm8 0h8v8h-8v-8zm8 0h8v8h-8v-8zm16 0h8v8h-8v-8zm16 0h8v8h-8v-8zm8 0h8v8h-8v-8zm8 0h8v8h-8v-8zm16 0h8v8h-8v-8zM8 40h8v8H8v-8zm16 0h8v8h-8v-8zm8 0h8v8h-8v-8zm8 0h8v8h-8v-8zm16 0h8v8h-8v-8zm24 0h8v8h-8v-8zm32 0h8v8h-8v-8zm8 0h8v8h-8v-8zm8 0h8v8h-8v-8zm8 0h8v8h-8v-8zm8 0h8v8h-8v-8zm8 0h8v8h-8v-8zm32 0h8v8h-8v-8zm16 0h8v8h-8v-8zm8 0h8v8h-8v-8zm8 0h8v8h-8v-8zm16 0h8v8h-8v-8zM8 48h8v8H8v-8zm48 0h8v8h-8v-8zm16 0h8v8h-8v-8zm8 0h8v8h-8v-8zm16 0h8v8h-8v-8zm8 0h8v8h-8v-8zm32 0h8v8h-8v-8zm8 0h8v8h-8v-8zm16 0h8v8h-8v-8zm24 0h8v8h-8v-8zm48 0h8v8h-8v-8zM8 56h8v8H8v-8zm8 0h8v8h-8v-8zm8 0h8v8h-8v-8zm8 0h8v8h-8v-8zm8 0h8v8h-8v-8zm8 0h8v8h-8v-8zm8 0h8v8h-8v-8zm16 0h8v8h-8v-8zm16 0h8v8h-8v-8zm16 0h8v8h-8v-8zm16 0h8v8h-8v-8zm16 0h8v8h-8v-8zm16 0h8v8h-8v-8zm16 0h8v8h-8v-8zm16 0h8v8h-8v-8zm8 0h8v8h-8v-8zm8 0h8v8h-8v-8zm8 0h8v8h-8v-8zm8 0h8v8h-8v-8zm8 0h8v8h-8v-8zm8 0h8v8h-8v-8zM80 64h8v8h-8v-8zm8 0h8v8h-8v-8zm8 0h8v8h-8v-8zm16 0h8v8h-8v-8zm8 0h8v8h-8v-8zm8 0h8v8h-8v-8zm8 0h8v8h-8v-8zm16 0h8v8h-8v-8zM8 72h8v8H8v-8zm8 0h8v8h-8v-8zm8 0h8v8h-8v-8zm8 0h8v8h-8v-8zm8 0h8v8h-8v-8zm16 0h8v8h-8v-8zm8 0h8v8h-8v-8zm8 0h8v8h-8v-8zm8 0h8v8h-8v-8zm16 0h8v8h-8v-8zm40 0h8v8h-8v-8zm16 0h8v8h-8v-8zm8 0h8v8h-8v-8zm8 0h8v8h-8v-8zm8 0h8v8h-8v-8zm16 0h8v8h-8v-8zm16 0h8v8h-8v-8zm16 0h8v8h-8v-8zM8 80h8v8H8v-8zm8 0h8v8h-8v-8zm8 0h8v8h-8v-8zm8 0h8v8h-8v-8zm40 0h8v8h-8v-8zm16 0h8v8h-8v-8zm16 0h8v8h-8v-8zm16 0h8v8h-8v-8zm8 0h8v8h-8v-8zm8 0h8v8h-8v-8zm32 0h8v8h-8v-8zm8 0h8v8h-8v-8zm8 0h8v8h-8v-8zm32 0h8v8h-8v-8zm16 0h8v8h-8v-8zM8 88h8v8H8v-8zm24 0h8v8h-8v-8zm8 0h8v8h-8v-8zm16 0h8v8h-8v-8zm8 0h8v8h-8v-8zm8 0h8v8h-8v-8zm16 0h8v8h-8v-8zm24 0h8v8h-8v-8zm8 0h8v8h-8v-8zm8 0h8v8h-8v-8zm16 0h8v8h-8v-8zm8 0h8v8h-8v-8zm8 0h8v8h-8v-8zm16 0h8v8h-8v-8zm8 0h8v8h-8v-8zm32 0h8v8h-8v-8zm8 0h8v8h-8v-8zM8 96h8v8H8v-8zm16 0h8v8h-8v-8zm16 0h8v8h-8v-8zm8 0h8v8h-8v-8zm24 0h8v8h-8v-8zm32 0h8v8h-8v-8zm24 0h8v8h-8v-8zm16 0h8v8h-8v-8zm8 0h8v8h-8v-8zm16 0h8v8h-8v-8zm16 0h8v8h-8v-8zm16 0h8v8h-8v-8zm24 0h8v8h-8v-8zm-200 8h8v8h-8v-8zm16 0h8v8h-8v-8zm8 0h8v8h-8v-8zm8 0h8v8h-8v-8zm16 0h8v8h-8v-8zm8 0h8v8h-8v-8zm8 0h8v8h-8v-8zm16 0h8v8h-8v-8zm24 0h8v8h-8v-8zm8 0h8v8h-8v-8zm16 0h8v8h-8v-8zm8 0h8v8h-8v-8zm24 0h8v8h-8v-8zm8 0h8v8h-8v-8zm24 0h8v8h-8v-8zm8 0h8v8h-8v-8zm-208 8h8v8h-8v-8zm8 0h8v8h-8v-8zm16 0h8v8h-8v-8zm8 0h8v8h-8v-8zm72 0h8v8h-8v-8zm8 0h8v8h-8v-8zm8 0h8v8h-8v-8zm32 0h8v8h-8v-8zm8 0h8v8h-8v-8zm24 0h8v8h-8v-8zm8 0h8v8h-8v-8zm8 0h8v8h-8v-8zm16 0h8v8h-8v-8zM8 120h8v8H8v-8zm24 0h8v8h-8v-8zm8 0h8v8h-8v-8zm16 0h8v8h-8v-8zm8 0h8v8h-8v-8zm16 0h8v8h-8v-8zm16 0h8v8h-8v-8zm8 0h8v8h-8v-8zm24 0h8v8h-8v-8zm16 0h8v8h-8v-8zm16 0h8v8h-8v-8zm40 0h8v8h-8v-8zm8 0h8v8h-8v-8zm8 0h8v8h-8v-8zM8 128h8v8H8v-8zm8 0h8v8h-8v-8zm8 0h8v8h-8v-8zm8 0h8v8h-8v-8zm8 0h8v8h-8v-8zm8 0h8v8h-8v-8zm16 0h8v8h-8v-8zm16 0h8v8h-8v-8zm16 0h8v8h-8v-8zm16 0h8v8h-8v-8zm24 0h8v8h-8v-8zm16 0h8v8h-8v-8zm16 0h8v8h-8v-8zm8 0h8v8h-8v-8zm8 0h8v8h-8v-8zm16 0h8v8h-8v-8zm24 0h8v8h-8v-8zm-200 8h8v8h-8v-8zm32 0h8v8h-8v-8zm16 0h8v8h-8v-8zm8 0h8v8h-8v-8zm8 0h8v8h-8v-8zm8 0h8v8h-8v-8zm24 0h8v8h-8v-8zm16 0h8v8h-8v-8zm32 0h8v8h-8v-8zm8 0h8v8h-8v-8zm40 0h8v8h-8v-8zm8 0h8v8h-8v-8zm8 0h8v8h-8v-8zM8 144h8v8H8v-8zm8 0h8v8h-8v-8zm72 0h8v8h-8v-8zm16 0h8v8h-8v-8zm8 0h8v8h-8v-8zm16 0h8v8h-8v-8zm8 0h8v8h-8v-8zm8 0h8v8h-8v-8zm8 0h8v8h-8v-8zm16 0h8v8h-8v-8zm8 0h8v8h-8v-8zm24 0h8v8h-8v-8zm8 0h8v8h-8v-8zm8 0h8v8h-8v-8zm16 0h8v8h-8v-8zM8 152h8v8H8v-8zm32 0h8v8h-8v-8zm8 0h8v8h-8v-8zm8 0h8v8h-8v-8zm16 0h8v8h-8v-8zm48 0h8v8h-8v-8zm16 0h8v8h-8v-8zm24 0h8v8h-8v-8zm16 0h8v8h-8v-8zm24 0h8v8h-8v-8zm8 0h8v8h-8v-8zm8 0h8v8h-8v-8zM8 160h8v8H8v-8zm16 0h8v8h-8v-8zm56 0h8v8h-8v-8zm8 0h8v8h-8v-8zm16 0h8v8h-8v-8zm8 0h8v8h-8v-8zm16 0h8v8h-8v-8zm8 0h8v8h-8v-8zm8 0h8v8h-8v-8zm8 0h8v8h-8v-8zm8 0h8v8h-8v-8zm16 0h8v8h-8v-8zm8 0h8v8h-8v-8zm16 0h8v8h-8v-8zm8 0h8v8h-8v-8zm24 0h8v8h-8v-8zM8 168h8v8H8v-8zm24 0h8v8h-8v-8zm8 0h8v8h-8v-8zm8 0h8v8h-8v-8zm8 0h8v8h-8v-8zm16 0h8v8h-8v-8zm8 0h8v8h-8v-8zm8 0h8v8h-8v-8zm16 0h8v8h-8v-8zm32 0h8v8h-8v-8zm24 0h8v8h-8v-8zm8 0h8v8h-8v-8zm8 0h8v8h-8v-8zm8 0h8v8h-8v-8zm8 0h8v8h-8v-8zm8 0h8v8h-8v-8zm16 0h8v8h-8v-8zm-144 8h8v8h-8v-8zm48 0h8v8h-8v-8zm8 0h8v8h-8v-8zm32 0h8v8h-8v-8zm8 0h8v8h-8v-8zm32 0h8v8h-8v-8zm8 0h8v8h-8v-8zm24 0h8v8h-8v-8zM8 184h8v8H8v-8zm8 0h8v8h-8v-8zm8 0h8v8h-8v-8zm8 0h8v8h-8v-8zm8 0h8v8h-8v-8zm8 0h8v8h-8v-8zm8 0h8v8h-8v-8zm16 0h8v8h-8v-8zm16 0h8v8h-8v-8zm8 0h8v8h-8v-8zm8 0h8v8h-8v-8zm48 0h8v8h-8v-8zm16 0h8v8h-8v-8zm16 0h8v8h-8v-8zm16 0h8v8h-8v-8zm16 0h8v8h-8v-8zM8 192h8v8H8v-8zm48 0h8v8h-8v-8zm32 0h8v8h-8v-8zm8 0h8v8h-8v-8zm16 0h8v8h-8v-8zm16 0h8v8h-8v-8zm8 0h8v8h-8v-8zm8 0h8v8h-8v-8zm24 0h8v8h-8v-8zm32 0h8v8h-8v-8zm24 0h8v8h-8v-8zm8 0h8v8h-8v-8zM8 200h8v8H8v-8zm16 0h8v8h-8v-8zm8 0h8v8h-8v-8zm8 0h8v8h-8v-8zm16 0h8v8h-8v-8zm16 0h8v8h-8v-8zm8 0h8v8h-8v-8zm8 0h8v8h-8v-8zm8 0h8v8h-8v-8zm8 0h8v8h-8v-8zm16 0h8v8h-8v-8zm16 0h8v8h-8v-8zm16 0h8v8h-8v-8zm8 0h8v8h-8v-8zm8 0h8v8h-8v-8zm8 0h8v8h-8v-8zm8 0h8v8h-8v-8zm8 0h8v8h-8v-8zm8 0h8v8h-8v-8zm8 0h8v8h-8v-8zm8 0h8v8h-8v-8zm8 0h8v8h-8v-8zm8 0h8v8h-8v-8zM8 208h8v8H8v-8zm16 0h8v8h-8v-8zm8 0h8v8h-8v-8zm8 0h8v8h-8v-8zm16 0h8v8h-8v-8zm16 0h8v8h-8v-8zm16 0h8v8h-8v-8zm16 0h8v8h-8v-8zm16 0h8v8h-8v-8zm8 0h8v8h-8v-8zm8 0h8v8h-8v-8zm8 0h8v8h-8v-8zm24 0h8v8h-8v-8zm8 0h8v8h-8v-8zm8 0h8v8h-8v-8zm8 0h8v8h-8v-8zm32 0h8v8h-8v-8zM8 216h8v8H8v-8zm16 0h8v8h-8v-8zm8 0h8v8h-8v-8zm8 0h8v8h-8v-8zm16 0h8v8h-8v-8zm16 0h8v8h-8v-8zm16 0h8v8h-8v-8zm16 0h8v8h-8v-8zm8 0h8v8h-8v-8zm16 0h8v8h-8v-8zm32 0h8v8h-8v-8zm16 0h8v8h-8v-8zm8 0h8v8h-8v-8zm16 0h8v8h-8v-8zm16 0h8v8h-8v-8zm8 0h8v8h-8v-8zM8 224h8v8H8v-8zm48 0h8v8h-8v-8zm16 0h8v8h-8v-8zm32 0h8v8h-8v-8zm8 0h8v8h-8v-8zm8 0h8v8h-8v-8zm8 0h8v8h-8v-8zm16 0h8v8h-8v-8zm32 0h8v8h-8v-8zm8 0h8v8h-8v-8zm24 0h8v8h-8v-8zm16 0h8v8h-8v-8zM8 232h8v8H8v-8zm8 0h8v8h-8v-8zm8 0h8v8h-8v-8zm8 0h8v8h-8v-8zm8 0h8v8h-8v-8zm8 0h8v8h-8v-8zm8 0h8v8h-8v-8zm16 0h8v8h-8v-8zm8 0h8v8h-8v-8zm8 0h8v8h-8v-8zm16 0h8v8h-8v-8zm32 0h8v8h-8v-8zm56 0h8v8h-8v-8zm8 0h8v8h-8v-8zm16 0h8v8h-8v-8z"/><path d="M118.5 128.7c-.2.1-.4.1-.6.1-.5 0-.9-.3-1.2-.7l-.1-.2-3.6-8c0-.1-.1-.2-.1-.3 0-.4.3-.7.7-.7.1 0 .3 0 .4.1l4.3 3.1c.3.2.7.3 1.1.3.2 0 .5 0 .7-.1l20.2-9c-3.6-4.3-9.6-7.1-16.3-7.1-11 0-20 7.5-20 16.7 0 5 2.7 9.5 6.9 12.6.3.2.6.6.6 1.1 0 .1 0 .3-.1.4-.3 1.3-.9 3.3-.9 3.4 0 .2-.1.3-.1.5 0 .4.3.7.7.7.1 0 .3-.1.4-.1l4.4-2.5c.3-.2.7-.3 1.1-.3.2 0 .4 0 .6.1 2 .6 4.2.9 6.5.9 11 0 20-7.5 20-16.7 0-2.8-.8-5.4-2.3-7.7l-23 13.3-.3.1z" fill="#09bb07"/></svg>