<?xml version="1.0" encoding="utf-8"?>
<svg version="1.1" id="Layer_1" xmlns="http://www.w3.org/2000/svg" xmlns:xlink="http://www.w3.org/1999/xlink" x="0px" y="0px"
	 viewBox="0 0 128 128" style="enable-background:new 0 0 128 128;" xml:space="preserve">
<style type="text/css">
	.st0{fill:#77E7FD;}
</style>
<path class="st0" d="M64,15L20.7,40v50L64,115l43.3-25V40L64,15z M53.34,40.54L60,36.69V29c0-2.21,1.79-4,4-4s4,1.79,4,4v7.69
	l6.66,3.85c1.91,1.1,2.57,3.55,1.46,5.46c-1.1,1.91-3.55,2.57-5.46,1.46L64,43.62l-6.66,3.85c-1.91,1.1-4.36,0.45-5.46-1.46
	C50.77,44.09,51.43,41.64,53.34,40.54z M74.66,65.54c1.91,1.1,2.57,3.55,1.46,5.46c-1.1,1.91-3.55,2.57-5.46,1.46L64,68.62
	l-6.66,3.85c-1.91,1.1-4.36,0.45-5.46-1.46c-1.1-1.91-0.45-4.36,1.46-5.46L60,61.69V54c0-2.21,1.79-4,4-4s4,1.79,4,4v7.69
	L74.66,65.54z M31.69,53.04l6.66-3.85V41.5c0-2.21,1.79-4,4-4s4,1.79,4,4v7.69l6.66,3.85c1.91,1.1,2.57,3.55,1.46,5.46
	c-1.1,1.91-3.55,2.57-5.46,1.46l-6.66-3.85l-6.66,3.85c-1.91,1.1-4.36,0.45-5.46-1.46C29.12,56.59,29.78,54.14,31.69,53.04z
	 M49.01,84.96l-6.66-3.85l-6.66,3.85c-1.91,1.1-4.36,0.45-5.46-1.46c-1.1-1.91-0.45-4.36,1.46-5.46l6.66-3.85V66.5
	c0-2.21,1.79-4,4-4s4,1.79,4,4v7.69l6.66,3.85c1.91,1.1,2.57,3.55,1.46,5.46C53.37,85.41,50.92,86.07,49.01,84.96z M76.12,96
	c-1.1,1.91-3.55,2.57-5.46,1.46L64,93.62l-6.66,3.85c-1.91,1.1-4.36,0.45-5.46-1.46c-1.1-1.91-0.45-4.36,1.46-5.46L60,86.69V79
	c0-2.21,1.79-4,4-4s4,1.79,4,4v7.69l6.66,3.85C76.57,91.64,77.23,94.09,76.12,96z M97.77,83.5c-1.1,1.91-3.55,2.57-5.46,1.46
	l-6.66-3.85l-6.66,3.85c-1.91,1.1-4.36,0.45-5.46-1.46c-1.1-1.91-0.45-4.36,1.46-5.46l6.66-3.85V66.5c0-2.21,1.79-4,4-4s4,1.79,4,4
	v7.69l6.66,3.85C98.22,79.14,98.88,81.59,97.77,83.5z M97.77,58.5c-1.1,1.91-3.55,2.57-5.46,1.46l-6.66-3.85l-6.66,3.85
	c-1.91,1.1-4.36,0.45-5.46-1.46c-1.1-1.91-0.45-4.36,1.46-5.46l6.66-3.85V41.5c0-2.21,1.79-4,4-4s4,1.79,4,4v7.69l6.66,3.85
	C98.22,54.14,98.88,56.59,97.77,58.5z"/>
</svg>
